{
classes = (
{
automatic = 1;
code = "A Aacute Abreve Acircumflex Adieresis Agrave Amacron Aogonek Aring Atilde AE B C Cacute Ccaron Ccedilla Cdotaccent D Eth Dcaron Dcroat E Eacute Ecaron Ecircumflex Edieresis Edotaccent Egrave Emacron Eogonek F G Gbreve Gcommaaccent Gdotaccent H Hbar I Iacute Icircumflex Idieresis Idotaccent Igrave Imacron Iogonek J K Kcommaaccent L Lacute Lcaron Lcommaaccent Lslash M N Nacute Ncaron Ncommaaccent Eng Ntilde O Oacute Ocircumflex Odieresis Ograve Ohungarumlaut Omacron Oslash Otilde OE P Thorn Q R Racute Rcaron Rcommaaccent S Sacute Scaron Scedilla Scommaaccent T Tbar Tcaron Tcedilla Tcommaaccent U Uacute Ucircumflex Udieresis Ugrave Uhungarumlaut Umacron Uogonek Uring V W Wacute Wcircumflex Wdieresis Wgrave X Y Yacute Ycircumflex Ydieresis Ygrave Z Zacute Zcaron Zdotaccent Delta Omega";
name = Uppercase;
}
);
date = "2015-10-07 16:33:12 +0000";
familyName = "Latin-Mizra";
featurePrefixes = (
{
automatic = 1;
code = "languagesystem DFLT dflt;\012languagesystem latn dflt;\012languagesystem latn ROM;\012languagesystem latn MOL;\012languagesystem latn KAZ;\012languagesystem latn TAT;\012languagesystem latn TRK;\012languagesystem latn CRT;\012languagesystem latn AZE;\012";
name = Languagesystems;
}
);
features = (
{
automatic = 1;
code = "feature ccmp;\012feature locl;\012feature sups;\012feature numr;\012feature dnom;\012feature frac;\012feature ordn;\012";
name = aalt;
},
{
automatic = 1;
code = "lookup latn_comb1 {\012\011script latn;\012@CombiningTopAccents = [acutecomb brevecomb caroncomb circumflexcomb commaturnedabovecomb dieresiscomb dotaccentcomb gravecomb hungarumlautcomb macroncomb ringcomb tildecomb];\012@CombiningNonTopAccents = [cedillacomb ogonekcomb slashlongcomb slashshortcomb strokelongcomb strokeshortcomb];\012\011sub [i]' @CombiningTopAccents by [idotless];\012\011sub [i]' @CombiningNonTopAccents @CombiningTopAccents by [idotless];\012} latn_comb1;\012";
name = ccmp;
},
{
automatic = 1;

glyphs = (
{
color = 4;
glyphname = A;
lastChange = "2015-12-28 19:12:02 +0000";
layers = (
{
anchors = (
{
name = bottom;
position = "{256, 0}";
},
{
name = ogonek;
position = "{506, 2}";
},
{
name = top;
position = "{256, 527}";
}
);
hints = (
{
horizontal = 1;
origin = "{0, 23}";
target = "{1, 11}";
},
{
horizontal = 1;
origin = "{0, 8}";
target = down;
type = TopGhost;
}
);
layerId = "51F41761-070F-43EA-B302-C90910850260";
name = Regular;
paths = (
{
closed = 1;
nodes = (
"468 -5 OFFCURVE",
"487 -3 OFFCURVE",
"506 2 CURVE",
"465 75 OFFCURVE",
"340 411 OFFCURVE",
"301 529 CURVE",
"272 535 OFFCURVE",
"243 535 OFFCURVE",
"210 529 CURVE",
"171 411 OFFCURVE",
"46 75 OFFCURVE",
"5 2 CURVE",
"19 -2 OFFCURVE",
"33 -4 OFFCURVE",
"47 -4 CURVE SMOOTH",
"57 -4 OFFCURVE",
"69 -2 OFFCURVE",
"82 2 CURVE",
"92 32 OFFCURVE",
"108 78 OFFCURVE",
"127 129 CURVE",
"149 133 OFFCURVE",
"182 134 OFFCURVE",
"227 134 CURVE SMOOTH",
"265 134 OFFCURVE",
"309 133 OFFCURVE",
"344 130 CURVE",
"363 78 OFFCURVE",
"379 32 OFFCURVE",
"389 2 CURVE",
"412 -3 OFFCURVE",
"432 -5 OFFCURVE",
"449 -5 CURVE SMOOTH"
);
},
{
closed = 1;
nodes = (
"229 193 OFFCURVE",
"186 194 OFFCURVE",
"152 196 CURVE",
"181 275 OFFCURVE",
"212 357 OFFCURVE",
"236 412 CURVE",
"257 363 OFFCURVE",
"290 277 OFFCURVE",
"321 194 CURVE",
"305 193 OFFCURVE",
"286 193 OFFCURVE",
"265 193 CURVE SMOOTH"
);
}
);
width = 511;
},
{
anchors = (
{
name = bottom;
position = "{276, 0}";
},
{
name = ogonek;
position = "{549, 2}";
},
{
name = top;
position = "{276, 527}";
}
);
layerId = "0E844BAD-773F-41FF-B6D6-C35F1E5E991C";
name = Bold;
paths = (
{
closed = 1;
nodes = (
"494 -5 OFFCURVE",
"522 -3 OFFCURVE",
"549 2 CURVE",
"508 75 OFFCURVE",
"383 411 OFFCURVE",
"344 529 CURVE",
"301 535 OFFCURVE",
"257 535 OFFCURVE",
"208 529 CURVE",
"169 411 OFFCURVE",
"44 75 OFFCURVE",
"3 2 CURVE",
"20 -2 OFFCURVE",
"38 -4 OFFCURVE",
"55 -4 CURVE SMOOTH",
"68 -4 OFFCURVE",
"83 -2 OFFCURVE",
"100 2 CURVE",
"109 30 OFFCURVE",
"124 72 OFFCURVE",
"142 120 CURVE",
"163 123 OFFCURVE",
"195 124 OFFCURVE",
"235 124 CURVE SMOOTH",
"272 124 OFFCURVE",
"314 123 OFFCURVE",
"350 121 CURVE",
"368 73 OFFCURVE",
"383 30 OFFCURVE",
"392 2 CURVE",
"421 -3 OFFCURVE",
"446 -5 OFFCURVE",
"467 -5 CURVE SMOOTH"
);
},
{
closed = 1;
nodes = (
"241 203 OFFCURVE",
"205 204 OFFCURVE",
"173 206 CURVE",
"198 273 OFFCURVE",
"225 343 OFFCURVE",
"246 395 CURVE",
"267 346 OFFCURVE",
"293 276 OFFCURVE",
"319 205 CURVE",
"305 204 OFFCURVE",
"288 203 OFFCURVE",
"273 203 CURVE SMOOTH"
);
}
);
width = 552;
}
);
leftKerningGroup = A;
rightKerningGroup = A;
unicode = 0041;
},
{
color = 4;
glyphname = AE;
lastChange = "2015-12-28 19:12:02 +0000";
layers = (
{
anchors = (
{
name = bottom;
position = "{351, 0}";
},
{
name = top;
position = "{351, 527}";
}
);
hints = (
{
horizontal = 1;
origin = "{0, 17}";
target = "{0, 26}";
},
{
horizontal = 1;
origin = "{0, 8}";
target = "{1, 11}";
},
{
horizontal = 1;
origin = "{0, 29}";
target = "{0, 41}";
},
{
horizontal = 1;
origin = "{0, 60}";
target = "{0, 48}";
},
{
horizontal = 1;
origin = "{0, 20}";
target = up;
type = BottomGhost;
}
);
layerId = "51F41761-070F-43EA-B302-C90910850260";
name = Regular;
paths = (
{
closed = 1;
nodes = (
"57 -4 OFFCURVE",
"69 -2 OFFCURVE",
"82 2 CURVE",
"92 32 OFFCURVE",
"108 78 OFFCURVE",
"127 129 CURVE",
"149 133 OFFCURVE",
"182 134 OFFCURVE",
"227 134 CURVE SMOOTH",
"265 134 OFFCURVE",
"309 133 OFFCURVE",
"344 130 CURVE",
"363 78 OFFCURVE",
"379 32 OFFCURVE",
"389 2 CURVE",
"423 3 OFFCURVE",
"478 4 OFFCURVE",
"536 4 CURVE SMOOTH",
"578 4 OFFCURVE",
"622 1 OFFCURVE",
"650 -3 CURVE",
"663 14 OFFCURVE",
"671 68 OFFCURVE",
"671 103 CURVE",
"616 80 OFFCURVE",
"573 78 OFFCURVE",
"471 78 CURVE",
"453 121 OFFCURVE",
"431 176 OFFCURVE",
"409 233 CURVE",
"479 233 OFFCURVE",
"520 232 OFFCURVE",
"590 226 CURVE",
"593 241 OFFCURVE",
"594 254 OFFCURVE",
"594 266 CURVE SMOOTH",
"594 279 OFFCURVE",
"593 292 OFFCURVE",
"590 305 CURVE",
"553 298 OFFCURVE",
"528 294 OFFCURVE",
"458 294 CURVE SMOOTH",
"435 294 OFFCURVE",
"409 295 OFFCURVE",
"385 296 CURVE",
"332 439 LINE",
"365 444 OFFCURVE",
"409 448 OFFCURVE",
"448 448 CURVE SMOOTH",
"499 448 OFFCURVE",
"556 439 OFFCURVE",
"590 421 CURVE",
"603 438 OFFCURVE",
"611 492 OFFCURVE",
"611 527 CURVE",
"558 522 OFFCURVE",
"480 520 OFFCURVE",
"403 520 CURVE SMOOTH",
"328 520 OFFCURVE",
"254 522 OFFCURVE",
"209 527 CURVE",
"170 409 OFFCURVE",
"46 75 OFFCURVE",
"5 2 CURVE",
"19 -2 OFFCURVE",
"33 -4 OFFCURVE",
"47 -4 CURVE SMOOTH"
);
},
{
closed = 1;
nodes = (
"227 192 OFFCURVE",
"186 194 OFFCURVE",
"152 196 CURVE",
"181 275 OFFCURVE",
"212 357 OFFCURVE",
"236 412 CURVE",
"257 363 OFFCURVE",
"290 277 OFFCURVE",
"321 194 CURVE",
"305 193 OFFCURVE",
"284 192 OFFCURVE",
"263 192 CURVE SMOOTH"
);
}
);
width = 691;
},
{
anchors = (
{
name = bottom;
position = "{360, 0}";
},
{
name = top;
position = "{360, 527}";
}
);
layerId = "0E844BAD-773F-41FF-B6D6-C35F1E5E991C";
name = Bold;
paths = (
{
closed = 1;
nodes = (
"68 -4 OFFCURVE",
"83 -2 OFFCURVE",
"100 2 CURVE",
"109 30 OFFCURVE",
"124 72 OFFCURVE",
"142 120 CURVE",
"163 123 OFFCURVE",
"195 124 OFFCURVE",
"235 124 CURVE SMOOTH",
"272 124 OFFCURVE",
"314 123 OFFCURVE",
"350 121 CURVE",
"368 73 OFFCURVE",
"383 30 OFFCURVE",
"392 2 CURVE",
"423 4 OFFCURVE",
"475 5 OFFCURVE",
"527 5 CURVE SMOOTH",
"584 5 OFFCURVE",
"644 3 OFFCURVE",
"683 -3 CURVE",
"696 19 OFFCURVE",
"704 88 OFFCURVE",
"704 133 CURVE",
"654 116 OFFCURVE",
"593 107 OFFCURVE",
"501 107 CURVE",
"487 141 OFFCURVE",
"471 181 OFFCURVE",
"455 223 CURVE",
"510 223 OFFCURVE",
"558 221 OFFCURVE",
"619 216 CURVE",
"621 233 OFFCURVE",
"623 251 OFFCURVE",
"623 266 CURVE SMOOTH",
"623 282 OFFCURVE",
"621 299 OFFCURVE",
"619 315 CURVE",
"579 308 OFFCURVE",
"552 304 OFFCURVE",
"477 304 CURVE SMOOTH",
"460 304 OFFCURVE",
"442 304 OFFCURVE",
"424 305 CURVE",
"385 412 LINE",
"410 415 OFFCURVE",
"440 418 OFFCURVE",
"467 418 CURVE SMOOTH",
"521 418 OFFCURVE",
"582 409 OFFCURVE",
"619 391 CURVE",
"632 411 OFFCURVE",
"640 482 OFFCURVE",
"640 527 CURVE",
"585 522 OFFCURVE",
"502 520 OFFCURVE",
"422 520 CURVE SMOOTH",
"339 520 OFFCURVE",
"257 522 OFFCURVE",
"208 527 CURVE",
"169 409 OFFCURVE",
"44 75 OFFCURVE",
"3 2 CURVE",
"20 -2 OFFCURVE",
"38 -4 OFFCURVE",
"55 -4 CURVE SMOOTH"
);
},
{
closed = 1;
nodes = (
"241 203 OFFCURVE",
"205 204 OFFCURVE",
"173 206 CURVE",
"198 273 OFFCURVE",
"225 343 OFFCURVE",
"246 395 CURVE",
"267 346 OFFCURVE",
"293 276 OFFCURVE",
"319 205 CURVE",
"304 204 OFFCURVE",
"288 203 OFFCURVE",
"273 203 CURVE SMOOTH"
);
}
);
width = 709;
}
);
leftKerningGroup = A;
leftMetricsKey = A;
rightKerningGroup = E;
rightMetricsKey = "=E-20";
unicode = 00C6;
},
{
color = 4;
glyphname = B;
lastChange = "2015-12-28 19:12:02 +0000";
layers = (
{
hints = (
{
horizontal = 1;
origin = "{0, 23}";
target = "{1, 14}";
},
{
horizontal = 1;
origin = "{1, 8}";
target = "{2, 11}";
},
{
horizontal = 1;
origin = "{0, 11}";
target = "{2, 5}";
},
{
place = "{76.000000, 93.000000}";
},
{
origin = "{1, 11}";
target = "{0, 2}";
},
{
origin = "{2, 8}";
target = "{0, 8}";
}
);
layerId = "51F41761-070F-43EA-B302-C90910850260";
name = Regular;
paths = (
{
closed = 1;
nodes = (
"404 -12 OFFCURVE",
"483 44 OFFCURVE",
"483 144 CURVE SMOOTH",
"483 204 OFFCURVE",
"442 252 OFFCURVE",
"375 276 CURVE",
"426 301 OFFCURVE",
"458 342 OFFCURVE",
"458 391 CURVE SMOOTH",
"458 482 OFFCURVE",
"387 532 OFFCURVE",
"259 532 CURVE SMOOTH",
"187 532 OFFCURVE",
"108 521 OFFCURVE",
"60 505 CURVE",
"71 480 OFFCURVE",
"76 419 OFFCURVE",
"76 310 CURVE SMOOTH",
"76 202 OFFCURVE",
"72 73 OFFCURVE",
"67 15 CURVE",
"114 -1 OFFCURVE",
"192 -12 OFFCURVE",
"263 -12 CURVE SMOOTH"
);
},
{
closed = 1;
nodes = (
"225 36 OFFCURVE",
"198 40 OFFCURVE",
"174 49 CURVE",
"170 88 OFFCURVE",
"168 145 OFFCURVE",
"168 223 CURVE",
"219 239 OFFCURVE",
"271 250 OFFCURVE",
"300 250 CURVE",
"352 230 OFFCURVE",
"381 192 OFFCURVE",
"381 144 CURVE SMOOTH",
"381 72 OFFCURVE",
"338 36 OFFCURVE",
"252 36 CURVE SMOOTH"
);
},
{
closed = 1;
nodes = (
"170 341 OFFCURVE",
"172 403 OFFCURVE",
"175 454 CURVE",
"198 461 OFFCURVE",
"222 464 OFFCURVE",
"248 464 CURVE SMOOTH",
"320 464 OFFCURVE",
"356 436 OFFCURVE",
"356 380 CURVE SMOOTH",
"356 347 OFFCURVE",
"335 317 OFFCURVE",
"298 292 CURVE",
"257 296 OFFCURVE",
"206 293 OFFCURVE",
"169 284 CURVE"
);
}
);
width = 522;
},
{
layerId = "0E844BAD-773F-41FF-B6D6-C35F1E5E991C";
name = Bold;
paths = (
{
closed = 1;
nodes = (
"424 -12 OFFCURVE",
"508 44 OFFCURVE",
"508 144 CURVE SMOOTH",
"508 205 OFFCURVE",
"468 254 OFFCURVE",
"403 281 CURVE",
"453 306 OFFCURVE",
"483 345 OFFCURVE",
"483 391 CURVE SMOOTH",
"483 482 OFFCURVE",
"407 532 OFFCURVE",
"269 532 CURVE SMOOTH",
"188 532 OFFCURVE",
"99 521 OFFCURVE",
"45 505 CURVE",
"56 479 OFFCURVE",
"61 415 OFFCURVE",
"61 300 CURVE SMOOTH",
"61 196 OFFCURVE",
"57 71 OFFCURVE",
"52 15 CURVE",
"105 -1 OFFCURVE",
"193 -12 OFFCURVE",
"273 -12 CURVE SMOOTH"
);
},
{
closed = 1;
nodes = (
"240 56 OFFCURVE",
"218 60 OFFCURVE",
"197 67 CURVE",
"195 104 OFFCURVE",
"193 153 OFFCURVE",
"193 216 CURVE",
"230 231 OFFCURVE",
"264 240 OFFCURVE",
"285 240 CURVE",
"337 220 OFFCURVE",
"366 187 OFFCURVE",
"366 144 CURVE SMOOTH",
"366 85 OFFCURVE",
"331 56 OFFCURVE",
"262 56 CURVE SMOOTH"
);
},
{
closed = 1;
nodes = (
"195 342 OFFCURVE",
"197 392 OFFCURVE",
"199 435 CURVE",
"218 441 OFFCURVE",
"237 444 OFFCURVE",
"258 444 CURVE SMOOTH",
"313 444 OFFCURVE",
"341 423 OFFCURVE",
"341 380 CURVE SMOOTH",
"341 353 OFFCURVE",
"324 322 OFFCURVE",
"293 304 CURVE",
"250 304 OFFCURVE",
"223 302 OFFCURVE",
"194 295 CURVE"
);
}
);
width = 537;
}
);
leftKerningGroup = H;
leftMetricsKey = H;
rightKerningGroup = B;
rightMetricsKey = "=H*.65";
unicode = 0042;
},
{
color = 4;
glyphname = C;
lastChange = "2015-12-28 19:12:02 +0000";
layers = (
{
anchors = (
{
name = bottom;
position = "{245, 0}";
},
{
name = top;
position = "{265, 527}";
}
);
hints = (
{
horizontal = 1;
origin = "{0, 27}";
target = "{0, 6}";
},
{
horizontal = 1;
origin = "{0, 12}";
target = "{0, 21}";
},
{
origin = "{0, 24}";
target = "{0, 9}";
}
);
layerId = "51F41761-070F-43EA-B302-C90910850260";
name = Regular;
paths = (
{
closed = 1;
nodes = (
"346.021 -11 OFFCURVE",
"426.212 24.685 OFFCURVE",
"470 78 CURVE",
"462 109 LINE",
"421 85 OFFCURVE",
"363 72 OFFCURVE",
"301 72 CURVE SMOOTH",
"209 72 OFFCURVE",
"142 130 OFFCURVE",
"142 269 CURVE SMOOTH",
"142 366 OFFCURVE",
"197 462 OFFCURVE",
"263 479 CURVE",
"299 479 OFFCURVE",
"371 448 OFFCURVE",
"426 408 CURVE",
"442 431 OFFCURVE",
"456 478 OFFCURVE",
"456 509 CURVE",
"416 525 OFFCURVE",
"366 533 OFFCURVE",
"310 533 CURVE SMOOTH",
"151 533 OFFCURVE",
"40 413 OFFCURVE",
"40 241 CURVE SMOOTH",
"40 79.123 OFFCURVE",
"122.255 -11 OFFCURVE",
"270 -11 CURVE SMOOTH"
);
}
);
width = 490;
},
{
anchors = (
{
name = bottom;
position = "{258, 0}";
},
{
name = top;
position = "{278, 527}";
}
);
layerId = "0E844BAD-773F-41FF-B6D6-C35F1E5E991C";
name = Bold;
paths = (
{
closed = 1;
nodes = (
"352 -11 OFFCURVE",
"438 25 OFFCURVE",
"485 78 CURVE",
"467 147 LINE",
"431 120 OFFCURVE",
"367 102 OFFCURVE",
"311 102 CURVE SMOOTH",
"218 102 OFFCURVE",
"172 157 OFFCURVE",
"172 269 CURVE SMOOTH",
"172 351 OFFCURVE",
"217 431 OFFCURVE",
"273 449 CURVE",
"307 449 OFFCURVE",
"371 414 OFFCURVE",
"421 368 CURVE",
"445 389 OFFCURVE",
"471 462 OFFCURVE",
"471 509 CURVE",
"434 525 OFFCURVE",
"382 533 OFFCURVE",
"320 533 CURVE SMOOTH",
"149 533 OFFCURVE",
"30 413 OFFCURVE",
"30 241 CURVE SMOOTH",
"30 79 OFFCURVE",
"115 -11 OFFCURVE",
"270 -11 CURVE SMOOTH"
);
}
);
width = 500;
},
{
anchors = (
{
name = bottom;
position = "{209, 0}";
},
{
name = top;
position = "{236, 407}";
}
);
associatedMasterId = "51F41761-070F-43EA-B302-C90910850260";
hints = (
{
horizontal = 1;
origin = "{0, 8}";
target = "{0, 15}";
},
{
horizontal = 1;
origin = "{0, 24}";
target = "{0, 21}";
},
{
origin = "{0, 5}";
target = "{0, 18}";
}
);
layerId = "E54CE60E-3EC3-4512-BE0E-7F5097D567EC";
name = "Regular Nov 21 15, 18:18";
paths = (
{
closed = 1;
nodes = (
"322 409 OFFCURVE",
"276 418 OFFCURVE",
"246 418 CURVE SMOOTH",
"122 418 OFFCURVE",
"36 325 OFFCURVE",
"36 191 CURVE SMOOTH",
"36 69 OFFCURVE",
"114 -11 OFFCURVE",
"232 -11 CURVE SMOOTH",
"287 -11 OFFCURVE",
"333 4 OFFCURVE",
"368 32 CURVE",
"354 65 LINE",
"330 54 OFFCURVE",
"293 48 OFFCURVE",
"259 48 CURVE SMOOTH",
"179 48 OFFCURVE",
"133 103 OFFCURVE",
"133 198 CURVE SMOOTH",
"133 276 OFFCURVE",
"164 350 OFFCURVE",
"208 376 CURVE",
"240 376 OFFCURVE",
"291 354 OFFCURVE",
"344 313 CURVE",
"353 336 OFFCURVE",
"362 374 OFFCURVE",
"362 394 CURVE"
);
}
);
width = 392;
}
);
leftKerningGroup = O;
leftMetricsKey = O;
rightKerningGroup = C;
unicode = 0043;
},
{
color = 4;
glyphname = D;
lastChange = "2015-12-28 19:12:02 +0000";
layers = (
{
anchors = (
{
name = bottom;
position = "{288, 0}";
},
{
name = center;
position = "{178, 264}";
},
{
name = top;
position = "{288, 527}";
}
);
hints = (
{
horizontal = 1;
origin = "{0, 17}";
target = "{1, 17}";
},
{
horizontal = 1;
origin = "{0, 5}";
target = "{1, 11}";
},
{
origin = "{0, 11}";
target = "{1, 5}";
},
{
origin = "{1, 14}";
target = "{0, 2}";
}
);
layerId = "51F41761-070F-43EA-B302-C90910850260";
name = Regular;
paths = (
{
closed = 1;
nodes = (
"414 -6 OFFCURVE",
"535 105 OFFCURVE",
"535 266 CURVE SMOOTH",
"535 437 OFFCURVE",
"436 532 OFFCURVE",
"258 532 CURVE SMOOTH",
"183 532 OFFCURVE",
"103 521 OFFCURVE",
"60 505 CURVE",
"71 478 OFFCURVE",
"76 408 OFFCURVE",
"76 300 CURVE SMOOTH",
"76 199 OFFCURVE",
"71 73 OFFCURVE",
"65 10 CURVE",
"112 0 OFFCURVE",
"180 -6 OFFCURVE",
"238 -6 CURVE SMOOTH"
);
},
{
closed = 1;
nodes = (
"259 48 OFFCURVE",
"217 56 OFFCURVE",
"173 68 CURVE",
"170 107 OFFCURVE",
"168 160 OFFCURVE",
"168 227 CURVE SMOOTH",
"168 302 OFFCURVE",
"171 391 OFFCURVE",
"175 455 CURVE",
"195 461 OFFCURVE",
"216 464 OFFCURVE",
"237 464 CURVE SMOOTH",
"361 464 OFFCURVE",
"433 400 OFFCURVE",
"433 248 CURVE SMOOTH",
"433 155 OFFCURVE",
"367 61 OFFCURVE",
"285 48 CURVE"
);
}
);
width = 575;
},
{
anchors = (
{
name = bottom;
position = "{295, 0}";
},
{
name = center;
position = "{172, 264}";
},
{
name = top;
position = "{295, 527}";
}
);
layerId = "0E844BAD-773F-41FF-B6D6-C35F1E5E991C";
name = Bold;
paths = (
{
closed = 1;
nodes = (
"433 -6 OFFCURVE",
"560 105 OFFCURVE",
"560 266 CURVE SMOOTH",
"560 437 OFFCURVE",
"456 532 OFFCURVE",
"268 532 CURVE SMOOTH",
"183 532 OFFCURVE",
"94 521 OFFCURVE",
"45 505 CURVE",
"56 478 OFFCURVE",
"61 408 OFFCURVE",
"61 300 CURVE SMOOTH",
"61 199 OFFCURVE",
"56 73 OFFCURVE",
"50 10 CURVE",
"104 0 OFFCURVE",
"182 -6 OFFCURVE",
"248 -6 CURVE SMOOTH"
);
},
{
closed = 1;
nodes = (
"271 68 OFFCURVE",
"235 75 OFFCURVE",
"196 87 CURVE",
"194 124 OFFCURVE",
"193 171 OFFCURVE",
"193 227 CURVE SMOOTH",
"193 295 OFFCURVE",
"195 375 OFFCURVE",
"199 437 CURVE",
"214 442 OFFCURVE",
"230 444 OFFCURVE",
"247 444 CURVE SMOOTH",
"355 444 OFFCURVE",
"418 386 OFFCURVE",
"418 248 CURVE SMOOTH",
"418 165 OFFCURVE",
"363 81 OFFCURVE",
"295 68 CURVE"
);
}
);
width = 590;
}
);
leftKerningGroup = H;
leftMetricsKey = H;
rightKerningGroup = O;
rightMetricsKey = O;
unicode = 0044;
},
{
color = 4;
glyphname = E;
lastChange = "2015-12-28 19:12:02 +0000";
layers = (
{
anchors = (
{
name = bottom;
position = "{238, 0}";
},
{
name = ogonek;
position = "{414, 17}";
},
{
name = top;
position = "{248, 527}";
},
{
name = topleft;
position = "{20, 527}";
}
);
hints = (
{
horizontal = 1;
origin = "{0, 56}";
},
{
horizontal = 1;
origin = "{0, 17}";
target = "{0, 29}";
},
{
horizontal = 1;
origin = "{0, 50}";
target = "{0, 38}";
},
{
place = "{76.000000, 93.000000}";
}
);
layerId = "51F41761-070F-43EA-B302-C90910850260";
name = Regular;
paths = (
{
closed = 1;
nodes = (
"104 2 OFFCURVE",
"149 4 OFFCURVE",
"228 4 CURVE SMOOTH",
"297 4 OFFCURVE",
"367 2 OFFCURVE",
"414 -3 CURVE",
"427 14 OFFCURVE",
"435 68 OFFCURVE",
"435 103 CURVE",
"396 86 OFFCURVE",
"331 76 OFFCURVE",
"273 76 CURVE SMOOTH",
"238 76 OFFCURVE",
"200 80 OFFCURVE",
"172 85 CURVE",
"169 118 OFFCURVE",
"168 163 OFFCURVE",
"168 232 CURVE",
"225 235 OFFCURVE",
"314 230 OFFCURVE",
"379 226 CURVE",
"381 239 OFFCURVE",
"383 254 OFFCURVE",
"383 266 CURVE SMOOTH",
"383 279 OFFCURVE",
"381 294 OFFCURVE",
"379 305 CURVE",
"342 298 OFFCURVE",
"317 294 OFFCURVE",
"247 294 CURVE SMOOTH",
"222 294 OFFCURVE",
"194 295 OFFCURVE",
"169 296 CURVE",
"170 346 OFFCURVE",
"172 397 OFFCURVE",
"174 440 CURVE",
"201 445 OFFCURVE",
"236 448 OFFCURVE",
"268 448 CURVE SMOOTH",
"319 448 OFFCURVE",
"376 439 OFFCURVE",
"410 421 CURVE",
"423 438 OFFCURVE",
"431 492 OFFCURVE",
"431 527 CURVE",
"378 522 OFFCURVE",
"300 520 OFFCURVE",
"223 520 CURVE SMOOTH",
"160 520 OFFCURVE",
"98 522 OFFCURVE",
"60 527 CURVE",
"72 482 OFFCURVE",
"76 418 OFFCURVE",
"76 300 CURVE SMOOTH",
"76 177 OFFCURVE",
"74 121 OFFCURVE",
"65 -3 CURVE"
);
}
);
width = 475;
},
{
anchors = (
{
name = bottom;
position = "{235, 0}";
},
{
name = ogonek;
position = "{424, 17}";
},
{
name = top;
position = "{255, 527}";
},
{
name = topleft;
position = "{20, 527}";
}
);
layerId = "0E844BAD-773F-41FF-B6D6-C35F1E5E991C";
name = Bold;
paths = (
{
closed = 1;
nodes = (
"91 2 OFFCURVE",
"159 4 OFFCURVE",
"228 4 CURVE SMOOTH",
"300 4 OFFCURVE",
"374 2 OFFCURVE",
"424 -3 CURVE",
"437 19 OFFCURVE",
"445 88 OFFCURVE",
"445 133 CURVE",
"403 116 OFFCURVE",
"334 106 OFFCURVE",
"273 106 CURVE SMOOTH",
"247 106 OFFCURVE",
"220 108 OFFCURVE",
"196 112 CURVE",
"194 145 OFFCURVE",
"193 184 OFFCURVE",
"193 223 CURVE",
"250 223 OFFCURVE",
"294 221 OFFCURVE",
"389 216 CURVE",
"391 233 OFFCURVE",
"393 251 OFFCURVE",
"393 266 CURVE SMOOTH",
"393 282 OFFCURVE",
"391 299 OFFCURVE",
"389 315 CURVE",
"349 308 OFFCURVE",
"322 304 OFFCURVE",
"247 304 CURVE SMOOTH",
"230 304 OFFCURVE",
"212 304 OFFCURVE",
"194 305 CURVE",
"194 341 OFFCURVE",
"196 379 OFFCURVE",
"198 413 CURVE",
"220 416 OFFCURVE",
"245 418 OFFCURVE",
"268 418 CURVE SMOOTH",
"322 418 OFFCURVE",
"383 409 OFFCURVE",
"420 391 CURVE",
"433 411 OFFCURVE",
"441 482 OFFCURVE",
"441 527 CURVE",
"386 522 OFFCURVE",
"303 520 OFFCURVE",
"223 520 CURVE SMOOTH",
"154 520 OFFCURVE",
"86 522 OFFCURVE",
"45 527 CURVE",
"58 476 OFFCURVE",
"61 428 OFFCURVE",
"61 300 CURVE SMOOTH",
"61 195 OFFCURVE",
"56 63 OFFCURVE",
"50 -3 CURVE"
);
}
);
width = 470;
}
);
leftKerningGroup = H;
leftMetricsKey = H;
rightKerningGroup = E;
rightMetricsKey = "=H-20";
unicode = 0045;
},
{
color = 4;
glyphname = F;
lastChange = "2015-12-28 19:12:02 +0000";
layers = (
{
layerId = "0E844BAD-773F-41FF-B6D6-C35F1E5E991C";
name = Bold;
paths = (
{
closed = 1;
nodes = (
"160 -6 OFFCURVE",
"185 -4 OFFCURVE",
"209 0 CURVE",
"198 29 OFFCURVE",
"193 100 OFFCURVE",
"193 223 CURVE",
"248 223 OFFCURVE",
"284 222 OFFCURVE",
"369 216 CURVE",
"372 238 OFFCURVE",
"373 254 OFFCURVE",
"373 266 CURVE SMOOTH",
"373 279 OFFCURVE",
"372 293 OFFCURVE",
"369 315 CURVE",
"324 306 OFFCURVE",
"298 304 OFFCURVE",
"237 304 CURVE SMOOTH",
"222 304 OFFCURVE",
"204 304 OFFCURVE",
"190 305 CURVE",
"190 342 OFFCURVE",
"191 397 OFFCURVE",
"192 413 CURVE",
"216 416 OFFCURVE",
"243 418 OFFCURVE",
"268 418 CURVE SMOOTH",
"321 418 OFFCURVE",
"372 408 OFFCURVE",
"400 391 CURVE",
"411 408 OFFCURVE",
"421 474 OFFCURVE",
"421 527 CURVE",
"379 522 OFFCURVE",
"312 520 OFFCURVE",
"223 520 CURVE SMOOTH",
"149 520 OFFCURVE",
"94 522 OFFCURVE",
"45 527 CURVE",
"58 470 OFFCURVE",
"61 419 OFFCURVE",
"61 280 CURVE SMOOTH",
"61 189 OFFCURVE",
"56 65 OFFCURVE",
"50 0 CURVE",
"82 -4 OFFCURVE",
"111 -6 OFFCURVE",
"136 -6 CURVE SMOOTH"
);
}
);
width = 436;
},
{
anchors = (
{
name = center;
position = "{317, 298}";
},
{
name = top;
position = "{317, 596}";
}
);
associatedMasterId = "51F41761-070F-43EA-B302-C90910850260";
background = {
paths = (
{
closed = 1;
nodes = (
"363 522 OFFCURVE",
"292 520 OFFCURVE",
"223 520 CURVE SMOOTH",
"160 520 OFFCURVE",
"98 522 OFFCURVE",
"60 527 CURVE",
"71 489 LINE",
"151 435 LINE",
"178 442 OFFCURVE",
"226 448 OFFCURVE",
"268 448 CURVE SMOOTH",
"312 448 OFFCURVE",
"360 439 OFFCURVE",
"390 421 CURVE",
"403 438 OFFCURVE",
"411 492 OFFCURVE",
"411 527 CURVE"
);
}
);
};
hints = (
{
horizontal = 1;
place = "{-3.000000, 23.128000}";
},
{
horizontal = 1;
origin = "{0, 8}";
target = "{0, 20}";
},
{
horizontal = 1;
origin = "{2, 14}";
target = "{2, 2}";
},
{
place = "{76.000000, 9271.000000}";
}
);
layerId = "4FDA9243-696E-4930-A0DF-8250ADEF6123";
name = "Regular Nov 28 15, 11:07";
paths = (
{
closed = 1;
nodes = (
"104.661 286.167 OFFCURVE",
"103.328 272.833 OFFCURVE",
"103.328 260.833 CURVE SMOOTH",
"103.328 248.167 OFFCURVE",
"104.661 234.833 OFFCURVE",
"107.328 222.167 CURVE",
"119.398 229.278 OFFCURVE",
"150.379 232.833 OFFCURVE",
"198.661 232.833 CURVE SMOOTH",
"254.161 232.833 OFFCURVE",
"300.328 229.625 OFFCURVE",
"358.661 225.5 CURVE",
"361.328 240.833 OFFCURVE",
"362.661 254.167 OFFCURVE",
"362.661 266.167 CURVE SMOOTH",
"362.661 278.833 OFFCURVE",
"361.328 292.167 OFFCURVE",
"358.661 304.833 CURVE",
"324.642 297.722 OFFCURVE",
"301.469 294.167 OFFCURVE",
"237.328 294.167 CURVE SMOOTH",
"192.235 294.167 OFFCURVE",
"135.766 297.375 OFFCURVE",
"107.328 301.5 CURVE"
);
},
{
closed = 1;
nodes = (
"60 527 LINE",
"70.667 497 OFFCURVE",
"76 420 OFFCURVE",
"76 300 CURVE SMOOTH",
"76 195.938 OFFCURVE",
"71.188 65.625 OFFCURVE",
"65 0 CURVE",
"88 -4 OFFCURVE",
"108 -6 OFFCURVE",
"126 -6 CURVE SMOOTH",
"145 -6 OFFCURVE",
"165 -4 OFFCURVE",
"184 0 CURVE",
"173.333 30 OFFCURVE",
"168 107 OFFCURVE",
"168 227 CURVE SMOOTH",
"168 324.125 OFFCURVE",
"172.812 445.75 OFFCURVE",
"179 507 CURVE"
);
},
{
closed = 1;
nodes = (
"131 438 OFFCURVE",
"212 442 OFFCURVE",
"277 442 CURVE SMOOTH",
"346 442 OFFCURVE",
"388 438 OFFCURVE",
"406 429 CURVE",
"409 444 OFFCURVE",
"411 460 OFFCURVE",
"411 475 CURVE SMOOTH",
"411 489 OFFCURVE",
"409 505 OFFCURVE",
"406 523 CURVE",
"369 518 OFFCURVE",
"298 514 OFFCURVE",
"240 514 CURVE SMOOTH",
"144 514 OFFCURVE",
"84 519 OFFCURVE",
"60 527 CURVE",
"75 512 OFFCURVE",
"85 496 OFFCURVE",
"85 481 CURVE SMOOTH",
"85 467 OFFCURVE",
"87 451 OFFCURVE",
"90 433 CURVE"
);
}
);
width = 431.15;
},
{
hints = (
{
horizontal = 1;
origin = "{0, 44}";
target = down;
type = TopGhost;
},
{
horizontal = 1;
origin = "{0, 38}";
target = "{0, 26}";
},
{
place = "{76.000000, 93.000000}";
},
{
horizontal = 1;
origin = "{0, 5}";
target = "{0, 17}";
}
);
layerId = "51F41761-070F-43EA-B302-C90910850260";
name = Regular;
paths = (
{
closed = 1;
nodes = (
"145 -6 OFFCURVE",
"165 -4 OFFCURVE",
"184 0 CURVE",
"173 29 OFFCURVE",
"168 106 OFFCURVE",
"168 232 CURVE",
"221 235 OFFCURVE",
"300 230 OFFCURVE",
"359 226 CURVE",
"361 239 OFFCURVE",
"363 254 OFFCURVE",
"363 266 CURVE SMOOTH",
"363 279 OFFCURVE",
"361 293 OFFCURVE",
"359 305 CURVE",
"325 298 OFFCURVE",
"301 294 OFFCURVE",
"237 294 CURVE SMOOTH",
"216 294 OFFCURVE",
"191 295 OFFCURVE",
"169 296 CURVE",
"170 346 OFFCURVE",
"172 397 OFFCURVE",
"174 440 CURVE",
"201 445 OFFCURVE",
"236 448 OFFCURVE",
"268 448 CURVE SMOOTH",
"312 448 OFFCURVE",
"360 439 OFFCURVE",
"390 421 CURVE",
"403 438 OFFCURVE",
"411 492 OFFCURVE",
"411 527 CURVE",
"363 522 OFFCURVE",
"292 520 OFFCURVE",
"223 520 CURVE SMOOTH",
"160 520 OFFCURVE",
"98 522 OFFCURVE",
"60 527 CURVE",
"72 477 OFFCURVE",
"76 403 OFFCURVE",
"76 270 CURVE SMOOTH",
"76 176 OFFCURVE",
"71 59 OFFCURVE",
"65 0 CURVE",
"88 -4 OFFCURVE",
"108 -6 OFFCURVE",
"126 -6 CURVE SMOOTH"
);
}
);
width = 431;
}
);
leftKerningGroup = H;
leftMetricsKey = H;
rightKerningGroup = F;
rightMetricsKey = "=H/3";
unicode = 0046;
},
{
color = 4;
glyphname = G;
lastChange = "2015-12-28 19:12:02 +0000";
layers = (
{
anchors = (
{
name = bottom;
position = "{266, 0}";
},
{
name = top;
position = "{286, 527}";
}
);
background = {
paths = (
{
closed = 1;
nodes = (
"470 171.196 OFFCURVE",
"475.053 232.192 OFFCURVE",
"482.127 259.461 CURVE",
"440.692 259.461 OFFCURVE",
"405.32 256.59 OFFCURVE",
"363.884 245.109 CURVE",
"377.023 230.039 OFFCURVE",
"383.086 191.288 OFFCURVE",
"383.086 155.408 CURVE SMOOTH",
"383.086 109.482 OFFCURVE",
"379.044 63.555 OFFCURVE",
"379.044 12.605 CURVE SMOOTH",
"379.044 -32.604 OFFCURVE",
"395.214 -46.238 OFFCURVE",
"436.649 -46.238 CURVE SMOOTH",
"454.841 -46.238 OFFCURVE",
"485.159 -39.78 OFFCURVE",
"509.414 -20.405 CURVE",
"478.085 3.994 OFFCURVE",
"470 20.499 OFFCURVE",
"470 98 CURVE SMOOTH"
);
}
);
};
hints = (
{
horizontal = 1;
origin = "{0, 38}";
target = "{0, 17}";
},
{
horizontal = 1;
origin = "{0, 32}";
target = "{0, 23}";
},
{
origin = "{0, 35}";
target = "{0, 20}";
},
{
origin = "{0, 14}";
target = "{0, 2}";
}
);
layerId = "51F41761-070F-43EA-B302-C90910850260";
name = Regular;
paths = (
{
closed = 1;
nodes = (
"346 -11 OFFCURVE",
"426 17 OFFCURVE",
"470 58 CURVE",
"471 137 OFFCURVE",
"475 219 OFFCURVE",
"480 265 CURVE",
"457 269 OFFCURVE",
"437 271 OFFCURVE",
"419 271 CURVE SMOOTH",
"402 271 OFFCURVE",
"383 269 OFFCURVE",
"366 265 CURVE",
"377 239 OFFCURVE",
"382 174 OFFCURVE",
"382 71 CURVE",
"360 65 OFFCURVE",
"336 62 OFFCURVE",
"311 62 CURVE SMOOTH",
"191 62 OFFCURVE",
"142 123 OFFCURVE",
"142 269 CURVE SMOOTH",
"142 366 OFFCURVE",
"197 462 OFFCURVE",
"263 479 CURVE",
"302 479 OFFCURVE",
"377 448 OFFCURVE",
"436 408 CURVE",
"452 431 OFFCURVE",
"466 478 OFFCURVE",
"466 509 CURVE",
"424 525 OFFCURVE",
"370 533 OFFCURVE",
"310 533 CURVE SMOOTH",
"151 533 OFFCURVE",
"40 413 OFFCURVE",
"40 241 CURVE SMOOTH",
"40 79 OFFCURVE",
"122 -11 OFFCURVE",
"270 -11 CURVE SMOOTH"
);
}
);
width = 531;
},
{
anchors = (
{
name = bottom;
position = "{267, 0}";
},
{
name = top;
position = "{287, 527}";
}
);
layerId = "0E844BAD-773F-41FF-B6D6-C35F1E5E991C";
name = Bold;
paths = (
{
closed = 1;
nodes = (
"351 -11 OFFCURVE",
"438 17 OFFCURVE",
"485 58 CURVE",
"486 123 OFFCURVE",
"490 195 OFFCURVE",
"495 245 CURVE",
"462 249 OFFCURVE",
"437 251 OFFCURVE",
"414 251 CURVE SMOOTH",
"389 251 OFFCURVE",
"362 249 OFFCURVE",
"341 245 CURVE",
"351 222 OFFCURVE",
"356 174 OFFCURVE",
"357 96 CURVE",
"342 93 OFFCURVE",
"326 92 OFFCURVE",
"311 92 CURVE SMOOTH",
"218 92 OFFCURVE",
"172 150 OFFCURVE",
"172 269 CURVE SMOOTH",
"172 351 OFFCURVE",
"217 431 OFFCURVE",
"273 449 CURVE",
"310 449 OFFCURVE",
"380 413 OFFCURVE",
"431 368 CURVE",
"455 389 OFFCURVE",
"481 462 OFFCURVE",
"481 509 CURVE",
"444 525 OFFCURVE",
"388 533 OFFCURVE",
"320 533 CURVE SMOOTH",
"149 533 OFFCURVE",
"30 413 OFFCURVE",
"30 241 CURVE SMOOTH",
"30 79 OFFCURVE",
"115 -11 OFFCURVE",
"270 -11 CURVE SMOOTH"
);
}
);
width = 533;
},
{
anchors = (
{
name = bottom;
position = "{209, 0}";
},
{
name = top;
position = "{236, 407}";
}
);
associatedMasterId = "51F41761-070F-43EA-B302-C90910850260";
hints = (
{
horizontal = 1;
origin = "{0, 8}";
target = "{0, 15}";
},
{
horizontal = 1;
origin = "{0, 24}";
target = "{0, 21}";
},
{
origin = "{0, 5}";
target = "{0, 18}";
}
);
layerId = "E54CE60E-3EC3-4512-BE0E-7F5097D567EC";
name = "Regular Nov 21 15, 18:18";
paths = (
{
closed = 1;
nodes = (
"322 409 OFFCURVE",
"276 418 OFFCURVE",
"246 418 CURVE SMOOTH",
"122 418 OFFCURVE",
"36 325 OFFCURVE",
"36 191 CURVE SMOOTH",
"36 69 OFFCURVE",
"114 -11 OFFCURVE",
"232 -11 CURVE SMOOTH",
"287 -11 OFFCURVE",
"333 4 OFFCURVE",
"368 32 CURVE",
"354 65 LINE",
"330 54 OFFCURVE",
"293 48 OFFCURVE",
"259 48 CURVE SMOOTH",
"179 48 OFFCURVE",
"133 103 OFFCURVE",
"133 198 CURVE SMOOTH",
"133 276 OFFCURVE",
"164 350 OFFCURVE",
"208 376 CURVE",
"240 376 OFFCURVE",
"291 354 OFFCURVE",
"344 313 CURVE",
"353 336 OFFCURVE",
"362 374 OFFCURVE",
"362 394 CURVE"
);
}
);
width = 392;
}
);
leftKerningGroup = O;
leftMetricsKey = O;
rightKerningGroup = G;
rightMetricsKey = "=H*.85";
unicode = 0047;
},
{
color = 4;
glyphname = H;
lastChange = "2015-12-28 19:12:02 +0000";
layers = (
{
anchors = (
{
name = bottom;
position = "{277, 0}";
},
{
name = center;
position = "{277, 414}";
},
{
name = top;
position = "{277, 527}";
},
{
name = topleft;
position = "{20, 527}";
}
);
hints = (
{
origin = "{0, 53}";
target = "{0, 5}";
},
{
origin = "{0, 35}";
target = "{0, 23}";
},
{
horizontal = 1;
origin = "{0, 8}";
target = "{0, 38}";
}
);
layerId = "51F41761-070F-43EA-B302-C90910850260";
name = Regular;
paths = (
{
closed = 1;
nodes = (
"145 -6 OFFCURVE",
"165 -4 OFFCURVE",
"184 0 CURVE",
"174 29 OFFCURVE",
"168 105 OFFCURVE",
"168 231 CURVE",
"192 232 OFFCURVE",
"223 233 OFFCURVE",
"259 233 CURVE SMOOTH",
"299 233 OFFCURVE",
"345 232 OFFCURVE",
"385 230 CURVE",
"384 143 OFFCURVE",
"380 51 OFFCURVE",
"375 0 CURVE",
"398 -4 OFFCURVE",
"418 -6 OFFCURVE",
"436 -6 CURVE SMOOTH",
"455 -6 OFFCURVE",
"475 -4 OFFCURVE",
"494 0 CURVE",
"483 30 OFFCURVE",
"478 107 OFFCURVE",
"478 227 CURVE SMOOTH",
"478 331 OFFCURVE",
"483 461 OFFCURVE",
"489 527 CURVE",
"466 531 OFFCURVE",
"446 533 OFFCURVE",
"428 533 CURVE SMOOTH",
"409 533 OFFCURVE",
"389 531 OFFCURVE",
"370 527 CURVE",
"380 498 OFFCURVE",
"386 422 OFFCURVE",
"386 296 CURVE",
"364 295 OFFCURVE",
"338 294 OFFCURVE",
"307 294 CURVE SMOOTH",
"263 294 OFFCURVE",
"211 295 OFFCURVE",
"169 298 CURVE",
"170 384 OFFCURVE",
"174 475 OFFCURVE",
"179 527 CURVE",
"156 531 OFFCURVE",
"136 533 OFFCURVE",
"118 533 CURVE SMOOTH",
"99 533 OFFCURVE",
"79 531 OFFCURVE",
"60 527 CURVE",
"71 497 OFFCURVE",
"76 420 OFFCURVE",
"76 300 CURVE SMOOTH",
"76 196 OFFCURVE",
"71 66 OFFCURVE",
"65 0 CURVE",
"88 -4 OFFCURVE",
"108 -6 OFFCURVE",
"126 -6 CURVE SMOOTH"
);
}
);
width = 554;
},
{
anchors = (
{
name = bottom;
position = "{287, 0}";
},
{
name = center;
position = "{287, 414}";
},
{
name = top;
position = "{287, 527}";
},
{
name = topleft;
position = "{15, 527}";
}
);
layerId = "0E844BAD-773F-41FF-B6D6-C35F1E5E991C";
name = Bold;
paths = (
{
closed = 1;
nodes = (
"160 -6 OFFCURVE",
"185 -4 OFFCURVE",
"209 0 CURVE",
"198 29 OFFCURVE",
"193 100 OFFCURVE",
"193 221 CURVE",
"215 222 OFFCURVE",
"240 223 OFFCURVE",
"269 223 CURVE SMOOTH",
"304 223 OFFCURVE",
"344 222 OFFCURVE",
"380 221 CURVE",
"378 139 OFFCURVE",
"374 52 OFFCURVE",
"370 0 CURVE",
"402 -4 OFFCURVE",
"431 -6 OFFCURVE",
"456 -6 CURVE SMOOTH",
"480 -6 OFFCURVE",
"505 -4 OFFCURVE",
"529 0 CURVE",
"519 30 OFFCURVE",
"513 114 OFFCURVE",
"513 237 CURVE SMOOTH",
"513 330 OFFCURVE",
"518 453 OFFCURVE",
"524 527 CURVE",
"495 531 OFFCURVE",
"470 533 OFFCURVE",
"448 533 CURVE SMOOTH",
"419 533 OFFCURVE",
"390 531 OFFCURVE",
"365 527 CURVE",
"376 498 OFFCURVE",
"381 427 OFFCURVE",
"381 305 CURVE",
"362 304 OFFCURVE",
"341 304 OFFCURVE",
"317 304 CURVE SMOOTH",
"274 304 OFFCURVE",
"231 305 OFFCURVE",
"194 306 CURVE",
"196 388 OFFCURVE",
"200 475 OFFCURVE",
"204 527 CURVE",
"175 531 OFFCURVE",
"150 533 OFFCURVE",
"128 533 CURVE SMOOTH",
"99 533 OFFCURVE",
"70 531 OFFCURVE",
"45 527 CURVE",
"55 497 OFFCURVE",
"61 413 OFFCURVE",
"61 290 CURVE SMOOTH",
"61 197 OFFCURVE",
"56 74 OFFCURVE",
"50 0 CURVE",
"82 -4 OFFCURVE",
"111 -6 OFFCURVE",
"136 -6 CURVE SMOOTH"
);
}
);
width = 574;
}
);
leftKerningGroup = H;
rightKerningGroup = H;
unicode = 0048;
},
{
color = 4;
glyphname = I;
lastChange = "2015-12-28 19:12:02 +0000";
layers = (
{
anchors = (
{
name = bottom;
position = "{122, 0}";
},
{
name = ogonek;
position = "{184, 0}";
},
{
name = top;
position = "{122, 527}";
},
{
name = topleft;
position = "{20, 527}";
}
);
hints = (
{
horizontal = 1;
origin = "{0, 20}";
target = down;
type = TopGhost;
},
{
horizontal = 1;
origin = "{0, 14}";
target = down;
type = TopGhost;
},
{
origin = "{0, 17}";
target = "{0, 5}";
}
);
layerId = "51F41761-070F-43EA-B302-C90910850260";
name = Regular;
paths = (
{
closed = 1;
nodes = (
"145 -6 OFFCURVE",
"165 -4 OFFCURVE",
"184 0 CURVE",
"173 30 OFFCURVE",
"168 107 OFFCURVE",
"168 227 CURVE SMOOTH",
"168 331 OFFCURVE",
"173 461 OFFCURVE",
"179 527 CURVE",
"156 531 OFFCURVE",
"136 533 OFFCURVE",
"118 533 CURVE SMOOTH",
"99 533 OFFCURVE",
"79 531 OFFCURVE",
"60 527 CURVE",
"71 497 OFFCURVE",
"76 420 OFFCURVE",
"76 300 CURVE SMOOTH",
"76 196 OFFCURVE",
"71 66 OFFCURVE",
"65 0 CURVE",
"88 -4 OFFCURVE",
"108 -6 OFFCURVE",
"126 -6 CURVE SMOOTH"
);
}
);
width = 244;
},
{
anchors = (
{
name = bottom;
position = "{127, 0}";
},
{
name = ogonek;
position = "{209, 0}";
},
{
name = top;
position = "{127, 527}";
},
{
name = topleft;
position = "{20, 527}";
}
);
layerId = "0E844BAD-773F-41FF-B6D6-C35F1E5E991C";
name = Bold;
paths = (
{
closed = 1;
nodes = (
"160 -6 OFFCURVE",
"185 -4 OFFCURVE",
"209 0 CURVE",
"198 29 OFFCURVE",
"193 102 OFFCURVE",
"193 227 CURVE SMOOTH",
"193 325 OFFCURVE",
"198 457 OFFCURVE",
"204 527 CURVE",
"175 531 OFFCURVE",
"150 533 OFFCURVE",
"128 533 CURVE SMOOTH",
"99 533 OFFCURVE",
"70 531 OFFCURVE",
"45 527 CURVE",
"55 497 OFFCURVE",
"61 413 OFFCURVE",
"61 290 CURVE SMOOTH",
"61 197 OFFCURVE",
"55 74 OFFCURVE",
"50 0 CURVE",
"82 -4 OFFCURVE",
"111 -6 OFFCURVE",
"136 -6 CURVE SMOOTH"
);
}
);
width = 254;
}
);
leftKerningGroup = H;
leftMetricsKey = H;
rightKerningGroup = H;
rightMetricsKey = H;
unicode = 0049;
},
{
color = 4;
glyphname = J;
lastChange = "2015-12-28 19:12:02 +0000";
layers = (
{
anchors = (
{
name = bottom;
position = "{146, 0}";
},
{
name = top;
position = "{195, 527}";
}
);
hints = (
{
origin = "{0, 14}";
target = "{0, 3}";
},
{
horizontal = 1;
origin = "{0, 26}";
target = "{0, 17}";
}
);
layerId = "51F41761-070F-43EA-B302-C90910850260";
name = Regular;
paths = (
{
closed = 1;
nodes = (
"193 -12 OFFCURVE",
"249 68 OFFCURVE",
"249 227 CURVE SMOOTH",
"249 395 OFFCURVE",
"251 479 OFFCURVE",
"256 527 CURVE",
"233 531 OFFCURVE",
"213 533 OFFCURVE",
"195 533 CURVE SMOOTH",
"176 533 OFFCURVE",
"156 531 OFFCURVE",
"137 527 CURVE",
"150 495 OFFCURVE",
"157 414 OFFCURVE",
"157 300 CURVE SMOOTH",
"157 91 OFFCURVE",
"153 56 OFFCURVE",
"126 37 CURVE",
"98 37 OFFCURVE",
"54 60 OFFCURVE",
"11 98 CURVE",
"-3 71 OFFCURVE",
"-15 26 OFFCURVE",
"-15 2 CURVE",
"13 -7 OFFCURVE",
"46 -12 OFFCURVE",
"81 -12 CURVE SMOOTH"
);
}
);
width = 306;
},
{
anchors = (
{
name = bottom;
position = "{163, 0}";
},
{
name = top;
position = "{215, 527}";
}
);
layerId = "0E844BAD-773F-41FF-B6D6-C35F1E5E991C";
name = Bold;
paths = (
{
closed = 1;
nodes = (
"222 -12 OFFCURVE",
"289 69 OFFCURVE",
"289 227 CURVE SMOOTH",
"289 383 OFFCURVE",
"291 478 OFFCURVE",
"296 527 CURVE",
"266 531 OFFCURVE",
"239 533 OFFCURVE",
"215 533 CURVE SMOOTH",
"190 533 OFFCURVE",
"163 531 OFFCURVE",
"137 527 CURVE",
"150 495 OFFCURVE",
"157 414 OFFCURVE",
"157 300 CURVE SMOOTH",
"157 126 OFFCURVE",
"153 97 OFFCURVE",
"126 77 CURVE",
"101 77 OFFCURVE",
"60 101 OFFCURVE",
"21 138 CURVE",
"0 108 OFFCURVE",
"-15 51 OFFCURVE",
"-15 2 CURVE",
"16 -7 OFFCURVE",
"52 -12 OFFCURVE",
"91 -12 CURVE SMOOTH"
);
}
);
width = 331;
}
);
leftKerningGroup = J;
rightKerningGroup = J;
rightMetricsKey = "=H-10";
unicode = 004A;
},
{
color = 4;
glyphname = K;
lastChange = "2015-12-28 19:12:02 +0000";
layers = (
{
anchors = (
{
name = bottom;
position = "{253, 0}";
},
{
name = top;
position = "{253, 527}";
}
);
hints = (
{
horizontal = 1;
origin = "{0, 44}";
target = up;
type = BottomGhost;
},
{
horizontal = 1;
origin = "{0, 32}";
target = down;
type = TopGhost;
},
{
horizontal = 1;
origin = "{0, 41}";
target = down;
type = TopGhost;
},
{
horizontal = 1;
origin = "{0, 35}";
target = down;
type = TopGhost;
},
{
origin = "{0, 38}";
target = "{0, 5}";
}
);
layerId = "51F41761-070F-43EA-B302-C90910850260";
name = Regular;
paths = (
{
closed = 1;
nodes = (
"145 -6 OFFCURVE",
"165 -4 OFFCURVE",
"184 0 CURVE",
"174 27 OFFCURVE",
"169 91 OFFCURVE",
"168 191 CURVE",
"182 206 OFFCURVE",
"196 223 OFFCURVE",
"211 240 CURVE",
"291 127 OFFCURVE",
"352 36 OFFCURVE",
"377 -6 CURVE",
"427 -6 OFFCURVE",
"466 -1 OFFCURVE",
"505 15 CURVE",
"446 58 OFFCURVE",
"359 183 OFFCURVE",
"277 314 CURVE",
"346 391 OFFCURVE",
"420 472 OFFCURVE",
"484 533 CURVE",
"442 533 OFFCURVE",
"405 531 OFFCURVE",
"356 522 CURVE",
"356 492 OFFCURVE",
"330 444 OFFCURVE",
"168 271 CURVE",
"169 365 OFFCURVE",
"174 470 OFFCURVE",
"179 527 CURVE",
"156 531 OFFCURVE",
"136 533 OFFCURVE",
"118 533 CURVE SMOOTH",
"99 533 OFFCURVE",
"79 531 OFFCURVE",
"60 527 CURVE",
"71 497 OFFCURVE",
"76 420 OFFCURVE",
"76 300 CURVE SMOOTH",
"76 196 OFFCURVE",
"71 66 OFFCURVE",
"65 0 CURVE",
"88 -4 OFFCURVE",
"108 -6 OFFCURVE",
"126 -6 CURVE SMOOTH"
);
}
);
width = 505;
},
{
anchors = (
{
name = bottom;
position = "{270, 0}";
},
{
name = top;
position = "{270, 527}";
}
);
color = 4;
layerId = "0E844BAD-773F-41FF-B6D6-C35F1E5E991C";
name = Bold;
paths = (
{
closed = 1;
nodes = (
"160 -6 OFFCURVE",
"185 -4 OFFCURVE",
"209 0 CURVE",
"199 26 OFFCURVE",
"194 85 OFFCURVE",
"193 184 CURVE",
"202 195 OFFCURVE",
"212 206 OFFCURVE",
"222 217 CURVE",
"294 115 OFFCURVE",
"349 34 OFFCURVE",
"372 -6 CURVE",
"438 -6 OFFCURVE",
"489 -1 OFFCURVE",
"540 15 CURVE",
"481 59 OFFCURVE",
"392 185 OFFCURVE",
"310 317 CURVE",
"378 394 OFFCURVE",
"452 472 OFFCURVE",
"514 533 CURVE",
"465 533 OFFCURVE",
"423 531 OFFCURVE",
"366 522 CURVE",
"366 493 OFFCURVE",
"348 447 OFFCURVE",
"193 284 CURVE",
"195 371 OFFCURVE",
"199 470 OFFCURVE",
"204 527 CURVE",
"175 531 OFFCURVE",
"150 533 OFFCURVE",
"128 533 CURVE SMOOTH",
"99 533 OFFCURVE",
"70 531 OFFCURVE",
"45 527 CURVE",
"55 497 OFFCURVE",
"61 413 OFFCURVE",
"61 290 CURVE SMOOTH",
"61 197 OFFCURVE",
"56 74 OFFCURVE",
"50 0 CURVE",
"82 -4 OFFCURVE",
"111 -6 OFFCURVE",
"136 -6 CURVE SMOOTH"
);
}
);
width = 540;
}
);
leftKerningGroup = H;
leftMetricsKey = H;
rightKerningGroup = K;
unicode = 004B;
},
{
color = 4;
glyphname = L;
lastChange = "2015-12-28 19:12:02 +0000";
layers = (
{
anchors = (
{
name = bottom;
position = "{208, 0}";
},
{
name = center;
position = "{136, 264}";
},
{
name = top;
position = "{118, 527}";
},
{
name = topright;
position = "{295, 407}";
}
);
hints = (
{
horizontal = 1;
place = "{-2.000000, 78.000000}";
},
{
horizontal = 1;
origin = "{0, 26}";
target = down;
type = TopGhost;
},
{
origin = "{0, 32}";
target = "{0, 17}";
}
);
layerId = "51F41761-070F-43EA-B302-C90910850260";
name = Regular;
paths = (
{
closed = 1;
nodes = (
"104 2 OFFCURVE",
"150 4 OFFCURVE",
"228 4 CURVE SMOOTH",
"288 4 OFFCURVE",
"345 1 OFFCURVE",
"384 -3 CURVE",
"395 12 OFFCURVE",
"405 62 OFFCURVE",
"405 103 CURVE",
"373 87 OFFCURVE",
"321 76 OFFCURVE",
"273 76 CURVE SMOOTH",
"239 76 OFFCURVE",
"201 79 OFFCURVE",
"172 85 CURVE",
"169 116 OFFCURVE",
"168 158 OFFCURVE",
"168 227 CURVE SMOOTH",
"168 325 OFFCURVE",
"173 457 OFFCURVE",
"179 527 CURVE",
"156 531 OFFCURVE",
"136 533 OFFCURVE",
"118 533 CURVE SMOOTH",
"99 533 OFFCURVE",
"79 531 OFFCURVE",
"60 527 CURVE",
"71 498 OFFCURVE",
"76 425 OFFCURVE",
"76 300 CURVE SMOOTH",
"76 183 OFFCURVE",
"75 148 OFFCURVE",
"65 -3 CURVE"
);
}
);
width = 415;
},
{
anchors = (
{
name = bottom;
position = "{218, 0}";
},
{
name = center;
position = "{129, 264}";
},
{
name = top;
position = "{133, 527}";
},
{
name = topright;
position = "{315, 407}";
}
);
layerId = "0E844BAD-773F-41FF-B6D6-C35F1E5E991C";
name = Bold;
paths = (
{
closed = 1;
nodes = (
"93 2 OFFCURVE",
"162 4 OFFCURVE",
"233 4 CURVE SMOOTH",
"294 4 OFFCURVE",
"357 2 OFFCURVE",
"399 -3 CURVE",
"412 17 OFFCURVE",
"420 81 OFFCURVE",
"420 123 CURVE",
"385 106 OFFCURVE",
"328 96 OFFCURVE",
"278 96 CURVE SMOOTH",
"251 96 OFFCURVE",
"221 99 OFFCURVE",
"196 102 CURVE",
"194 135 OFFCURVE",
"193 177 OFFCURVE",
"193 227 CURVE SMOOTH",
"193 331 OFFCURVE",
"198 461 OFFCURVE",
"204 527 CURVE",
"173 531 OFFCURVE",
"147 533 OFFCURVE",
"123 533 CURVE SMOOTH",
"97 533 OFFCURVE",
"71 531 OFFCURVE",
"45 527 CURVE",
"56 497 OFFCURVE",
"61 410 OFFCURVE",
"61 290 CURVE SMOOTH",
"61 185 OFFCURVE",
"56 63 OFFCURVE",
"50 -3 CURVE"
);
}
);
width = 425;
}
);
leftKerningGroup = H;
leftMetricsKey = H;
rightKerningGroup = L;
unicode = 004C;
},
{
color = 4;
glyphname = M;
lastChange = "2015-12-28 19:12:02 +0000";
layers = (
{
hints = (
{
horizontal = 1;
origin = "{0, 62}";
target = down;
type = TopGhost;
},
{
horizontal = 1;
origin = "{0, 53}";
target = down;
type = TopGhost;
},
{
horizontal = 1;
origin = "{0, 56}";
target = down;
type = TopGhost;
},
{
origin = "{0, 59}";
target = "{0, 5}";
},
{
origin = "{0, 23}";
target = "{0, 35}";
}
);
layerId = "51F41761-070F-43EA-B302-C90910850260";
name = Regular;
paths = (
{
closed = 1;
nodes = (
"119 -6 OFFCURVE",
"133 -4 OFFCURVE",
"146 0 CURVE",
"139 30 OFFCURVE",
"135 107 OFFCURVE",
"135 227 CURVE SMOOTH",
"135 276 OFFCURVE",
"136 330 OFFCURVE",
"137 380 CURVE",
"200 251 OFFCURVE",
"278 77 OFFCURVE",
"311 0 CURVE",
"318 -3 OFFCURVE",
"325 -5 OFFCURVE",
"332 -5 CURVE SMOOTH",
"340 -5 OFFCURVE",
"347 -3 OFFCURVE",
"355 0 CURVE",
"391 83 OFFCURVE",
"478 277 OFFCURVE",
"543 408 CURVE",
"544 377 OFFCURVE",
"545 341 OFFCURVE",
"545 300 CURVE SMOOTH",
"545 196 OFFCURVE",
"540 66 OFFCURVE",
"534 0 CURVE",
"557 -4 OFFCURVE",
"577 -6 OFFCURVE",
"595 -6 CURVE SMOOTH",
"614 -6 OFFCURVE",
"634 -4 OFFCURVE",
"653 0 CURVE",
"642 30 OFFCURVE",
"637 107 OFFCURVE",
"637 227 CURVE SMOOTH",
"637 331 OFFCURVE",
"642 461 OFFCURVE",
"648 527 CURVE",
"625 531 OFFCURVE",
"605 533 OFFCURVE",
"587 533 CURVE SMOOTH",
"563 533 OFFCURVE",
"543 531 OFFCURVE",
"529 527 CURVE",
"495 448 OFFCURVE",
"410 258 OFFCURVE",
"353 143 CURVE",
"300 249 OFFCURVE",
"211 447 OFFCURVE",
"177 527 CURVE",
"153 531 OFFCURVE",
"133 533 OFFCURVE",
"116 533 CURVE SMOOTH",
"97 533 OFFCURVE",
"78 531 OFFCURVE",
"60 527 CURVE",
"69 491 OFFCURVE",
"72 428 OFFCURVE",
"72 300 CURVE SMOOTH",
"72 196 OFFCURVE",
"69 66 OFFCURVE",
"64 0 CURVE",
"80 -4 OFFCURVE",
"94 -6 OFFCURVE",
"106 -6 CURVE SMOOTH"
);
}
);
width = 713;
},
{
layerId = "0E844BAD-773F-41FF-B6D6-C35F1E5E991C";
name = Bold;
paths = (
{
closed = 1;
nodes = (
"114 -6 OFFCURVE",
"133 -4 OFFCURVE",
"151 0 CURVE",
"144 30 OFFCURVE",
"140 107 OFFCURVE",
"140 227 CURVE SMOOTH",
"140 260 OFFCURVE",
"140 295 OFFCURVE",
"141 330 CURVE",
"198 209 OFFCURVE",
"262 68 OFFCURVE",
"291 0 CURVE",
"301 -3 OFFCURVE",
"310 -5 OFFCURVE",
"320 -5 CURVE SMOOTH",
"330 -5 OFFCURVE",
"340 -3 OFFCURVE",
"350 0 CURVE",
"382 76 OFFCURVE",
"457 242 OFFCURVE",
"519 370 CURVE",
"520 349 OFFCURVE",
"520 325 OFFCURVE",
"520 300 CURVE SMOOTH",
"520 196 OFFCURVE",
"515 66 OFFCURVE",
"509 0 CURVE",
"538 -4 OFFCURVE",
"563 -6 OFFCURVE",
"585 -6 CURVE SMOOTH",
"612 -6 OFFCURVE",
"641 -4 OFFCURVE",
"668 0 CURVE",
"657 30 OFFCURVE",
"652 107 OFFCURVE",
"652 227 CURVE SMOOTH",
"652 331 OFFCURVE",
"657 461 OFFCURVE",
"663 527 CURVE",
"631 531 OFFCURVE",
"602 533 OFFCURVE",
"577 533 CURVE SMOOTH",
"553 533 OFFCURVE",
"524 531 OFFCURVE",
"504 527 CURVE",
"475 458 OFFCURVE",
"405 303 OFFCURVE",
"350 189 CURVE",
"297 299 OFFCURVE",
"226 457 OFFCURVE",
"197 527 CURVE",
"171 531 OFFCURVE",
"139 533 OFFCURVE",
"116 533 CURVE SMOOTH",
"92 533 OFFCURVE",
"68 531 OFFCURVE",
"45 527 CURVE",
"54 457 OFFCURVE",
"57 382 OFFCURVE",
"57 290 CURVE SMOOTH",
"57 189 OFFCURVE",
"54 64 OFFCURVE",
"49 0 CURVE",
"67 -4 OFFCURVE",
"83 -6 OFFCURVE",
"96 -6 CURVE SMOOTH"
);
}
);
width = 713;
},
{
associatedMasterId = "51F41761-070F-43EA-B302-C90910850260";
hints = (
{
horizontal = 1;
origin = "{0, 11}";
target = down;
type = TopGhost;
},
{
horizontal = 1;
origin = "{3, 2}";
target = down;
type = TopGhost;
},
{
horizontal = 1;
origin = "{3, 5}";
target = down;
type = TopGhost;
},
{
origin = "{0, 8}";
target = "{0, 20}";
},
{
origin = "{1, 8}";
target = "{1, 20}";
}
);
layerId = "82107CD7-8CE3-45C5-B596-6DB763B102C4";
name = "Regular Dec 1 15, 09:12";
paths = (
{
closed = 1;
nodes = (
"127 531 OFFCURVE",
"113 523 OFFCURVE",
"101 523 CURVE SMOOTH",
"88 523 OFFCURVE",
"74 531 OFFCURVE",
"61 527 CURVE",
"68 497 OFFCURVE",
"72 420 OFFCURVE",
"72 300 CURVE SMOOTH",
"72 196 OFFCURVE",
"69 66 OFFCURVE",
"64 0 CURVE",
"80 -4 OFFCURVE",
"94 -6 OFFCURVE",
"106 -6 CURVE SMOOTH",
"119 -6 OFFCURVE",
"133 -4 OFFCURVE",
"146 0 CURVE",
"139 30 OFFCURVE",
"135 107 OFFCURVE",
"135 227 CURVE SMOOTH",
"135 331 OFFCURVE",
"138 458 OFFCURVE",
"143 527 CURVE"
);
},
{
closed = 1;
nodes = (
"625 531 OFFCURVE",
"605 533 OFFCURVE",
"587 533 CURVE SMOOTH",
"568 533 OFFCURVE",
"548 531 OFFCURVE",
"529 527 CURVE",
"540 497 OFFCURVE",
"545 420 OFFCURVE",
"545 300 CURVE SMOOTH",
"545 196 OFFCURVE",
"540 66 OFFCURVE",
"534 0 CURVE",
"557 -4 OFFCURVE",
"577 -6 OFFCURVE",
"595 -6 CURVE SMOOTH",
"614 -6 OFFCURVE",
"634 -4 OFFCURVE",
"653 0 CURVE",
"642 30 OFFCURVE",
"637 107 OFFCURVE",
"637 227 CURVE SMOOTH",
"637 331 OFFCURVE",
"642 461 OFFCURVE",
"648 527 CURVE"
);
},
{
closed = 1;
nodes = (
"485 423 OFFCURVE",
"350 126 OFFCURVE",
"310 61 CURVE",
"355 0 LINE",
"405 118 OFFCURVE",
"559 454 OFFCURVE",
"606 527 CURVE",
"593 531 OFFCURVE",
"579 533 OFFCURVE",
"565 533 CURVE SMOOTH",
"555 533 OFFCURVE",
"543 531 OFFCURVE",
"529 527 CURVE"
);
},
{
closed = 1;
nodes = (
"153 531 OFFCURVE",
"133 533 OFFCURVE",
"116 533 CURVE SMOOTH",
"97 533 OFFCURVE",
"78 531 OFFCURVE",
"60 527 CURVE",
"107 454 OFFCURVE",
"261 118 OFFCURVE",
"311 0 CURVE",
"325 -6 OFFCURVE",
"339 -6 OFFCURVE",
"355 0 CURVE",
"383 86 LINE",
"345 147 OFFCURVE",
"218 428 OFFCURVE",
"177 527 CURVE"
);
}
);
width = 713;
}
);
leftKerningGroup = M;
leftMetricsKey = H;
rightKerningGroup = M;
rightMetricsKey = H;
unicode = 004D;
},
{
color = 4;
glyphname = N;
lastChange = "2015-12-28 19:12:02 +0000";
layers = (
{
anchors = (
{
name = bottom;
position = "{269, 0}";
},
{
name = top;
position = "{269, 527}";
}
);
hints = (
{
horizontal = 1;
origin = "{0, 53}";
target = up;
type = BottomGhost;
},
{
horizontal = 1;
origin = "{0, 44}";
target = down;
type = TopGhost;
},
{
horizontal = 1;
origin = "{0, 50}";
target = down;
type = TopGhost;
},
{
horizontal = 1;
origin = "{0, 44}";
target = down;
type = TopGhost;
},
{
origin = "{0, 47}";
target = "{0, 5}";
},
{
origin = "{0, 32}";
target = "{0, 20}";
}
);
layerId = "51F41761-070F-43EA-B302-C90910850260";
name = Regular;
paths = (
{
closed = 1;
nodes = (
"113 -6 OFFCURVE",
"127 -4 OFFCURVE",
"140 0 CURVE",
"133 30 OFFCURVE",
"129 107 OFFCURVE",
"129 227 CURVE SMOOTH",
"129 285 OFFCURVE",
"130 349 OFFCURVE",
"132 407 CURVE",
"211 276 OFFCURVE",
"321 83 OFFCURVE",
"366 0 CURVE",
"391 -4 OFFCURVE",
"411 -6 OFFCURVE",
"429 -6 CURVE",
"451 -6 OFFCURVE",
"473 -3 OFFCURVE",
"483 0 CURVE",
"476 30 OFFCURVE",
"472 107 OFFCURVE",
"472 227 CURVE SMOOTH",
"472 331 OFFCURVE",
"476 461 OFFCURVE",
"480 527 CURVE",
"464 531 OFFCURVE",
"450 533 OFFCURVE",
"438 533 CURVE SMOOTH",
"425 533 OFFCURVE",
"411 531 OFFCURVE",
"398 527 CURVE",
"406 497 OFFCURVE",
"409 420 OFFCURVE",
"409 300 CURVE SMOOTH",
"409 243 OFFCURVE",
"408 177 OFFCURVE",
"407 119 CURVE",
"327 251 OFFCURVE",
"217 443 OFFCURVE",
"172 527 CURVE",
"147 531 OFFCURVE",
"127 533 OFFCURVE",
"110 533 CURVE SMOOTH",
"92 533 OFFCURVE",
"76 531 OFFCURVE",
"55 527 CURVE",
"62 497 OFFCURVE",
"66 420 OFFCURVE",
"66 300 CURVE SMOOTH",
"66 196 OFFCURVE",
"63 66 OFFCURVE",
"58 0 CURVE",
"74 -4 OFFCURVE",
"88 -6 OFFCURVE",
"100 -6 CURVE SMOOTH"
);
}
);
width = 538;
},
{
anchors = (
{
name = bottom;
position = "{274, 0}";
},
{
name = top;
position = "{274, 527}";
}
);
layerId = "0E844BAD-773F-41FF-B6D6-C35F1E5E991C";
name = Bold;
paths = (
{
closed = 1;
nodes = (
"115 -6 OFFCURVE",
"130 -4 OFFCURVE",
"145 0 CURVE",
"138 30 OFFCURVE",
"134 107 OFFCURVE",
"134 227 CURVE SMOOTH",
"134 274 OFFCURVE",
"135 326 OFFCURVE",
"136 375 CURVE",
"211 248 OFFCURVE",
"305 83 OFFCURVE",
"346 0 CURVE",
"376 -4 OFFCURVE",
"409 -6 OFFCURVE",
"434 -6 CURVE SMOOTH",
"459 -6 OFFCURVE",
"483 -4 OFFCURVE",
"508 0 CURVE",
"501 31 OFFCURVE",
"497 112 OFFCURVE",
"497 237 CURVE SMOOTH",
"497 338 OFFCURVE",
"501 463 OFFCURVE",
"505 527 CURVE",
"483 531 OFFCURVE",
"464 533 OFFCURVE",
"448 533 CURVE SMOOTH",
"433 533 OFFCURVE",
"418 531 OFFCURVE",
"403 527 CURVE",
"411 497 OFFCURVE",
"414 420 OFFCURVE",
"414 300 CURVE SMOOTH",
"414 253 OFFCURVE",
"413 201 OFFCURVE",
"412 152 CURVE",
"337 278 OFFCURVE",
"243 444 OFFCURVE",
"202 527 CURVE",
"167 531 OFFCURVE",
"139 533 OFFCURVE",
"115 533 CURVE SMOOTH",
"89 533 OFFCURVE",
"57 531 OFFCURVE",
"40 527 CURVE",
"47 496 OFFCURVE",
"51 415 OFFCURVE",
"51 290 CURVE SMOOTH",
"51 189 OFFCURVE",
"48 64 OFFCURVE",
"43 0 CURVE",
"65 -4 OFFCURVE",
"84 -6 OFFCURVE",
"100 -6 CURVE SMOOTH"
);
}
);
width = 548;
}
);
leftKerningGroup = H;
leftMetricsKey = "=H-5";
rightKerningGroup = H;
rightMetricsKey = "=H-5";
unicode = 004E;
},
{
color = 4;
glyphname = Eng;
lastChange = "2015-12-28 19:12:02 +0000";
layers = (
{
anchors = (
{
name = bottom;
position = "{269, 0}";
},
{
name = top;
position = "{269, 527}";
}
);
background = {
paths = (
{
closed = 1;
nodes = (
"121 531 OFFCURVE",
"107 523 OFFCURVE",
"95 523 CURVE SMOOTH",
"82 523 OFFCURVE",
"68 531 OFFCURVE",
"55 527 CURVE",
"62 497 OFFCURVE",
"66 420 OFFCURVE",
"66 300 CURVE SMOOTH",
"66 196 OFFCURVE",
"63 66 OFFCURVE",
"58 0 CURVE",
"74 -4 OFFCURVE",
"88 -6 OFFCURVE",
"100 -6 CURVE SMOOTH",
"113 -6 OFFCURVE",
"127 -4 OFFCURVE",
"140 0 CURVE",
"133 30 OFFCURVE",
"129 107 OFFCURVE",
"129 227 CURVE SMOOTH",
"129 331 OFFCURVE",
"132 458 OFFCURVE",
"137 527 CURVE"
);
},
{
closed = 1;
nodes = (
"464 531 OFFCURVE",
"450 533 OFFCURVE",
"438 533 CURVE SMOOTH",
"425 533 OFFCURVE",
"411 531 OFFCURVE",
"398 527 CURVE",
"406 497 OFFCURVE",
"409 420 OFFCURVE",
"409 300 CURVE SMOOTH",
"409 196 OFFCURVE",
"406 66 OFFCURVE",
"402 0 CURVE",
"417 -4 OFFCURVE",
"431 4 OFFCURVE",
"444 4 CURVE SMOOTH",
"457 4 OFFCURVE",
"470 -4 OFFCURVE",
"483 0 CURVE",
"476 30 OFFCURVE",
"472 107 OFFCURVE",
"472 227 CURVE SMOOTH",
"472 331 OFFCURVE",
"476 461 OFFCURVE",
"480 527 CURVE"
);
},
{
closed = 1;
nodes = (
"147 531 OFFCURVE",
"127 533 OFFCURVE",
"110 533 CURVE SMOOTH",
"91 533 OFFCURVE",
"72 531 OFFCURVE",
"55 527 CURVE",
"109 454 OFFCURVE",
"303 118 OFFCURVE",
"366 0 CURVE",
"391 -4 OFFCURVE",
"411 -6 OFFCURVE",
"429 -6 CURVE SMOOTH",
"448 -6 OFFCURVE",
"467 -4 OFFCURVE",
"483 0 CURVE",
"429 73 OFFCURVE",
"235 409 OFFCURVE",
"172 527 CURVE"
);
},
{
closed = 1;
nodes = (
"380 106 LINE SMOOTH",
"380 -54 OFFCURVE",
"347 -109 OFFCURVE",
"281 -171 CURVE",
"292 -189 LINE",
"412 -111 OFFCURVE",
"472 -63 OFFCURVE",
"472 63 CURVE"
);
}
);
};
guideLines = (
{
angle = 90;
position = "{472, 167}";
}
);
hints = (
{
horizontal = 1;
origin = "{0, 36}";
target = up;
type = BottomGhost;
},
{
horizontal = 1;
origin = "{0, 27}";
target = down;
type = TopGhost;
},
{
horizontal = 1;
origin = "{0, 27}";
target = down;
type = TopGhost;
},
{
origin = "{0, 30}";
target = "{0, 42}";
},
{
origin = "{0, 15}";
target = "{0, 3}";
}
);
layerId = "51F41761-070F-43EA-B302-C90910850260";
name = Regular;
paths = (
{
closed = 1;
nodes = (
"429 -122 OFFCURVE",
"472 -63 OFFCURVE",
"472 63 CURVE SMOOTH",
"472 227 LINE SMOOTH",
"472 331 OFFCURVE",
"476 461 OFFCURVE",
"480 527 CURVE",
"464 531 OFFCURVE",
"450 533 OFFCURVE",
"438 533 CURVE SMOOTH",
"425 533 OFFCURVE",
"411 531 OFFCURVE",
"398 527 CURVE",
"406 497 OFFCURVE",
"409 420 OFFCURVE",
"409 300 CURVE SMOOTH",
"409 243 OFFCURVE",
"408 177 OFFCURVE",
"407 119 CURVE",
"327 251 OFFCURVE",
"217 443 OFFCURVE",
"172 527 CURVE",
"147 531 OFFCURVE",
"127 533 OFFCURVE",
"110 533 CURVE SMOOTH",
"89 533 OFFCURVE",
"53 527 OFFCURVE",
"55 527 CURVE",
"62 497 OFFCURVE",
"66 420 OFFCURVE",
"66 300 CURVE SMOOTH",
"66 196 OFFCURVE",
"63 66 OFFCURVE",
"58 0 CURVE",
"74 -4 OFFCURVE",
"88 -6 OFFCURVE",
"100 -6 CURVE SMOOTH",
"113 -6 OFFCURVE",
"127 -4 OFFCURVE",
"140 0 CURVE",
"133 30 OFFCURVE",
"129 107 OFFCURVE",
"129 227 CURVE SMOOTH",
"129 285 OFFCURVE",
"130 349 OFFCURVE",
"132 407 CURVE",
"211 276 OFFCURVE",
"321 83 OFFCURVE",
"366 0 CURVE SMOOTH",
"386 -38 OFFCURVE",
"359 -119 OFFCURVE",
"281 -171 CURVE",
"292 -189 LINE"
);
}
);
width = 535;
},
{
anchors = (
{
name = bottom;
position = "{274, 0}";
},
{
name = top;
position = "{274, 527}";
}
);
background = {
paths = (
{
closed = 1;
nodes = (
"124 531 OFFCURVE",
"108 523 OFFCURVE",
"95 523 CURVE SMOOTH",
"77 523 OFFCURVE",
"58 531 OFFCURVE",
"40 527 CURVE",
"47 496 OFFCURVE",
"51 415 OFFCURVE",
"51 290 CURVE SMOOTH",
"51 189 OFFCURVE",
"48 64 OFFCURVE",
"43 0 CURVE",
"65 -4 OFFCURVE",
"84 -6 OFFCURVE",
"100 -6 CURVE SMOOTH",
"115 -6 OFFCURVE",
"130 -4 OFFCURVE",
"145 0 CURVE",
"138 30 OFFCURVE",
"134 107 OFFCURVE",
"134 227 CURVE SMOOTH",
"134 331 OFFCURVE",
"137 458 OFFCURVE",
"142 527 CURVE"
);
},
{
closed = 1;
nodes = (
"483 531 OFFCURVE",
"464 533 OFFCURVE",
"448 533 CURVE SMOOTH",
"433 533 OFFCURVE",
"418 531 OFFCURVE",
"403 527 CURVE",
"411 497 OFFCURVE",
"414 420 OFFCURVE",
"414 300 CURVE SMOOTH",
"414 196 OFFCURVE",
"411 66 OFFCURVE",
"407 0 CURVE",
"424 -4 OFFCURVE",
"439 4 OFFCURVE",
"454 4 CURVE SMOOTH",
"472 4 OFFCURVE",
"490 -4 OFFCURVE",
"508 0 CURVE",
"501 31 OFFCURVE",
"497 112 OFFCURVE",
"497 237 CURVE SMOOTH",
"497 338 OFFCURVE",
"501 463 OFFCURVE",
"505 527 CURVE"
);
},
{
closed = 1;
nodes = (
"167 531 OFFCURVE",
"139 533 OFFCURVE",
"115 533 CURVE SMOOTH",
"89 533 OFFCURVE",
"57 531 OFFCURVE",
"40 527 CURVE",
"93 454 OFFCURVE",
"283 128 OFFCURVE",
"346 0 CURVE",
"381 -4 OFFCURVE",
"409 -6 OFFCURVE",
"434 -6 CURVE SMOOTH",
"460 -6 OFFCURVE",
"486 -4 OFFCURVE",
"508 0 CURVE",
"455 73 OFFCURVE",
"265 399 OFFCURVE",
"202 527 CURVE"
);
},
{
closed = 0;
nodes = (
"365 106 LINE",
"365 -42 OFFCURVE",
"332 -93 OFFCURVE",
"266 -151 CURVE",
"287 -189 LINE",
"427 -111 OFFCURVE",
"497 -63 OFFCURVE",
"497 63 CURVE SMOOTH"
);
}
);
};
layerId = "0E844BAD-773F-41FF-B6D6-C35F1E5E991C";
name = Bold;
paths = (
{
closed = 1;
nodes = (
"445 -123 OFFCURVE",
"497 -63 OFFCURVE",
"497 63 CURVE SMOOTH",
"497 237 LINE SMOOTH",
"497 338 OFFCURVE",
"501 463 OFFCURVE",
"505 527 CURVE",
"483 531 OFFCURVE",
"464 533 OFFCURVE",
"448 533 CURVE SMOOTH",
"433 533 OFFCURVE",
"418 531 OFFCURVE",
"403 527 CURVE",
"411 497 OFFCURVE",
"414 420 OFFCURVE",
"414 300 CURVE SMOOTH",
"414 253 OFFCURVE",
"413 201 OFFCURVE",
"412 152 CURVE",
"337 278 OFFCURVE",
"243 444 OFFCURVE",
"202 527 CURVE",
"167 531 OFFCURVE",
"139 533 OFFCURVE",
"115 533 CURVE SMOOTH",
"89 533 OFFCURVE",
"57 531 OFFCURVE",
"40 527 CURVE",
"47 496 OFFCURVE",
"51 415 OFFCURVE",
"51 290 CURVE SMOOTH",
"51 189 OFFCURVE",
"48 64 OFFCURVE",
"43 0 CURVE",
"65 -4 OFFCURVE",
"84 -6 OFFCURVE",
"100 -6 CURVE SMOOTH",
"115 -6 OFFCURVE",
"130 -4 OFFCURVE",
"145 0 CURVE",
"138 30 OFFCURVE",
"134 107 OFFCURVE",
"134 227 CURVE SMOOTH",
"134 274 OFFCURVE",
"135 326 OFFCURVE",
"136 375 CURVE",
"211 248 OFFCURVE",
"305 83 OFFCURVE",
"346 0 CURVE SMOOTH",
"369 -44 OFFCURVE",
"346 -107 OFFCURVE",
"266 -151 CURVE",
"287 -189 LINE"
);
}
);
width = 545;
}
);
leftKerningGroup = Eng;
leftMetricsKey = N;
rightKerningGroup = Eng;
rightMetricsKey = N;
unicode = 014A;
},
{
color = 4;
glyphname = O;
lastChange = "2015-12-28 19:12:02 +0000";
layers = (
{
anchors = (
{
name = bottom;
position = "{305, 0}";
},
{
name = center;
position = "{305, 264}";
},
{
name = ogonek;
position = "{550, 10}";
},
{
name = top;
position = "{305, 527}";
},
{
name = topleft;
position = "{20, 527}";
},
{
name = topright;
position = "{591, 527}";
}
);
hints = (
{
horizontal = 1;
origin = "{0, 11}";
target = "{1, 11}";
},
{
horizontal = 1;
origin = "{0, 5}";
target = "{1, 5}";
},
{
origin = "{0, 8}";
target = "{1, 2}";
},
{
origin = "{1, 8}";
target = "{0, 2}";
}
);
layerId = "51F41761-070F-43EA-B302-C90910850260";
name = Regular;
paths = (
{
closed = 1;
nodes = (
"451 -13 OFFCURVE",
"571 105 OFFCURVE",
"570.952 272.422 CURVE SMOOTH",
"571 430 OFFCURVE",
"472 535 OFFCURVE",
"324 535 CURVE SMOOTH",
"157 535 OFFCURVE",
"40 415 OFFCURVE",
"40 243.578 CURVE SMOOTH",
"40 90 OFFCURVE",
"136 -13 OFFCURVE",
"279 -13 CURVE SMOOTH"
);
},
{
closed = 1;
nodes = (
"206 42 OFFCURVE",
"142 123 OFFCURVE",
"142 244.564 CURVE SMOOTH",
"142 361 OFFCURVE",
"216 446 OFFCURVE",
"319 446 CURVE",
"413 428 OFFCURVE",
"469 350 OFFCURVE",
"469 239 CURVE SMOOTH",
"469 118 OFFCURVE",
"404 42 OFFCURVE",
"302 42 CURVE SMOOTH"
);
}
);
width = 610.952;
},
{
anchors = (
{
name = bottom;
position = "{306, 0}";
},
{
name = center;
position = "{306, 264}";
},
{
name = ogonek;
position = "{550, 10}";
},
{
name = top;
position = "{306, 527}";
},
{
name = topleft;
position = "{20, 527}";
},
{
name = topright;
position = "{591, 527}";
}
);
layerId = "0E844BAD-773F-41FF-B6D6-C35F1E5E991C";
name = Bold;
paths = (
{
closed = 1;
nodes = (
"456 -13 OFFCURVE",
"581 105 OFFCURVE",
"581 272 CURVE SMOOTH",
"581 430 OFFCURVE",
"478 535 OFFCURVE",
"324 535 CURVE SMOOTH",
"151 535 OFFCURVE",
"30 415 OFFCURVE",
"30 244 CURVE SMOOTH",
"30 91 OFFCURVE",
"130 -13 OFFCURVE",
"279 -13 CURVE SMOOTH"
);
},
{
closed = 1;
nodes = (
"224 62 OFFCURVE",
"172 131 OFFCURVE",
"172 235 CURVE SMOOTH",
"172 340 OFFCURVE",
"234 416 OFFCURVE",
"319 416 CURVE",
"391 397 OFFCURVE",
"439 320 OFFCURVE",
"439 224 CURVE SMOOTH",
"439 125 OFFCURVE",
"386 62 OFFCURVE",
"302 62 CURVE SMOOTH"
);
}
);
width = 611;
}
);
leftKerningGroup = O;
rightKerningGroup = O;
unicode = 004F;
},
{
color = 4;
glyphname = OE;
lastChange = "2015-12-28 19:12:02 +0000";
layers = (
{
anchors = (
{
name = bottom;
position = "{403, 0}";
},
{
name = top;
position = "{403, 527}";
}
);
hints = (
{
horizontal = 1;
origin = "{0, 56}";
target = "{1, 17}";
},
{
horizontal = 1;
origin = "{0, 17}";
target = "{0, 29}";
},
{
horizontal = 1;
origin = "{0, 50}";
target = "{1, 5}";
},
{
horizontal = 1;
origin = "{0, 2}";
target = "{0, 11}";
},
{
horizontal = 1;
origin = "{0, 44}";
target = "{0, 38}";
},
{
origin = "{0, 53}";
target = "{1, 2}";
},
{
origin = "{1, 11}";
target = "{0, 32}";
}
);
layerId = "51F41761-070F-43EA-B302-C90910850260";
name = Regular;
paths = (
{
closed = 1;
nodes = (
"411 -6 OFFCURVE",
"466 4 OFFCURVE",
"559 4 CURVE SMOOTH",
"628 4 OFFCURVE",
"698 2 OFFCURVE",
"745 -3 CURVE",
"758 14 OFFCURVE",
"766 68 OFFCURVE",
"766 103 CURVE",
"727 86 OFFCURVE",
"662 76 OFFCURVE",
"604 76 CURVE SMOOTH",
"569.313 76 OFFCURVE",
"530.534 80.092 OFFCURVE",
"502.872 85.461 CURVE",
"501 107 OFFCURVE",
"499 203 OFFCURVE",
"499 233 CURVE",
"578 233 OFFCURVE",
"616 232 OFFCURVE",
"710 226 CURVE",
"713 241 OFFCURVE",
"714 254 OFFCURVE",
"714 266 CURVE SMOOTH",
"714 279 OFFCURVE",
"713 292 OFFCURVE",
"710 305 CURVE",
"673 298 OFFCURVE",
"648 294 OFFCURVE",
"578 294 CURVE SMOOTH",
"553.397 294 OFFCURVE",
"525.378 294.788 OFFCURVE",
"499.734 296.23 CURVE",
"500.726 346.024 OFFCURVE",
"502.657 397.056 OFFCURVE",
"505.086 439.866 CURVE",
"532.035 444.568 OFFCURVE",
"567.234 448 OFFCURVE",
"599 448 CURVE SMOOTH",
"650 448 OFFCURVE",
"707 439 OFFCURVE",
"741 421 CURVE",
"754 438 OFFCURVE",
"762 492 OFFCURVE",
"762 527 CURVE",
"709 522 OFFCURVE",
"631 520 OFFCURVE",
"554 520 CURVE SMOOTH",
"453 520 OFFCURVE",
"407 532 OFFCURVE",
"317 532 CURVE SMOOTH",
"139 532 OFFCURVE",
"40 437 OFFCURVE",
"40 266 CURVE SMOOTH",
"40 105 OFFCURVE",
"161 -6 OFFCURVE",
"337 -6 CURVE SMOOTH"
);
},
{
closed = 1;
nodes = (
"208 61 OFFCURVE",
"142 155 OFFCURVE",
"142 248 CURVE SMOOTH",
"142 400 OFFCURVE",
"214 464 OFFCURVE",
"338 464 CURVE SMOOTH",
"360.322 464 OFFCURVE",
"382.246 460.612 OFFCURVE",
"402.614 454.28 CURVE",
"405.588 415.397 OFFCURVE",
"407 363.77 OFFCURVE",
"407 300 CURVE SMOOTH",
"407 224.931 OFFCURVE",
"404.444 136.061 OFFCURVE",
"400.795 67.376 CURVE",
"357.439 55.626 OFFCURVE",
"315.912 48 OFFCURVE",
"290 48 CURVE"
);
}
);
width = 806;
},
{
anchors = (
{
name = bottom;
position = "{403, 0}";
},
{
name = top;
position = "{403, 527}";
}
);
layerId = "0E844BAD-773F-41FF-B6D6-C35F1E5E991C";
name = Bold;
paths = (
{
closed = 1;
nodes = (
"416 -6 OFFCURVE",
"483 4 OFFCURVE",
"564 4 CURVE SMOOTH",
"636 4 OFFCURVE",
"710 2 OFFCURVE",
"760 -3 CURVE",
"773 19 OFFCURVE",
"781 88 OFFCURVE",
"781 133 CURVE",
"739 116 OFFCURVE",
"670 106 OFFCURVE",
"609 106 CURVE SMOOTH",
"583 106 OFFCURVE",
"556 108 OFFCURVE",
"532 112 CURVE",
"530 145 OFFCURVE",
"529 185 OFFCURVE",
"529 224 CURVE",
"586 224 OFFCURVE",
"630 222 OFFCURVE",
"725 216 CURVE",
"727 233 OFFCURVE",
"729 251 OFFCURVE",
"729 266 CURVE SMOOTH",
"729 282 OFFCURVE",
"727 299 OFFCURVE",
"725 315 CURVE",
"685 308 OFFCURVE",
"658 304 OFFCURVE",
"583 304 CURVE SMOOTH",
"566 304 OFFCURVE",
"548 304 OFFCURVE",
"530 305 CURVE",
"531 341 OFFCURVE",
"532 379 OFFCURVE",
"534 413 CURVE",
"556 416 OFFCURVE",
"581 418 OFFCURVE",
"604 418 CURVE SMOOTH",
"658 418 OFFCURVE",
"719 409 OFFCURVE",
"756 391 CURVE",
"769 411 OFFCURVE",
"777 482 OFFCURVE",
"777 527 CURVE",
"722 522 OFFCURVE",
"639 520 OFFCURVE",
"559 520 CURVE SMOOTH",
"462 520 OFFCURVE",
"412 532 OFFCURVE",
"322 532 CURVE SMOOTH",
"134 532 OFFCURVE",
"30 437 OFFCURVE",
"30 266 CURVE SMOOTH",
"30 105 OFFCURVE",
"157 -6 OFFCURVE",
"342 -6 CURVE SMOOTH"
);
},
{
closed = 1;
nodes = (
"227 81 OFFCURVE",
"172 165 OFFCURVE",
"172 248 CURVE SMOOTH",
"172 386 OFFCURVE",
"235 444 OFFCURVE",
"343 444 CURVE SMOOTH",
"361 444 OFFCURVE",
"378 441 OFFCURVE",
"394 436 CURVE",
"396 400 OFFCURVE",
"397 354 OFFCURVE",
"397 300 CURVE SMOOTH",
"397 232 OFFCURVE",
"395 152 OFFCURVE",
"392 86 CURVE",
"353 75 OFFCURVE",
"318 68 OFFCURVE",
"295 68 CURVE"
);
}
);
width = 806;
}
);
leftKerningGroup = O;
leftMetricsKey = O;
rightKerningGroup = E;
rightMetricsKey = E;
unicode = 0152;
},
{
color = 4;
glyphname = P;
lastChange = "2015-12-28 19:12:02 +0000";
layers = (
{
anchors = (
{
name = bottom;
position = "{244, 0}";
},
{
name = top;
position = "{244, 527}";
}
);
hints = (
{
horizontal = 1;
origin = "{0, 23}";
target = down;
type = TopGhost;
},
{
horizontal = 1;
origin = "{0, 8}";
target = "{1, 14}";
},
{
horizontal = 1;
origin = "{0, 14}";
target = "{1, 8}";
},
{
origin = "{0, 20}";
target = "{1, 2}";
},
{
origin = "{1, 11}";
target = "{0, 11}";
}
);
layerId = "51F41761-070F-43EA-B302-C90910850260";
name = Regular;
paths = (
{
closed = 1;
nodes = (
"145 -6 OFFCURVE",
"165 -4 OFFCURVE",
"184 0 CURVE",
"175 25 OFFCURVE",
"170 81 OFFCURVE",
"169 166 CURVE",
"190 162 OFFCURVE",
"214 160 OFFCURVE",
"238 160 CURVE SMOOTH",
"368 160 OFFCURVE",
"458 240 OFFCURVE",
"458 356 CURVE SMOOTH",
"458 469 OFFCURVE",
"383 532 OFFCURVE",
"248 532 CURVE SMOOTH",
"177 532 OFFCURVE",
"101 521 OFFCURVE",
"60 505 CURVE",
"71 478 OFFCURVE",
"76 408 OFFCURVE",
"76 300 CURVE SMOOTH",
"76 196 OFFCURVE",
"71 66 OFFCURVE",
"65 0 CURVE",
"88 -4 OFFCURVE",
"108 -6 OFFCURVE",
"126 -6 CURVE SMOOTH"
);
},
{
closed = 1;
nodes = (
"250 214 OFFCURVE",
"210 223 OFFCURVE",
"168 236 CURVE",
"168 310 OFFCURVE",
"171 395 OFFCURVE",
"175 457 CURVE",
"192 462 OFFCURVE",
"209 464 OFFCURVE",
"227 464 CURVE SMOOTH",
"309 464 OFFCURVE",
"356 429 OFFCURVE",
"356 348 CURVE SMOOTH",
"356 286 OFFCURVE",
"320 234 OFFCURVE",
"275 214 CURVE"
);
}
);
width = 484;
},
{
anchors = (
{
name = bottom;
position = "{253, 0}";
},
{
name = top;
position = "{253, 527}";
}
);
layerId = "0E844BAD-773F-41FF-B6D6-C35F1E5E991C";
name = Bold;
paths = (
{
closed = 1;
nodes = (
"160 -6 OFFCURVE",
"185 -4 OFFCURVE",
"209 0 CURVE",
"200 24 OFFCURVE",
"195 80 OFFCURVE",
"194 163 CURVE",
"211 161 OFFCURVE",
"229 160 OFFCURVE",
"248 160 CURVE SMOOTH",
"387 160 OFFCURVE",
"483 240 OFFCURVE",
"483 356 CURVE SMOOTH",
"483 469 OFFCURVE",
"403 532 OFFCURVE",
"258 532 CURVE SMOOTH",
"178 532 OFFCURVE",
"91 521 OFFCURVE",
"45 505 CURVE",
"56 477 OFFCURVE",
"61 403 OFFCURVE",
"61 290 CURVE SMOOTH",
"61 189 OFFCURVE",
"56 64 OFFCURVE",
"50 0 CURVE",
"82 -4 OFFCURVE",
"111 -6 OFFCURVE",
"136 -6 CURVE SMOOTH"
);
},
{
closed = 1;
nodes = (
"263 234 OFFCURVE",
"229 241 OFFCURVE",
"193 252 CURVE",
"193 315 OFFCURVE",
"196 384 OFFCURVE",
"199 440 CURVE",
"211 443 OFFCURVE",
"224 444 OFFCURVE",
"237 444 CURVE SMOOTH",
"303 444 OFFCURVE",
"341 415 OFFCURVE",
"341 348 CURVE SMOOTH",
"341 295 OFFCURVE",
"316 254 OFFCURVE",
"285 234 CURVE"
);
}
);
width = 503;
}
);
leftKerningGroup = H;
leftMetricsKey = H;
rightKerningGroup = P;
rightMetricsKey = "=H/2.3";
unicode = 0050;
},
{
color = 4;
glyphname = Thorn;
lastChange = "2015-12-28 19:12:02 +0000";
layers = (
{
anchors = (
{
name = bottom;
position = "{242, 0}";
},
{
name = top;
position = "{242, 527}";
}
);
hints = (
{
horizontal = 1;
origin = "{0, 32}";
target = down;
type = TopGhost;
},
{
horizontal = 1;
origin = "{0, 8}";
target = "{1, 14}";
},
{
horizontal = 1;
origin = "{1, 8}";
target = "{0, 14}";
},
{
horizontal = 1;
origin = "{0, 26}";
target = down;
type = TopGhost;
},
{
origin = "{0, 29}";
target = "{1, 2}";
},
{
origin = "{1, 11}";
target = "{0, 11}";
}
);
layerId = "51F41761-070F-43EA-B302-C90910850260";
name = Regular;
paths = (
{
closed = 1;
nodes = (
"145 -6 OFFCURVE",
"165 -4 OFFCURVE",
"184 0 CURVE",
"178 16 OFFCURVE",
"174 45 OFFCURVE",
"171 86 CURVE",
"192 82 OFFCURVE",
"215 80 OFFCURVE",
"238 80 CURVE SMOOTH",
"368 80 OFFCURVE",
"458 160 OFFCURVE",
"458 276 CURVE SMOOTH",
"458 389 OFFCURVE",
"383 452 OFFCURVE",
"248 452 CURVE SMOOTH",
"223 452 OFFCURVE",
"197 450 OFFCURVE",
"174 446 CURVE",
"175 478 OFFCURVE",
"177 506 OFFCURVE",
"179 527 CURVE",
"156 531 OFFCURVE",
"136 533 OFFCURVE",
"118 533 CURVE SMOOTH",
"99 533 OFFCURVE",
"79 531 OFFCURVE",
"60 527 CURVE",
"71 497 OFFCURVE",
"76 420 OFFCURVE",
"76 300 CURVE SMOOTH",
"76 196 OFFCURVE",
"71 66 OFFCURVE",
"65 0 CURVE",
"88 -4 OFFCURVE",
"108 -6 OFFCURVE",
"126 -6 CURVE SMOOTH"
);
},
{
closed = 1;
nodes = (
"250 134 OFFCURVE",
"210 143 OFFCURVE",
"169 156 CURVE",
"166 183 OFFCURVE",
"167 328 OFFCURVE",
"171 375 CURVE",
"189 381 OFFCURVE",
"208 384 OFFCURVE",
"227 384 CURVE SMOOTH",
"309 384 OFFCURVE",
"356 349 OFFCURVE",
"356 268 CURVE SMOOTH",
"356 206 OFFCURVE",
"320 154 OFFCURVE",
"275 134 CURVE"
);
}
);
width = 484;
},
{
anchors = (
{
name = bottom;
position = "{252, 0}";
},
{
name = top;
position = "{252, 527}";
}
);
layerId = "0E844BAD-773F-41FF-B6D6-C35F1E5E991C";
name = Bold;
paths = (
{
closed = 1;
nodes = (
"160 -6 OFFCURVE",
"185 -4 OFFCURVE",
"209 0 CURVE",
"203 15 OFFCURVE",
"199 42 OFFCURVE",
"197 83 CURVE",
"213 81 OFFCURVE",
"230 80 OFFCURVE",
"248 80 CURVE SMOOTH",
"387 80 OFFCURVE",
"483 160 OFFCURVE",
"483 276 CURVE SMOOTH",
"483 389 OFFCURVE",
"403 452 OFFCURVE",
"258 452 CURVE SMOOTH",
"238 452 OFFCURVE",
"218 451 OFFCURVE",
"199 449 CURVE",
"200 479 OFFCURVE",
"202 506 OFFCURVE",
"204 527 CURVE",
"175 531 OFFCURVE",
"150 533 OFFCURVE",
"128 533 CURVE SMOOTH",
"99 533 OFFCURVE",
"70 531 OFFCURVE",
"45 527 CURVE",
"55 497 OFFCURVE",
"61 413 OFFCURVE",
"61 290 CURVE SMOOTH",
"61 197 OFFCURVE",
"55 74 OFFCURVE",
"50 0 CURVE",
"82 -4 OFFCURVE",
"111 -6 OFFCURVE",
"136 -6 CURVE SMOOTH"
);
},
{
closed = 1;
nodes = (
"263 154 OFFCURVE",
"229 161 OFFCURVE",
"193 172 CURVE",
"191 245 OFFCURVE",
"191 291 OFFCURVE",
"195 359 CURVE",
"209 362 OFFCURVE",
"223 364 OFFCURVE",
"237 364 CURVE SMOOTH",
"303 364 OFFCURVE",
"341 335 OFFCURVE",
"341 268 CURVE SMOOTH",
"341 215 OFFCURVE",
"316 174 OFFCURVE",
"285 154 CURVE"
);
}
);
width = 503;
}
);
leftKerningGroup = H;
leftMetricsKey = H;
rightKerningGroup = Thorn;
rightMetricsKey = "=H/2.3";
unicode = 00DE;
},
{
color = 4;
glyphname = Q;
lastChange = "2015-12-28 19:12:02 +0000";
layers = (
{
background = {
paths = (
{
closed = 1;
nodes = (
"275 10 LINE",
"275 -74 OFFCURVE",
"354 -134 OFFCURVE",
"465 -134 CURVE SMOOTH",
"487 -134 OFFCURVE",
"506 -132 OFFCURVE",
"526 -127 CURVE",
"527 -117 OFFCURVE",
"528 -106 OFFCURVE",
"528 -98 CURVE SMOOTH",
"528 -70 OFFCURVE",
"524 -47 OFFCURVE",
"515 -31 CURVE",
"459 -62 OFFCURVE",
"421 -77 OFFCURVE",
"399 -77 CURVE",
"361 -62 OFFCURVE",
"341 -34 OFFCURVE",
"341 3 CURVE"
);
}
);
};
components = (
{
name = O;
}
);
layerId = "51F41761-070F-43EA-B302-C90910850260";
name = Regular;
paths = (
{
closed = 1;
nodes = (
"403 -134 OFFCURVE",
"441 -129 OFFCURVE",
"478 -113 CURVE",
"443 -90 OFFCURVE",
"397 -38 OFFCURVE",
"348 25 CURVE",
"259 25 LINE",
"305 -47 OFFCURVE",
"340 -105 OFFCURVE",
"355 -134 CURVE"
);
}
);
width = 611;
},
{
components = (
{
name = O;
}
);
layerId = "0E844BAD-773F-41FF-B6D6-C35F1E5E991C";
name = Bold;
paths = (
{
closed = 1;
nodes = (
"399 -134 OFFCURVE",
"449 -129 OFFCURVE",
"498 -113 CURVE",
"463 -90 OFFCURVE",
"417 -38 OFFCURVE",
"368 25 CURVE",
"239 25 LINE",
"285 -47 OFFCURVE",
"320 -105 OFFCURVE",
"335 -134 CURVE"
);
}
);
width = 611;
}
);
leftKerningGroup = O;
leftMetricsKey = O;
rightKerningGroup = O;
rightMetricsKey = O;
unicode = 0051;
},
{
color = 4;
glyphname = R;
lastChange = "2015-12-28 19:12:02 +0000";
layers = (
{
anchors = (
{
name = bottom;
position = "{252, 0}";
},
{
name = top;
position = "{252, 527}";
}
);
hints = (
{
horizontal = 1;
origin = "{0, 35}";
target = up;
type = BottomGhost;
},
{
horizontal = 1;
origin = "{0, 8}";
target = "{1, 14}";
},
{
horizontal = 1;
origin = "{0, 23}";
target = "{1, 8}";
},
{
horizontal = 1;
origin = "{0, 32}";
target = down;
type = TopGhost;
},
{
origin = "{0, 29}";
target = "{1, 2}";
},
{
origin = "{0, 17}";
target = "{0, 20}";
}
);
layerId = "51F41761-070F-43EA-B302-C90910850260";
name = Regular;
paths = (
{
closed = 1;
nodes = (
"145 -6 OFFCURVE",
"165 -4 OFFCURVE",
"184 0 CURVE",
"175 27 OFFCURVE",
"169 90 OFFCURVE",
"168 187 CURVE",
"191 182 OFFCURVE",
"241 178 OFFCURVE",
"261 181 CURVE",
"307 95 OFFCURVE",
"341 27 OFFCURVE",
"354 -6 CURVE",
"402 -6 OFFCURVE",
"440 -1 OFFCURVE",
"480 15 CURVE",
"444 44 OFFCURVE",
"400 119 OFFCURVE",
"357 204 CURVE",
"420 234 OFFCURVE",
"458 288 OFFCURVE",
"458 356 CURVE SMOOTH",
"458 469 OFFCURVE",
"383 532 OFFCURVE",
"248 532 CURVE SMOOTH",
"177 532 OFFCURVE",
"101 521 OFFCURVE",
"60 505 CURVE",
"71 478 OFFCURVE",
"76 408 OFFCURVE",
"76 300 CURVE SMOOTH",
"76 206 OFFCURVE",
"71 66 OFFCURVE",
"65 0 CURVE",
"88 -4 OFFCURVE",
"108 -6 OFFCURVE",
"126 -6 CURVE SMOOTH"
);
},
{
closed = 1;
nodes = (
"250 234 OFFCURVE",
"209 244 OFFCURVE",
"168 258 CURVE",
"169 326 OFFCURVE",
"171 401 OFFCURVE",
"175 457 CURVE",
"192 462 OFFCURVE",
"209 464 OFFCURVE",
"227 464 CURVE SMOOTH",
"309 464 OFFCURVE",
"356 429 OFFCURVE",
"356 348 CURVE SMOOTH",
"356 295 OFFCURVE",
"320 254 OFFCURVE",
"275 234 CURVE"
);
}
);
width = 505;
},
{
anchors = (
{
name = bottom;
position = "{263, 0}";
},
{
name = top;
position = "{263, 527}";
}
);
layerId = "0E844BAD-773F-41FF-B6D6-C35F1E5E991C";
name = Bold;
paths = (
{
closed = 1;
nodes = (
"160 -6 OFFCURVE",
"185 -4 OFFCURVE",
"209 0 CURVE",
"200 26 OFFCURVE",
"195 88 OFFCURVE",
"193 183 CURVE",
"212 181 OFFCURVE",
"229 180 OFFCURVE",
"253 180 CURVE",
"298 95 OFFCURVE",
"330 28 OFFCURVE",
"344 -6 CURVE",
"407 -6 OFFCURVE",
"458 -1 OFFCURVE",
"510 15 CURVE",
"474 46 OFFCURVE",
"429 121 OFFCURVE",
"385 209 CURVE",
"446 240 OFFCURVE",
"483 292 OFFCURVE",
"483 356 CURVE SMOOTH",
"483 469 OFFCURVE",
"403 532 OFFCURVE",
"258 532 CURVE SMOOTH",
"178 532 OFFCURVE",
"91 521 OFFCURVE",
"45 505 CURVE",
"56 477 OFFCURVE",
"61 403 OFFCURVE",
"61 290 CURVE SMOOTH",
"61 189 OFFCURVE",
"56 64 OFFCURVE",
"50 0 CURVE",
"82 -4 OFFCURVE",
"111 -6 OFFCURVE",
"136 -6 CURVE SMOOTH"
);
},
{
closed = 1;
nodes = (
"263 254 OFFCURVE",
"229 261 OFFCURVE",
"193 272 CURVE",
"194 329 OFFCURVE",
"196 390 OFFCURVE",
"199 440 CURVE",
"211 443 OFFCURVE",
"224 444 OFFCURVE",
"237 444 CURVE SMOOTH",
"303 444 OFFCURVE",
"341 415 OFFCURVE",
"341 348 CURVE SMOOTH",
"341 304 OFFCURVE",
"316 274 OFFCURVE",
"285 254 CURVE"
);
}
);
width = 520;
}
);
leftKerningGroup = H;
leftMetricsKey = H;
rightKerningGroup = R;
unicode = 0052;
},
{
color = 4;
glyphname = S;
lastChange = "2015-12-28 19:12:02 +0000";
layers = (
{
anchors = (
{
name = bottom;
position = "{216, 0}";
},
{
name = top;
position = "{216, 527}";
}
);
hints = (
{
origin = "{0, 20}";
target = "{0, 5}";
},
{
origin = "{0, 23}";
target = "{0, 2}";
},
{
horizontal = 1;
origin = "{0, 35}";
target = "{0, 26}";
},
{
horizontal = 1;
origin = "{0, 17}";
target = "{0, 8}";
}
);
layerId = "51F41761-070F-43EA-B302-C90910850260";
name = Regular;
paths = (
{
closed = 1;
nodes = (
"349 -11 OFFCURVE",
"415 44 OFFCURVE",
"415 138 CURVE SMOOTH",
"415 304 OFFCURVE",
"144 299 OFFCURVE",
"144 412 CURVE SMOOTH",
"144 451 OFFCURVE",
"178 475 OFFCURVE",
"201 480 CURVE",
"241 480 OFFCURVE",
"307 448 OFFCURVE",
"362 408 CURVE",
"378 431 OFFCURVE",
"392 478 OFFCURVE",
"392 509 CURVE",
"352 525 OFFCURVE",
"302 533 OFFCURVE",
"246 533 CURVE SMOOTH",
"121 533 OFFCURVE",
"42 478 OFFCURVE",
"42 399 CURVE SMOOTH",
"42 231 OFFCURVE",
"314 230 OFFCURVE",
"314 124 CURVE SMOOTH",
"314 76 OFFCURVE",
"276 47 OFFCURVE",
"206 47 CURVE SMOOTH",
"143 47 OFFCURVE",
"85 66 OFFCURVE",
"53 98 CURVE",
"41 75 OFFCURVE",
"36 55 OFFCURVE",
"36 25 CURVE",
"82 3 OFFCURVE",
"142 -11 OFFCURVE",
"213 -11 CURVE SMOOTH"
);
}
);
width = 451;
},
{
anchors = (
{
name = bottom;
position = "{234, 0}";
},
{
name = top;
position = "{234, 527}";
}
);
background = {
paths = (
{
closed = 0;
nodes = (
"229 450 LINE",
"263 450 OFFCURVE",
"327 415 OFFCURVE",
"377 369 CURVE",
"401 390 OFFCURVE",
"427 463 OFFCURVE",
"427 510 CURVE",
"390 526 OFFCURVE",
"338 534 OFFCURVE",
"276 534 CURVE SMOOTH"
);
}
);
};
layerId = "0E844BAD-773F-41FF-B6D6-C35F1E5E991C";
name = Bold;
paths = (
{
closed = 1;
nodes = (
"370 -11 OFFCURVE",
"443 46 OFFCURVE",
"443 143 CURVE SMOOTH",
"443 323 OFFCURVE",
"172 317 OFFCURVE",
"172 405 CURVE SMOOTH",
"172 431 OFFCURVE",
"192 446 OFFCURVE",
"209 450 CURVE",
"254 450 OFFCURVE",
"322 414 OFFCURVE",
"380 368 CURVE",
"405 400 OFFCURVE",
"427 466 OFFCURVE",
"427 509 CURVE",
"380 525 OFFCURVE",
"320 533 OFFCURVE",
"254 533 CURVE SMOOTH",
"117 533 OFFCURVE",
"30 469 OFFCURVE",
"30 377 CURVE SMOOTH",
"30 204 OFFCURVE",
"301 199 OFFCURVE",
"301 119 CURVE SMOOTH",
"301 86 OFFCURVE",
"270 67 OFFCURVE",
"214 67 CURVE SMOOTH",
"144 67 OFFCURVE",
"79 86 OFFCURVE",
"44 118 CURVE",
"32 89 OFFCURVE",
"27 63 OFFCURVE",
"27 25 CURVE",
"77 3 OFFCURVE",
"143 -11 OFFCURVE",
"221 -11 CURVE SMOOTH"
);
}
);
width = 470;
}
);
leftKerningGroup = S;
leftMetricsKey = "=H*.6";
rightKerningGroup = S;
rightMetricsKey = "=H*.6";
unicode = 0053;
},
{
color = 4;
glyphname = T;
lastChange = "2015-12-28 19:12:02 +0000";
layers = (
{
anchors = (
{
name = bottom;
position = "{223, 0}";
},
{
name = center;
position = "{223, 264}";
},
{
name = top;
position = "{223, 527}";
}
);
background = {
paths = (
{
closed = 1;
nodes = (
"2 486 OFFCURVE",
"10 436 OFFCURVE",
"18 421 CURVE",
"58 438 OFFCURVE",
"100 445 OFFCURVE",
"125 445 CURVE SMOOTH",
"156 445 OFFCURVE",
"179 441 OFFCURVE",
"192 437 CURVE",
"255 437 LINE",
"268 441 OFFCURVE",
"292 445 OFFCURVE",
"323 445 CURVE SMOOTH",
"347 445 OFFCURVE",
"390 438 OFFCURVE",
"429 421 CURVE",
"438 436 OFFCURVE",
"445 486 OFFCURVE",
"445 527 CURVE",
"353 519 OFFCURVE",
"95 519 OFFCURVE",
"2 527 CURVE"
);
}
);
};
hints = (
{
horizontal = 1;
place = "{445.150000, 76.190000}";
},
{
origin = "{0, 35}";
target = "{0, 5}";
}
);
layerId = "51F41761-070F-43EA-B302-C90910850260";
name = Regular;
paths = (
{
closed = 1;
nodes = (
"246 -6 OFFCURVE",
"266 -4 OFFCURVE",
"285 0 CURVE",
"274 30 OFFCURVE",
"269 106 OFFCURVE",
"269 227 CURVE SMOOTH",
"269 297 OFFCURVE",
"272 380 OFFCURVE",
"275 444 CURVE",
"336 442 OFFCURVE",
"395 439 OFFCURVE",
"431 436 CURVE",
"434 454 OFFCURVE",
"436 470 OFFCURVE",
"436 484 CURVE SMOOTH",
"436 499 OFFCURVE",
"434 515 OFFCURVE",
"431 530 CURVE",
"407 521 OFFCURVE",
"347 517 OFFCURVE",
"252 517 CURVE SMOOTH",
"169 517 OFFCURVE",
"67 521 OFFCURVE",
"15 526 CURVE",
"12 508 OFFCURVE",
"10 492 OFFCURVE",
"10 478 CURVE SMOOTH",
"10 463 OFFCURVE",
"12 447 OFFCURVE",
"15 432 CURVE",
"37 439 OFFCURVE",
"89 444 OFFCURVE",
"172 445 CURVE",
"175 409 OFFCURVE",
"177 361 OFFCURVE",
"177 300 CURVE SMOOTH",
"177 196 OFFCURVE",
"172 66 OFFCURVE",
"166 0 CURVE",
"189 -4 OFFCURVE",
"209 -6 OFFCURVE",
"227 -6 CURVE SMOOTH"
);
}
);
width = 446;
},
{
anchors = (
{
name = bottom;
position = "{228, 0}";
},
{
name = center;
position = "{228, 264}";
},
{
name = top;
position = "{228, 527}";
}
);
layerId = "0E844BAD-773F-41FF-B6D6-C35F1E5E991C";
name = Bold;
paths = (
{
closed = 1;
nodes = (
"265 -6 OFFCURVE",
"294 -4 OFFCURVE",
"310 0 CURVE",
"299 29 OFFCURVE",
"294 101 OFFCURVE",
"294 227 CURVE SMOOTH",
"294 284 OFFCURVE",
"296 353 OFFCURVE",
"299 413 CURVE",
"356 412 OFFCURVE",
"411 409 OFFCURVE",
"446 406 CURVE",
"449 424 OFFCURVE",
"451 448 OFFCURVE",
"451 469 CURVE SMOOTH",
"451 488 OFFCURVE",
"449 507 OFFCURVE",
"446 530 CURVE",
"422 521 OFFCURVE",
"362 517 OFFCURVE",
"257 517 CURVE SMOOTH",
"173 517 OFFCURVE",
"66 521 OFFCURVE",
"10 526 CURVE",
"7 508 OFFCURVE",
"5 491 OFFCURVE",
"5 473 CURVE SMOOTH",
"5 451 OFFCURVE",
"7 429 OFFCURVE",
"10 402 CURVE",
"31 410 OFFCURVE",
"79 414 OFFCURVE",
"160 415 CURVE",
"161 384 OFFCURVE",
"162 346 OFFCURVE",
"162 300 CURVE SMOOTH",
"162 202 OFFCURVE",
"157 70 OFFCURVE",
"151 0 CURVE",
"184 -4 OFFCURVE",
"210 -6 OFFCURVE",
"232 -6 CURVE SMOOTH"
);
}
);
width = 456;
}
);
leftKerningGroup = T;
rightKerningGroup = T;
unicode = 0054;
},
{
color = 4;
glyphname = U;
lastChange = "2015-12-28 19:12:02 +0000";
layers = (
{
anchors = (
{
name = bottom;
position = "{265, 0}";
},
{
name = ogonek;
position = "{359, 11}";
},
{
name = top;
position = "{285, 527}";
},
{
name = topright;
position = "{510, 527}";
}
);
hints = (
{
horizontal = 1;
origin = "{0, 35}";
target = "{0, 17}";
},
{
horizontal = 1;
origin = "{0, 29}";
target = down;
type = TopGhost;
},
{
origin = "{0, 32}";
target = "{0, 20}";
},
{
origin = "{0, 14}";
target = "{0, 2}";
}
);
layerId = "51F41761-070F-43EA-B302-C90910850260";
name = Regular;
paths = (
{
closed = 1;
nodes = (
"427 -5 OFFCURVE",
"472 98 OFFCURVE",
"472 205 CURVE SMOOTH",
"472 305 OFFCURVE",
"476 453 OFFCURVE",
"480 527 CURVE",
"464 531 OFFCURVE",
"450 533 OFFCURVE",
"438 533 CURVE SMOOTH",
"425 533 OFFCURVE",
"411 531 OFFCURVE",
"398 527 CURVE",
"404 482 OFFCURVE",
"406 317 OFFCURVE",
"406 187 CURVE SMOOTH",
"406 123 OFFCURVE",
"380 65 OFFCURVE",
"281 65 CURVE SMOOTH",
"207 65 OFFCURVE",
"163 105 OFFCURVE",
"163 200 CURVE SMOOTH",
"163 313 OFFCURVE",
"166 455 OFFCURVE",
"169 527 CURVE",
"146 531 OFFCURVE",
"126 533 OFFCURVE",
"108 533 CURVE SMOOTH",
"89 533 OFFCURVE",
"69 531 OFFCURVE",
"50 527 CURVE",
"61 484 OFFCURVE",
"66 323 OFFCURVE",
"66 200 CURVE SMOOTH",
"66 69 OFFCURVE",
"138 -5 OFFCURVE",
"261 -5 CURVE SMOOTH"
);
}
);
width = 530;
},
{
anchors = (
{
name = bottom;
position = "{268, 0}";
},
{
name = ogonek;
position = "{373, 11}";
},
{
name = top;
position = "{288, 527}";
},
{
name = topright;
position = "{515, 527}";
}
);
layerId = "0E844BAD-773F-41FF-B6D6-C35F1E5E991C";
name = Bold;
paths = (
{
closed = 1;
nodes = (
"445 -5 OFFCURVE",
"492 98 OFFCURVE",
"492 205 CURVE SMOOTH",
"492 305 OFFCURVE",
"496 453 OFFCURVE",
"500 527 CURVE",
"480 531 OFFCURVE",
"463 533 OFFCURVE",
"448 533 CURVE SMOOTH",
"432 533 OFFCURVE",
"414 531 OFFCURVE",
"398 527 CURVE",
"404 485 OFFCURVE",
"406 329 OFFCURVE",
"406 207 CURVE SMOOTH",
"406 148 OFFCURVE",
"382 95 OFFCURVE",
"291 95 CURVE SMOOTH",
"226 95 OFFCURVE",
"188 132 OFFCURVE",
"188 220 CURVE SMOOTH",
"188 326 OFFCURVE",
"191 459 OFFCURVE",
"194 527 CURVE",
"165 531 OFFCURVE",
"140 533 OFFCURVE",
"118 533 CURVE SMOOTH",
"91 533 OFFCURVE",
"62 531 OFFCURVE",
"35 527 CURVE",
"46 484 OFFCURVE",
"51 323 OFFCURVE",
"51 200 CURVE SMOOTH",
"51 69 OFFCURVE",
"132 -5 OFFCURVE",
"271 -5 CURVE SMOOTH"
);
}
);
width = 535;
}
);
leftKerningGroup = U;
leftMetricsKey = "=H-10";
rightKerningGroup = U;
rightMetricsKey = "=H-10";
unicode = 0055;
},
{
color = 4;
glyphname = V;
lastChange = "2015-12-28 19:12:02 +0000";
layers = (
{
anchors = (
{
name = bottom;
position = "{247, 0}";
},
{
name = top;
position = "{247, 527}";
}
);
background = {
paths = (
{
closed = 1;
nodes = (
"131.443 277.224 OFFCURVE",
"138.223 -9 OFFCURVE",
"255.707 -9 CURVE",
"325.336 27 LINE",
"366.257 167.589 OFFCURVE",
"443.854 408.801 OFFCURVE",
"488.113 533 CURVE",
"451.568 533 OFFCURVE",
"424.578 529.814 OFFCURVE",
"394.921 522 CURVE",
"408 484 OFFCURVE",
"368 334 OFFCURVE",
"261 19 CURVE",
"287 61 LINE",
"267 91 OFFCURVE",
"241 149 OFFCURVE",
"202.625 260.146 CURVE SMOOTH",
"174.597 350.023 OFFCURVE",
"143.601 470.525 OFFCURVE",
"134.367 532.745 CURVE",
"82.542 532.745 OFFCURVE",
"43.818 526.459 OFFCURVE",
"5 511.745 CURVE"
);
}
);
};
hints = (
{
horizontal = 1;
origin = "{0, 21}";
target = up;
type = BottomGhost;
},
{
horizontal = 1;
origin = "{0, 15}";
target = down;
type = TopGhost;
}
);
layerId = "51F41761-070F-43EA-B302-C90910850260";
name = Regular;
paths = (
{
closed = 1;
nodes = (
"325 27 LINE",
"366 168 OFFCURVE",
"444 409 OFFCURVE",
"488 533 CURVE",
"452 533 OFFCURVE",
"425 530 OFFCURVE",
"395 522 CURVE",
"407 488 OFFCURVE",
"372 353 OFFCURVE",
"279 74 CURVE",
"260 106 OFFCURVE",
"236 163 OFFCURVE",
"203 260 CURVE SMOOTH",
"175 350 OFFCURVE",
"144 471 OFFCURVE",
"134 533 CURVE",
"83 533 OFFCURVE",
"44 526 OFFCURVE",
"5 512 CURVE",
"127 277 OFFCURVE",
"145 -9 OFFCURVE",
"256 -9 CURVE"
);
}
);
width = 493.113;
},
{
anchors = (
{
name = bottom;
position = "{269, 0}";
},
{
name = top;
position = "{269, 527}";
}
);
background = {
paths = (
{
closed = 1;
nodes = (
"131 277 OFFCURVE",
"138 -9 OFFCURVE",
"256 -9 CURVE",
"370 27 LINE",
"411 168 OFFCURVE",
"489 409 OFFCURVE",
"533 533 CURVE",
"489 533 OFFCURVE",
"456 530 OFFCURVE",
"420 522 CURVE",
"433 485 OFFCURVE",
"394 340 OFFCURVE",
"292 40 CURVE",
"320 79 LINE",
"300 113 OFFCURVE",
"275 167 OFFCURVE",
"243 260 CURVE SMOOTH",
"212 350 OFFCURVE",
"184 471 OFFCURVE",
"174 533 CURVE",
"107 533 OFFCURVE",
"56 526 OFFCURVE",
"5 512 CURVE"
);
}
);
};
layerId = "0E844BAD-773F-41FF-B6D6-C35F1E5E991C";
name = Bold;
paths = (
{
closed = 1;
nodes = (
"370 27 LINE",
"411 168 OFFCURVE",
"489 409 OFFCURVE",
"533 533 CURVE",
"489 533 OFFCURVE",
"456 530 OFFCURVE",
"420 522 CURVE",
"432 489 OFFCURVE",
"398 360 OFFCURVE",
"311 96 CURVE",
"292 130 OFFCURVE",
"270 181 OFFCURVE",
"243 260 CURVE SMOOTH",
"212 350 OFFCURVE",
"184 471 OFFCURVE",
"174 533 CURVE",
"107 533 OFFCURVE",
"56 526 OFFCURVE",
"5 512 CURVE",
"138 237 OFFCURVE",
"151 -9 OFFCURVE",
"256 -9 CURVE"
);
}
);
width = 538;
}
);
leftKerningGroup = V;
rightKerningGroup = V;
unicode = 0056;
},
{
color = 4;
glyphname = W;
lastChange = "2015-12-28 19:12:02 +0000";
layers = (
{
anchors = (
{
name = bottom;
position = "{394, 0}";
},
{
name = top;
position = "{394, 527}";
}
);
background = {
paths = (
{
closed = 1;
nodes = (
"310 27 LINE",
"282 37 OFFCURVE",
"255 70 OFFCURVE",
"195 259 CURVE SMOOTH",
"170 349 OFFCURVE",
"143 470 OFFCURVE",
"136 533 CURVE",
"84 533 OFFCURVE",
"46 526 OFFCURVE",
"6 512 CURVE",
"124 277 OFFCURVE",
"121 -9 OFFCURVE",
"239 -9 CURVE"
);
},
{
closed = 1;
nodes = (
"310 27 LINE",
"346 166 OFFCURVE",
"416 409 OFFCURVE",
"455 533 CURVE",
"419 533 OFFCURVE",
"392 530 OFFCURVE",
"363 522 CURVE",
"377 484 OFFCURVE",
"343 336 OFFCURVE",
"248 27 CURVE"
);
},
{
closed = 1;
nodes = (
"629 27 LINE",
"601 37 OFFCURVE",
"574 70 OFFCURVE",
"514 259 CURVE SMOOTH",
"489 349 OFFCURVE",
"462 471 OFFCURVE",
"455 533 CURVE",
"403 533 OFFCURVE",
"365 526 OFFCURVE",
"325 512 CURVE",
"443 277 OFFCURVE",
"440 -9 OFFCURVE",
"558 -9 CURVE"
);
},
{
closed = 1;
nodes = (
"629 27 LINE",
"665 166 OFFCURVE",
"735 409 OFFCURVE",
"774 533 CURVE",
"738 533 OFFCURVE",
"711 530 OFFCURVE",
"682 522 CURVE",
"696 484 OFFCURVE",
"662 336 OFFCURVE",
"567 27 CURVE"
);
}
);
};
hints = (
{
horizontal = 1;
place = "{702.000000, -20.000000}";
target = down;
type = TopGhost;
},
{
horizontal = 1;
place = "{46.000000, 21.000000}";
target = up;
type = BottomGhost;
}
);
layerId = "51F41761-070F-43EA-B302-C90910850260";
name = Regular;
paths = (
{
closed = 1;
nodes = (
"288 27 LINE",
"315 113 OFFCURVE",
"355 237 OFFCURVE",
"393 348 CURVE",
"452 162 OFFCURVE",
"476 -9 OFFCURVE",
"562 -9 CURVE",
"612 27 LINE",
"655 168 OFFCURVE",
"735 409 OFFCURVE",
"783 533 CURVE",
"747 533 OFFCURVE",
"720 530 OFFCURVE",
"690 522 CURVE",
"700 488 OFFCURVE",
"663 361 OFFCURVE",
"576 97 CURVE",
"561 131 OFFCURVE",
"542 183 OFFCURVE",
"518 260 CURVE",
"494 350 OFFCURVE",
"467 471 OFFCURVE",
"459 533 CURVE",
"418 533 OFFCURVE",
"371 527 OFFCURVE",
"329 512 CURVE",
"358 446 LINE",
"342 377 OFFCURVE",
"308 265 OFFCURVE",
"252 97 CURVE",
"237 131 OFFCURVE",
"218 183 OFFCURVE",
"194 260 CURVE SMOOTH",
"169 350 OFFCURVE",
"142 471 OFFCURVE",
"135 533 CURVE",
"84 533 OFFCURVE",
"45 526 OFFCURVE",
"5 512 CURVE",
"119 277 OFFCURVE",
"127 -9 OFFCURVE",
"238 -9 CURVE"
);
}
);
width = 788;
},
{
anchors = (
{
name = bottom;
position = "{411, 0}";
},
{
name = top;
position = "{411, 527}";
}
);
layerId = "0E844BAD-773F-41FF-B6D6-C35F1E5E991C";
name = Bold;
paths = (
{
closed = 1;
nodes = (
"333 27 LINE",
"353 96 OFFCURVE",
"382 188 OFFCURVE",
"411 279 CURVE",
"461 112 OFFCURVE",
"485 -9 OFFCURVE",
"559 -9 CURVE",
"654 27 LINE",
"695 168 OFFCURVE",
"773 409 OFFCURVE",
"817 533 CURVE",
"773 533 OFFCURVE",
"740 530 OFFCURVE",
"704 522 CURVE",
"715 490 OFFCURVE",
"685 370 OFFCURVE",
"604 124 CURVE",
"590 157 OFFCURVE",
"574 200 OFFCURVE",
"555 260 CURVE SMOOTH",
"533 333 OFFCURVE",
"506 458 OFFCURVE",
"495 533 CURVE",
"432 533 OFFCURVE",
"383 528 OFFCURVE",
"326 512 CURVE",
"369 407 LINE",
"352 342 OFFCURVE",
"324 249 OFFCURVE",
"283 124 CURVE",
"269 157 OFFCURVE",
"253 200 OFFCURVE",
"234 260 CURVE SMOOTH",
"207 350 OFFCURVE",
"183 471 OFFCURVE",
"175 533 CURVE",
"108 533 OFFCURVE",
"57 526 OFFCURVE",
"5 512 CURVE",
"129 237 OFFCURVE",
"133 -9 OFFCURVE",
"238 -9 CURVE"
);
}
);
width = 822;
}
);
leftKerningGroup = W;
rightKerningGroup = W;
unicode = 0057;
},
{
color = 4;
glyphname = X;
lastChange = "2015-12-28 19:14:23 +0000";
layers = (
{
background = {
paths = (
{
closed = 1;
nodes = (
"387 488 OFFCURVE",
"342 435 OFFCURVE",
"117 194 CURVE",
"178 189 LINE",
"264 289 OFFCURVE",
"395 436 OFFCURVE",
"495 533 CURVE",
"460 533 OFFCURVE",
"428 531 OFFCURVE",
"387 522 CURVE"
);
},
{
closed = 1;
nodes = (
"63 474 OFFCURVE",
"136 374 OFFCURVE",
"209 263 CURVE",
"207 261 LINE",
"217 247 OFFCURVE",
"227 233 OFFCURVE",
"237 219 CURVE",
"250 198 LINE",
"251 199 LINE",
"317 105 OFFCURVE",
"366 31 OFFCURVE",
"388 -6 CURVE",
"438 -6 OFFCURVE",
"477 -1 OFFCURVE",
"516 15 CURVE",
"465 52 OFFCURVE",
"391 153 OFFCURVE",
"319 264 CURVE",
"321 266 LINE",
"311 281 OFFCURVE",
"301 295 OFFCURVE",
"291 309 CURVE",
"278 329 LINE",
"277 328 LINE",
"211 421 OFFCURVE",
"161 496 OFFCURVE",
"140 533 CURVE",
"90 533 OFFCURVE",
"50 528 OFFCURVE",
"12 512 CURVE"
);
}
);
};
hints = (
{
horizontal = 1;
place = "{61.000000, 21.000000}";
target = up;
type = BottomGhost;
},
{
horizontal = 1;
place = "{702.000000, -20.000000}";
target = down;
type = TopGhost;
}
);
layerId = "51F41761-070F-43EA-B302-C90910850260";
name = Regular;
paths = (
{
closed = 1;
nodes = (
"37 -6 OFFCURVE",
"69 -5 OFFCURVE",
"110 0 CURVE",
"116 26 OFFCURVE",
"155 92 OFFCURVE",
"245 205 CURVE",
"313 105 OFFCURVE",
"370 14 OFFCURVE",
"379 -6 CURVE",
"429 -6 OFFCURVE",
"468 -1 OFFCURVE",
"507 15 CURVE",
"482 34 OFFCURVE",
"392 160 OFFCURVE",
"308 283 CURVE",
"366 359 OFFCURVE",
"448 463 OFFCURVE",
"513 533 CURVE",
"476 533 OFFCURVE",
"444 532 OFFCURVE",
"403 527 CURVE",
"397 501 OFFCURVE",
"361 439 OFFCURVE",
"276 332 CURVE",
"211 428 OFFCURVE",
"157 514 OFFCURVE",
"149 533 CURVE",
"99 533 OFFCURVE",
"59 528 OFFCURVE",
"21 512 CURVE",
"46 493 OFFCURVE",
"131 374 OFFCURVE",
"212 254 CURVE",
"154 177 OFFCURVE",
"68 67 OFFCURVE",
"0 -6 CURVE"
);
}
);
width = 513;
},
{
layerId = "0E844BAD-773F-41FF-B6D6-C35F1E5E991C";
name = Bold;
paths = (
{
closed = 1;
nodes = (
"39 -6 OFFCURVE",
"77 -5 OFFCURVE",
"125 0 CURVE",
"131 25 OFFCURVE",
"165 84 OFFCURVE",
"244 185 CURVE",
"305 93 OFFCURVE",
"356 13 OFFCURVE",
"364 -6 CURVE",
"430 -6 OFFCURVE",
"481 -1 OFFCURVE",
"532 15 CURVE",
"506 35 OFFCURVE",
"413 165 OFFCURVE",
"329 290 CURVE",
"386 366 OFFCURVE",
"465 465 OFFCURVE",
"528 533 CURVE",
"484 533 OFFCURVE",
"446 532 OFFCURVE",
"398 527 CURVE",
"392 503 OFFCURVE",
"360 447 OFFCURVE",
"287 352 CURVE",
"229 440 OFFCURVE",
"182 515 OFFCURVE",
"174 533 CURVE",
"108 533 OFFCURVE",
"56 528 OFFCURVE",
"6 512 CURVE",
"31 493 OFFCURVE",
"119 369 OFFCURVE",
"202 247 CURVE",
"144 171 OFFCURVE",
"61 65 OFFCURVE",
"-5 -6 CURVE"
);
}
);
width = 527;
}
);
leftKerningGroup = X;
rightKerningGroup = X;
unicode = 0058;
},
{
color = 4;
glyphname = Y;
lastChange = "2015-12-28 19:12:02 +0000";
layers = (
{
anchors = (
{
name = bottom;
position = "{236, 0}";
},
{
name = top;
position = "{256, 527}";
},
{
name = topleft;
position = "{20, 527}";
}
);
hints = (
{
horizontal = 1;
origin = "{0, 26}";
target = down;
type = TopGhost;
},
{
horizontal = 1;
origin = "{0, 17}";
target = down;
type = TopGhost;
},
{
origin = "{0, 23}";
target = "{0, 5}";
}
);
layerId = "51F41761-070F-43EA-B302-C90910850260";
name = Regular;
paths = (
{
closed = 1;
nodes = (
"260 -6 OFFCURVE",
"280 -4 OFFCURVE",
"299 0 CURVE",
"288 25 OFFCURVE",
"283 88 OFFCURVE",
"283 188 CURVE",
"328 288 OFFCURVE",
"399 436 OFFCURVE",
"466 533 CURVE",
"429 533 OFFCURVE",
"399 532 OFFCURVE",
"358 527 CURVE",
"356 493 OFFCURVE",
"327 410 OFFCURVE",
"255 271 CURVE",
"189 393 OFFCURVE",
"142 509 OFFCURVE",
"135 533 CURVE",
"85 533 OFFCURVE",
"44 528 OFFCURVE",
"5 512 CURVE",
"30 488 OFFCURVE",
"124 335 OFFCURVE",
"190 187 CURVE",
"189 116 OFFCURVE",
"185 42 OFFCURVE",
"180 0 CURVE",
"203 -4 OFFCURVE",
"223 -6 OFFCURVE",
"241 -6 CURVE SMOOTH"
);
}
);
width = 471;
},
{
anchors = (
{
name = bottom;
position = "{256, 0}";
},
{
name = top;
position = "{276, 527}";
},
{
name = topleft;
position = "{20, 527}";
}
);
layerId = "0E844BAD-773F-41FF-B6D6-C35F1E5E991C";
name = Bold;
paths = (
{
closed = 1;
nodes = (
"290 -6 OFFCURVE",
"315 -4 OFFCURVE",
"339 0 CURVE",
"328 25 OFFCURVE",
"323 88 OFFCURVE",
"323 188 CURVE",
"368 288 OFFCURVE",
"439 436 OFFCURVE",
"506 533 CURVE",
"462 533 OFFCURVE",
"427 532 OFFCURVE",
"378 527 CURVE",
"376 495 OFFCURVE",
"350 418 OFFCURVE",
"285 291 CURVE",
"224 405 OFFCURVE",
"182 510 OFFCURVE",
"175 533 CURVE",
"110 533 OFFCURVE",
"56 528 OFFCURVE",
"5 512 CURVE",
"30 488 OFFCURVE",
"124 335 OFFCURVE",
"190 187 CURVE",
"189 116 OFFCURVE",
"185 42 OFFCURVE",
"180 0 CURVE",
"212 -4 OFFCURVE",
"241 -6 OFFCURVE",
"266 -6 CURVE SMOOTH"
);
}
);
width = 511;
}
);
leftKerningGroup = Y;
rightKerningGroup = Y;
unicode = 0059;
},
{
color = 4;
glyphname = Z;
lastChange = "2015-12-28 19:12:02 +0000";
layers = (
{
anchors = (
{
name = bottom;
position = "{223, 0}";
},
{
name = top;
position = "{223, 527}";
}
);
hints = (
{
horizontal = 1;
origin = "{0, 36}";
target = "{0, 5}";
},
{
horizontal = 1;
origin = "{0, 29}";
target = "{0, 20}";
},
{
horizontal = 1;
origin = "{0, 23}";
target = down;
type = TopGhost;
},
{
horizontal = 1;
origin = "{0, 5}";
target = "{0, 36}";
},
{
horizontal = 1;
origin = "{0, 39}";
target = up;
type = BottomGhost;
}
);
layerId = "51F41761-070F-43EA-B302-C90910850260";
name = Regular;
paths = (
{
closed = 1;
nodes = (
"413 16 OFFCURVE",
"421 70 OFFCURVE",
"421 103 CURVE",
"380 86 OFFCURVE",
"312 77 OFFCURVE",
"253 77 CURVE SMOOTH",
"212 77 OFFCURVE",
"165 81 OFFCURVE",
"136 85 CURVE",
"212 190 OFFCURVE",
"378 405 OFFCURVE",
"409 450 CURVE SMOOTH",
"419 464 OFFCURVE",
"425 480 OFFCURVE",
"425 496 CURVE SMOOTH",
"425 516 OFFCURVE",
"415 535 OFFCURVE",
"393 546 CURVE",
"355 522 OFFCURVE",
"303 516 OFFCURVE",
"223 516 CURVE SMOOTH",
"143 516 OFFCURVE",
"67 520 OFFCURVE",
"31 527 CURVE",
"31 494 OFFCURVE",
"39 450 OFFCURVE",
"51 419 CURVE",
"72 431 OFFCURVE",
"99 437 OFFCURVE",
"148 437 CURVE SMOOTH",
"212 437 OFFCURVE",
"281 434 OFFCURVE",
"332 434 CURVE",
"200 250 OFFCURVE",
"78 95 OFFCURVE",
"20 38 CURVE",
"20 0 LINE",
"87 4 OFFCURVE",
"350 4 OFFCURVE",
"401 -5 CURVE"
);
}
);
width = 445;
},
{
anchors = (
{
name = bottom;
position = "{238, 0}";
},
{
name = top;
position = "{238, 527}";
}
);
layerId = "0E844BAD-773F-41FF-B6D6-C35F1E5E991C";
name = Bold;
paths = (
{
closed = 1;
nodes = (
"448 24 OFFCURVE",
"456 98 OFFCURVE",
"456 143 CURVE",
"410 126 OFFCURVE",
"334 117 OFFCURVE",
"268 117 CURVE SMOOTH",
"240 117 OFFCURVE",
"210 119 OFFCURVE",
"185 121 CURVE",
"269 219 OFFCURVE",
"395 364 OFFCURVE",
"436 419 CURVE SMOOTH",
"455 445 OFFCURVE",
"460 464 OFFCURVE",
"460 487 CURVE SMOOTH",
"460 501 OFFCURVE",
"452 528 OFFCURVE",
"428 546 CURVE",
"393 525 OFFCURVE",
"339 516 OFFCURVE",
"238 516 CURVE SMOOTH",
"145 516 OFFCURVE",
"64 520 OFFCURVE",
"26 527 CURVE",
"26 480 OFFCURVE",
"38 419 OFFCURVE",
"56 379 CURVE",
"79 392 OFFCURVE",
"111 397 OFFCURVE",
"163 397 CURVE SMOOTH",
"219 397 OFFCURVE",
"279 395 OFFCURVE",
"327 394 CURVE",
"193 232 OFFCURVE",
"71 98 OFFCURVE",
"15 48 CURVE",
"15 0 LINE",
"96 5 OFFCURVE",
"373 5 OFFCURVE",
"436 -5 CURVE"
);
}
);
width = 475;
},
{
anchors = (
{
name = bottom;
position = "{223, 0}";
},
{
name = top;
position = "{223, 527}";
}
);
associatedMasterId = "51F41761-070F-43EA-B302-C90910850260";
hints = (
{
horizontal = 1;
origin = "{1, 20}";
target = "{1, 8}";
},
{
horizontal = 1;
origin = "{0, 8}";
target = "{0, 21}";
},
{
horizontal = 1;
origin = "{0, 2}";
target = down;
type = TopGhost;
},
{
horizontal = 1;
origin = "{1, 2}";
target = up;
type = BottomGhost;
}
);
layerId = "9365430C-10BD-4240-8B61-047A2946EE0F";
name = "Regular Dec 1 15, 11:49";
paths = (
{
closed = 1;
nodes = (
"143 516 OFFCURVE",
"67 520 OFFCURVE",
"31 527 CURVE",
"31 494 OFFCURVE",
"39 450 OFFCURVE",
"51 419 CURVE",
"72 431 OFFCURVE",
"99 437 OFFCURVE",
"148 437 CURVE SMOOTH",
"216 437 OFFCURVE",
"291 434 OFFCURVE",
"342 434 CURVE",
"409 450 LINE",
"420 465 OFFCURVE",
"425 482 OFFCURVE",
"425 501 CURVE SMOOTH",
"425 512 OFFCURVE",
"417 531 OFFCURVE",
"393 546 CURVE",
"355 522 OFFCURVE",
"303 516 OFFCURVE",
"223 516 CURVE SMOOTH"
);
},
{
closed = 1;
nodes = (
"93 5 OFFCURVE",
"344 5 OFFCURVE",
"401 -5 CURVE",
"413 16 OFFCURVE",
"421 70 OFFCURVE",
"421 103 CURVE",
"380 86 OFFCURVE",
"312 77 OFFCURVE",
"253 77 CURVE SMOOTH",
"195 77 OFFCURVE",
"126 84 OFFCURVE",
"113 91 CURVE",
"120 62 LINE",
"184 154 OFFCURVE",
"379 398 OFFCURVE",
"409 450 CURVE",
"361 475 LINE",
"218 273 OFFCURVE",
"82 99 OFFCURVE",
"20 38 CURVE",
"20 0 LINE"
);
}
);
width = 445;
},
{
anchors = (
{
name = bottom;
position = "{238, 0}";
},
{
name = top;
position = "{238, 527}";
}
);
associatedMasterId = "0E844BAD-773F-41FF-B6D6-C35F1E5E991C";
layerId = "507C7D3E-43C4-421E-8264-26E49C2844A4";
name = "Bold Dec 1 15, 11:49";
paths = (
{
closed = 1;
nodes = (
"145 516 OFFCURVE",
"64 520 OFFCURVE",
"26 527 CURVE",
"26 480 OFFCURVE",
"38 419 OFFCURVE",
"56 379 CURVE",
"79 392 OFFCURVE",
"111 397 OFFCURVE",
"163 397 CURVE SMOOTH",
"231 397 OFFCURVE",
"306 394 OFFCURVE",
"357 394 CURVE",
"436 419 LINE",
"455 445 OFFCURVE",
"460 464 OFFCURVE",
"460 487 CURVE SMOOTH",
"460 501 OFFCURVE",
"452 528 OFFCURVE",
"428 546 CURVE",
"393 525 OFFCURVE",
"339 516 OFFCURVE",
"238 516 CURVE SMOOTH"
);
},
{
closed = 1;
nodes = (
"96 5 OFFCURVE",
"373 5 OFFCURVE",
"436 -5 CURVE",
"448 24 OFFCURVE",
"456 98 OFFCURVE",
"456 143 CURVE",
"410 126 OFFCURVE",
"334 117 OFFCURVE",
"268 117 CURVE SMOOTH",
"210 117 OFFCURVE",
"141 124 OFFCURVE",
"128 131 CURVE",
"135 62 LINE",
"206 147 OFFCURVE",
"386 351 OFFCURVE",
"436 419 CURVE",
"375 452 LINE",
"222 265 OFFCURVE",
"78 104 OFFCURVE",
"15 48 CURVE",
"15 0 LINE"
);
}
);
width = 475;
}
);
leftKerningGroup = Z;
leftMetricsKey = "=H/3";
rightKerningGroup = Z;
rightMetricsKey = "=H/3";
unicode = 005A;
},
{
color = 4;
glyphname = a;
lastChange = "2015-12-28 19:12:02 +0000";
layers = (
{
anchors = (
{
name = bottom;
position = "{219, 0}";
},
{
name = ogonek;
position = "{356, 0}";
},
{
name = top;
position = "{219, 407}";
}
);
layerId = "0E844BAD-773F-41FF-B6D6-C35F1E5E991C";
name = Bold;
paths = (
{
closed = 1;
nodes = (
"163 -11 OFFCURVE",
"214 7 OFFCURVE",
"260 36 CURVE",
"269 16 OFFCURVE",
"282 1 OFFCURVE",
"301 -11 CURVE",
"342 -7 OFFCURVE",
"384 7 OFFCURVE",
"417 27 CURVE",
"386 60 OFFCURVE",
"378 83 OFFCURVE",
"378 132 CURVE SMOOTH",
"378 179 OFFCURVE",
"387 231 OFFCURVE",
"387 284 CURVE SMOOTH",
"387 370 OFFCURVE",
"331 418 OFFCURVE",
"229 418 CURVE SMOOTH",
"157 418 OFFCURVE",
"81 378 OFFCURVE",
"39 319 CURVE",
"47 253 LINE",
"81 276 OFFCURVE",
"132 290 OFFCURVE",
"178 290 CURVE SMOOTH",
"227 290 OFFCURVE",
"250 272 OFFCURVE",
"254 229 CURVE",
"97 216 OFFCURVE",
"20 168 OFFCURVE",
"20 83 CURVE SMOOTH",
"20 28 OFFCURVE",
"51 -11 OFFCURVE",
"122 -11 CURVE SMOOTH"
);
},
{
closed = 1;
nodes = (
"167 70 OFFCURVE",
"158 90 OFFCURVE",
"158 108 CURVE SMOOTH",
"158 145 OFFCURVE",
"192 169 OFFCURVE",
"254 176 CURVE",
"252 145 OFFCURVE",
"248 125 OFFCURVE",
"248 97 CURVE SMOOTH",
"248 86 LINE",
"226 72 OFFCURVE",
"202 63 OFFCURVE",
"180 60 CURVE"
);
}
);
width = 437;
},
{
anchors = (
{
name = bottom;
position = "{218, 0}";
},
{
name = ogonek;
position = "{354, 1}";
},
{
name = top;
position = "{218, 407}";
}
);
background = {
paths = (
{
closed = 0;
nodes = (
"211 459 LINE SMOOTH",
"150 459 OFFCURVE",
"99 443 OFFCURVE",
"60 412 CURVE",
"75 375 LINE",
"102 387 OFFCURVE",
"143 394 OFFCURVE",
"181 394 CURVE SMOOTH"
);
}
);
};
hints = (
{
horizontal = 1;
origin = "{0, 33}";
target = up;
type = BottomGhost;
},
{
horizontal = 1;
place = "{187.450000, 32.810000}";
},
{
horizontal = 1;
origin = "{0, 17}";
target = "{0, 24}";
},
{
horizontal = 1;
origin = "{0, 33}";
target = "{1, 12}";
},
{
origin = "{0, 30}";
target = "{1, 2}";
},
{
origin = "{1, 8}";
target = "{0, 11}";
},
{
origin = "{0, 27}";
target = "{0, 14}";
}
);
layerId = "51F41761-070F-43EA-B302-C90910850260";
name = Regular;
paths = (
{
closed = 1;
nodes = (
"171 -11 OFFCURVE",
"226 10 OFFCURVE",
"273 43 CURVE",
"280 20 OFFCURVE",
"292 2 OFFCURVE",
"311 -11 CURVE",
"342 -7 OFFCURVE",
"373 7 OFFCURVE",
"397 27 CURVE",
"366 60 OFFCURVE",
"358 82 OFFCURVE",
"358 132 CURVE SMOOTH",
"358 179 OFFCURVE",
"367 231 OFFCURVE",
"367 284 CURVE SMOOTH",
"367 370 OFFCURVE",
"318 418 OFFCURVE",
"229 418 CURVE SMOOTH",
"164 418 OFFCURVE",
"96 378 OFFCURVE",
"59 319 CURVE",
"67 293 LINE",
"101 316 OFFCURVE",
"146 330 OFFCURVE",
"188 330 CURVE SMOOTH",
"254 330 OFFCURVE",
"275 300 OFFCURVE",
"275 220 CURVE",
"117 210 OFFCURVE",
"40 165 OFFCURVE",
"40 83 CURVE SMOOTH",
"40 28 OFFCURVE",
"77 -11 OFFCURVE",
"127 -11 CURVE SMOOTH"
);
},
{
closed = 1;
nodes = (
"151 52 OFFCURVE",
"138 76 OFFCURVE",
"138 98 CURVE SMOOTH",
"138 150 OFFCURVE",
"187 183 OFFCURVE",
"274 188 CURVE",
"272 148 OFFCURVE",
"268 123 OFFCURVE",
"268 87 CURVE SMOOTH",
"268 81 LINE",
"240 60 OFFCURVE",
"202 43 OFFCURVE",
"170 40 CURVE"
);
}
);
width = 437;
},
{
anchors = (
{
name = bottom;
position = "{215, 0}";
},
{
name = ogonek;
position = "{341, -12}";
},
{
name = top;
position = "{215, 500}";
}
);
associatedMasterId = "51F41761-070F-43EA-B302-C90910850260";
background = {
paths = (
{
closed = 0;
nodes = (
"203 459 LINE SMOOTH",
"142 459 OFFCURVE",
"91 443 OFFCURVE",
"52 412 CURVE",
"67 375 LINE",
"94 387 OFFCURVE",
"135 394 OFFCURVE",
"173 394 CURVE SMOOTH"
);
}
);
};
hints = (
{
place = "{73.000000, 128.000000}";
},
{
place = "{325.000000, 122.000000}";
},
{
horizontal = 1;
place = "{249.000000, 65.000000}";
},
{
horizontal = 1;
origin = "{1, 10}";
},
{
horizontal = 1;
place = "{49.000000, 21.000000}";
target = up;
type = BottomGhost;
},
{
horizontal = 1;
place = "{48.000000, 21.000000}";
target = up;
type = BottomGhost;
}
);
layerId = "B7484032-ED4B-4BD0-BACC-94C423C7C981";
name = "Regular Nov 20 15, 19:31";
paths = (
{
closed = 1;
nodes = (
"137 52 OFFCURVE",
"120 78 OFFCURVE",
"120 106 CURVE SMOOTH",
"120 147 OFFCURVE",
"185 183 OFFCURVE",
"267 188 CURVE",
"267 104 LINE SMOOTH",
"267 86 OFFCURVE",
"202 45 OFFCURVE",
"162 40 CURVE"
);
},
{
closed = 1;
nodes = (
"372 56 OFFCURVE",
"357 93 OFFCURVE",
"357 147 CURVE SMOOTH",
"357 273 LINE SMOOTH",
"357 372 OFFCURVE",
"310 418 OFFCURVE",
"205 418 CURVE SMOOTH",
"144 418 OFFCURVE",
"86 401 OFFCURVE",
"47 371 CURVE",
"60 338 LINE",
"101 353 OFFCURVE",
"143 361 OFFCURVE",
"181 361 CURVE SMOOTH",
"239 361 OFFCURVE",
"267 339 OFFCURVE",
"267 295 CURVE SMOOTH",
"267 220 LINE SMOOTH",
"109 210 OFFCURVE",
"32 165 OFFCURVE",
"32 83 CURVE SMOOTH",
"32 29 OFFCURVE",
"68 -11 OFFCURVE",
"119 -11 CURVE SMOOTH",
"161 -11 OFFCURVE",
"218 14 OFFCURVE",
"268 54 CURVE",
"341 -12 LINE",
"364 -3 OFFCURVE",
"392 15 OFFCURVE",
"403 28 CURVE"
);
}
);
width = 428;
}
);
leftKerningGroup = a;
rightKerningGroup = n;
unicode = 0061;
},
{
color = 4;
glyphname = ae;
lastChange = "2015-12-28 19:12:02 +0000";
layers = (
{
anchors = (
{
name = bottom;
position = "{344, 0}";
},
{
name = top;
position = "{344, 407}";
}
);
background = {
paths = (
{
closed = 1;
nodes = (
"643 346 OFFCURVE",
"586 418 OFFCURVE",
"478 418 CURVE SMOOTH",
"354 418 OFFCURVE",
"268 325 OFFCURVE",
"268 191 CURVE SMOOTH",
"268 61 OFFCURVE",
"329 -11 OFFCURVE",
"438 -11 CURVE SMOOTH",
"511 -11 OFFCURVE",
"587 25 OFFCURVE",
"628 78 CURVE",
"620 104 LINE",
"584 80 OFFCURVE",
"534 67 OFFCURVE",
"479 67 CURVE SMOOTH",
"398 67 OFFCURVE",
"365 112 OFFCURVE",
"365 219 CURVE SMOOTH",
"365 284 OFFCURVE",
"392 346 OFFCURVE",
"431 369 CURVE",
"497 369 OFFCURVE",
"542 298 OFFCURVE",
"524 211 CURVE",
"539 258 LINE",
"507 238 OFFCURVE",
"408 219 OFFCURVE",
"333 216 CURVE",
"341 182 LINE",
"448 183 OFFCURVE",
"568 194 OFFCURVE",
"643 209 CURVE"
);
}
);
};
hints = (
{
horizontal = 1;
origin = "{0, 43}";
target = "{0, 2}";
},
{
horizontal = 1;
place = "{182.000000, 33.000000}";
},
{
horizontal = 1;
origin = "{0, 27}";
target = "{0, 34}";
},
{
horizontal = 1;
place = "{182.000000, 36.000000}";
},
{
horizontal = 1;
origin = "{0, 27}";
target = "{0, 34}";
},
{
horizontal = 1;
origin = "{0, 43}";
target = "{1, 11}";
},
{
origin = "{0, 40}";
target = "{1, 2}";
},
{
place = "{269.000000, 96.000000}";
},
{
place = "{528.000000, 115.000000}";
}
);
layerId = "51F41761-070F-43EA-B302-C90910850260";
name = Regular;
paths = (
{
closed = 1;
nodes = (
"178 -11 OFFCURVE",
"246 18 OFFCURVE",
"298 62 CURVE",
"326 14 OFFCURVE",
"373 -11 OFFCURVE",
"438 -11 CURVE SMOOTH",
"511 -11 OFFCURVE",
"587 25 OFFCURVE",
"628 78 CURVE",
"620 104 LINE",
"584 80 OFFCURVE",
"534 67 OFFCURVE",
"479 67 CURVE SMOOTH",
"410 67 OFFCURVE",
"376 100 OFFCURVE",
"367 175 CURVE",
"467 178 OFFCURVE",
"574 192 OFFCURVE",
"643 209 CURVE",
"643 346 OFFCURVE",
"586 418 OFFCURVE",
"478 418 CURVE SMOOTH",
"425 418 OFFCURVE",
"378 401 OFFCURVE",
"343 370 CURVE",
"320 401 OFFCURVE",
"281 418 OFFCURVE",
"229 418 CURVE SMOOTH",
"164 418 OFFCURVE",
"96 378 OFFCURVE",
"59 319 CURVE",
"67 293 LINE",
"101 316 OFFCURVE",
"146 330 OFFCURVE",
"188 330 CURVE SMOOTH",
"261 330 OFFCURVE",
"269 293 OFFCURVE",
"269 215 CURVE",
"115 204 OFFCURVE",
"40 161 OFFCURVE",
"40 83 CURVE SMOOTH",
"40 28 OFFCURVE",
"77 -11 OFFCURVE",
"127 -11 CURVE SMOOTH"
);
},
{
closed = 1;
nodes = (
"151 52 OFFCURVE",
"138 76 OFFCURVE",
"138 98 CURVE SMOOTH",
"138 146 OFFCURVE",
"185 177 OFFCURVE",
"268 182 CURVE",
"269 148 OFFCURVE",
"274 118 OFFCURVE",
"283 93 CURVE",
"255 67 OFFCURVE",
"208 44 OFFCURVE",
"170 40 CURVE"
);
},
{
closed = 1;
nodes = (
"365 284 OFFCURVE",
"391 345 OFFCURVE",
"431 369 CURVE",
"490 369 OFFCURVE",
"532 319 OFFCURVE",
"533 251 CURVE",
"496 233 OFFCURVE",
"427 217 OFFCURVE",
"365 211 CURVE"
);
}
);
width = 688;
},
{
anchors = (
{
name = bottom;
position = "{348, 0}";
},
{
name = top;
position = "{348, 407}";
}
);
background = {
paths = (
{
closed = 1;
nodes = (
"485 349 OFFCURVE",
"519 307 OFFCURVE",
"521 254 CURVE",
"487 239 OFFCURVE",
"434 226 OFFCURVE",
"384 221 CURVE",
"384 224 LINE",
"385 231 OFFCURVE",
"385 239 OFFCURVE",
"386 247 CURVE SMOOTH",
"391 291 OFFCURVE",
"411 330 OFFCURVE",
"438 349 CURVE"
);
}
);
};
layerId = "0E844BAD-773F-41FF-B6D6-C35F1E5E991C";
name = Bold;
paths = (
{
closed = 1;
nodes = (
"175 -11 OFFCURVE",
"238 15 OFFCURVE",
"289 55 CURVE",
"322 12 OFFCURVE",
"375 -11 OFFCURVE",
"445 -11 CURVE SMOOTH",
"524 -11 OFFCURVE",
"606 25 OFFCURVE",
"650 78 CURVE",
"634 144 LINE",
"596 118 OFFCURVE",
"544 104 OFFCURVE",
"486 104 CURVE SMOOTH",
"433 104 OFFCURVE",
"402 123 OFFCURVE",
"390 166 CURVE",
"487 168 OFFCURVE",
"593 182 OFFCURVE",
"665 199 CURVE",
"665 343 OFFCURVE",
"603 418 OFFCURVE",
"485 418 CURVE SMOOTH",
"433 418 OFFCURVE",
"386 405 OFFCURVE",
"349 381 CURVE",
"322 405 OFFCURVE",
"282 418 OFFCURVE",
"229 418 CURVE SMOOTH",
"157 418 OFFCURVE",
"81 378 OFFCURVE",
"39 319 CURVE",
"47 253 LINE",
"81 276 OFFCURVE",
"132 290 OFFCURVE",
"178 290 CURVE SMOOTH",
"233 290 OFFCURVE",
"252 268 OFFCURVE",
"252 223 CURVE",
"96 210 OFFCURVE",
"20 164 OFFCURVE",
"20 83 CURVE SMOOTH",
"20 28 OFFCURVE",
"65 -11 OFFCURVE",
"127 -11 CURVE SMOOTH"
);
},
{
closed = 1;
nodes = (
"167 70 OFFCURVE",
"158 90 OFFCURVE",
"158 108 CURVE SMOOTH",
"158 141 OFFCURVE",
"191 162 OFFCURVE",
"251 170 CURVE",
"252 143 OFFCURVE",
"257 118 OFFCURVE",
"266 97 CURVE",
"240 78 OFFCURVE",
"207 63 OFFCURVE",
"180 60 CURVE"
);
},
{
closed = 1;
nodes = (
"384 276 OFFCURVE",
"401 324 OFFCURVE",
"438 349 CURVE",
"485 349 OFFCURVE",
"519 307 OFFCURVE",
"521 254 CURVE",
"487 239 OFFCURVE",
"434 226 OFFCURVE",
"384 221 CURVE"
);
}
);
width = 695;
}
);
leftKerningGroup = a;
leftMetricsKey = a;
rightKerningGroup = o;
rightMetricsKey = e;
unicode = 00E6;
},
{
color = 4;
glyphname = b;
lastChange = "2015-12-28 19:12:02 +0000";
layers = (
{
anchors = (
{
name = bottom;
position = "{241, 0}";
},
{
name = top;
position = "{241, 407}";
}
);
background = {
paths = (
{
closed = 1;
nodes = (
"146 308 LINE",
"176 326 OFFCURVE",
"217 339 OFFCURVE",
"255 339 CURVE",
"311 318 OFFCURVE",
"345 256 OFFCURVE",
"345 177 CURVE SMOOTH",
"345 87 OFFCURVE",
"304 34 OFFCURVE",
"234 34 CURVE SMOOTH",
"207 34 OFFCURVE",
"182 45 OFFCURVE",
"161 66 CURVE",
"157 91 OFFCURVE",
"155 125 OFFCURVE",
"155 192 CURVE SMOOTH",
"155 300 OFFCURVE",
"159 483 OFFCURVE",
"167 547 CURVE",
"126 547 OFFCURVE",
"91 543 OFFCURVE",
"50 527 CURVE",
"62 487 OFFCURVE",
"67 425 OFFCURVE",
"67 333 CURVE SMOOTH",
"67 260 OFFCURVE",
"65 207 OFFCURVE",
"65 207 CURVE SMOOTH",
"65 27 OFFCURVE",
"144 -9 OFFCURVE",
"237 -9 CURVE SMOOTH",
"366 -9 OFFCURVE",
"442 73 OFFCURVE",
"442 212 CURVE SMOOTH",
"442 344 OFFCURVE",
"387 413 OFFCURVE",
"282 413 CURVE SMOOTH",
"234 413 OFFCURVE",
"184 391 OFFCURVE",
"148 355 CURVE"
);
}
);
};
hints = (
{
horizontal = 1;
origin = "{0, 27}";
target = "{1, 17}";
},
{
horizontal = 1;
origin = "{0, 5}";
target = "{1, 11}";
},
{
horizontal = 1;
origin = "{0, 23}";
target = down;
type = TopGhost;
},
{
place = "{67.000000, 90.000000}";
},
{
origin = "{1, 14}";
target = "{0, 2}";
}
);
layerId = "51F41761-070F-43EA-B302-C90910850260";
name = Regular;
paths = (
{
closed = 1;
nodes = (
"372 -9 OFFCURVE",
"442 70 OFFCURVE",
"442 212 CURVE SMOOTH",
"442 334 OFFCURVE",
"381 410 OFFCURVE",
"282 410 CURVE SMOOTH",
"238 410 OFFCURVE",
"194 393 OFFCURVE",
"157 364 CURVE",
"159 437 OFFCURVE",
"163 510 OFFCURVE",
"167 547 CURVE",
"120 547 OFFCURVE",
"86 541 OFFCURVE",
"50 527 CURVE",
"62 488 OFFCURVE",
"67 427 OFFCURVE",
"67 333 CURVE SMOOTH",
"67 248 OFFCURVE",
"64 74 OFFCURVE",
"58 5 CURVE",
"72 2 OFFCURVE",
"83 0 OFFCURVE",
"94 0 CURVE",
"119 41 LINE",
"147 11 OFFCURVE",
"192 -9 OFFCURVE",
"245 -9 CURVE SMOOTH"
);
},
{
closed = 1;
nodes = (
"207 44 OFFCURVE",
"182 55 OFFCURVE",
"161 76 CURVE",
"156 101 OFFCURVE",
"154 134 OFFCURVE",
"154 192 CURVE SMOOTH",
"154 222 OFFCURVE",
"155 266 OFFCURVE",
"156 314 CURVE",
"187 330 OFFCURVE",
"223 339 OFFCURVE",
"255 339 CURVE",
"311 318 OFFCURVE",
"345 267 OFFCURVE",
"345 177 CURVE SMOOTH",
"345 90 OFFCURVE",
"307 44 OFFCURVE",
"234 44 CURVE SMOOTH"
);
}
);
width = 482;
},
{
anchors = (
{
name = bottom;
position = "{244, 0}";
},
{
name = top;
position = "{244, 407}";
}
);
layerId = "0E844BAD-773F-41FF-B6D6-C35F1E5E991C";
leftMetricsKey = "=l-10";
rightMetricsKey = "=o";
name = Bold;
paths = (
{
closed = 1;
nodes = (
"383 -9 OFFCURVE",
"457 70 OFFCURVE",
"457 212 CURVE SMOOTH",
"457 342 OFFCURVE",
"401 410 OFFCURVE",
"297 410 CURVE SMOOTH",
"252 410 OFFCURVE",
"209 394 OFFCURVE",
"172 367 CURVE",
"175 442 OFFCURVE",
"179 518 OFFCURVE",
"182 547 CURVE",
"119 547 OFFCURVE",
"74 541 OFFCURVE",
"25 527 CURVE",
"37 488 OFFCURVE",
"42 427 OFFCURVE",
"42 333 CURVE SMOOTH",
"42 241 OFFCURVE",
"38 76 OFFCURVE",
"32 5 CURVE",
"55 2 OFFCURVE",
"73 0 OFFCURVE",
"93 0 CURVE",
"117 38 LINE",
"151 8 OFFCURVE",
"197 -9 OFFCURVE",
"250 -9 CURVE SMOOTH"
);
},
{
closed = 1;
nodes = (
"208 54 OFFCURVE",
"190 63 OFFCURVE",
"174 81 CURVE",
"169 104 OFFCURVE",
"167 137 OFFCURVE",
"167 192 CURVE SMOOTH",
"167 206 OFFCURVE",
"168 239 OFFCURVE",
"169 279 CURVE",
"194 294 OFFCURVE",
"226 302 OFFCURVE",
"255 302 CURVE",
"297 280 OFFCURVE",
"320 232 OFFCURVE",
"320 168 CURVE SMOOTH",
"320 94 OFFCURVE",
"288 54 OFFCURVE",
"229 54 CURVE SMOOTH"
);
}
);
width = 482;
},
{
anchors = (
{
name = bottom;
position = "{253, 0}";
},
{
name = ogonek;
position = "{399, -12}";
},
{
name = top;
position = "{253, 500}";
},
{
name = topright;
position = "{486, 500}";
}
);
associatedMasterId = "51F41761-070F-43EA-B302-C90910850260";
hints = (
{
horizontal = 1;
place = "{0.000000, 0.000000}";
},
{
place = "{0.000000, 0.000000}";
},
{
place = "{0.000000, 0.000000}";
}
);
layerId = "15B66CED-04CE-488B-9A4B-381885916D99";
name = "Regular Nov 20 15, 19:29";
paths = (
{
closed = 1;
nodes = (
"332 88 LINE",
"301 69 OFFCURVE",
"261 57 OFFCURVE",
"227 57 CURVE SMOOTH",
"178 57 OFFCURVE",
"158 80 OFFCURVE",
"158 136 CURVE SMOOTH",
"158 418 LINE",
"68 418 LINE",
"68 136 LINE SMOOTH",
"68 48 OFFCURVE",
"109 0 OFFCURVE",
"187 0 CURVE SMOOTH",
"239 0 OFFCURVE",
"276 15 OFFCURVE",
"342 57 CURVE"
);
},
{
closed = 1;
nodes = (
"422 -3 OFFCURVE",
"450 15 OFFCURVE",
"461 28 CURVE",
"430 56 OFFCURVE",
"415 93 OFFCURVE",
"415 147 CURVE SMOOTH",
"415 418 LINE",
"325 418 LINE",
"325 55 LINE",
"399 -12 LINE"
);
}
);
width = 506;
}
);
leftKerningGroup = h;
leftMetricsKey = "=l-10";
rightKerningGroup = o;
rightMetricsKey = o;
unicode = 0062;
},
{
color = 4;
glyphname = c;
lastChange = "2015-12-28 19:12:02 +0000";
layers = (
{
anchors = (
{
name = bottom;
position = "{209, 0}";
},
{
name = top;
position = "{236, 407}";
}
);
associatedMasterId = "51F41761-070F-43EA-B302-C90910850260";
hints = (
{
horizontal = 1;
origin = "{0, 8}";
target = "{0, 15}";
},
{
horizontal = 1;
origin = "{0, 24}";
target = "{0, 21}";
},
{
origin = "{0, 5}";
target = "{0, 18}";
}
);
layerId = "E54CE60E-3EC3-4512-BE0E-7F5097D567EC";
name = "Regular Nov 21 15, 18:18";
paths = (
{
closed = 1;
nodes = (
"322 409 OFFCURVE",
"276 418 OFFCURVE",
"246 418 CURVE SMOOTH",
"122 418 OFFCURVE",
"36 325 OFFCURVE",
"36 191 CURVE SMOOTH",
"36 69 OFFCURVE",
"114 -11 OFFCURVE",
"232 -11 CURVE SMOOTH",
"287 -11 OFFCURVE",
"333 4 OFFCURVE",
"368 32 CURVE",
"354 65 LINE",
"330 54 OFFCURVE",
"293 48 OFFCURVE",
"259 48 CURVE SMOOTH",
"179 48 OFFCURVE",
"133 103 OFFCURVE",
"133 198 CURVE SMOOTH",
"133 276 OFFCURVE",
"164 350 OFFCURVE",
"208 376 CURVE",
"240 376 OFFCURVE",
"291 354 OFFCURVE",
"344 313 CURVE",
"353 336 OFFCURVE",
"362 374 OFFCURVE",
"362 394 CURVE"
);
}
);
width = 392;
},
{
anchors = (
{
name = bottom;
position = "{197, 0}";
},
{
name = top;
position = "{207, 407}";
}
);
layerId = "0E844BAD-773F-41FF-B6D6-C35F1E5E991C";
name = Bold;
paths = (
{
closed = 1;
nodes = (
"277 -11 OFFCURVE",
"343 21 OFFCURVE",
"379 68 CURVE",
"371 144 LINE",
"343 120 OFFCURVE",
"301 107 OFFCURVE",
"256 107 CURVE SMOOTH",
"186 107 OFFCURVE",
"157 149 OFFCURVE",
"157 214 CURVE SMOOTH",
"157 264 OFFCURVE",
"176 307 OFFCURVE",
"208 329 CURVE",
"239 329 OFFCURVE",
"288 302 OFFCURVE",
"336 258 CURVE",
"352 299 OFFCURVE",
"366 362 OFFCURVE",
"366 394 CURVE",
"336 410 OFFCURVE",
"299 418 OFFCURVE",
"255 418 CURVE SMOOTH",
"116 418 OFFCURVE",
"20 325 OFFCURVE",
"20 191 CURVE SMOOTH",
"20 61 OFFCURVE",
"90 -11 OFFCURVE",
"215 -11 CURVE SMOOTH"
);
}
);
width = 399;
},
{
anchors = (
{
name = bottom;
position = "{205, 0}";
},
{
name = top;
position = "{215, 407}";
}
);
hints = (
{
horizontal = 1;
origin = "{0, 27}";
target = "{0, 6}";
},
{
horizontal = 1;
origin = "{0, 12}";
target = "{0, 21}";
},
{
origin = "{0, 24}";
target = "{0, 9}";
}
);
layerId = "51F41761-070F-43EA-B302-C90910850260";
name = Regular;
paths = (
{
closed = 1;
nodes = (
"278 -11 OFFCURVE",
"347 25 OFFCURVE",
"385 78 CURVE",
"377 104 LINE",
"345 80 OFFCURVE",
"301 67 OFFCURVE",
"254 67 CURVE SMOOTH",
"171 67 OFFCURVE",
"138 112 OFFCURVE",
"138 219 CURVE SMOOTH",
"138 287 OFFCURVE",
"167 347 OFFCURVE",
"205 369 CURVE",
"237 369 OFFCURVE",
"287 344 OFFCURVE",
"340 298 CURVE",
"355 325 OFFCURVE",
"371 370 OFFCURVE",
"371 394 CURVE",
"328 415 OFFCURVE",
"283 418 OFFCURVE",
"253 418 CURVE SMOOTH",
"127 418 OFFCURVE",
"40 325 OFFCURVE",
"40 191 CURVE SMOOTH",
"40 61 OFFCURVE",
"102 -11 OFFCURVE",
"212 -11 CURVE SMOOTH"
);
}
);
width = 410;
}
);
leftKerningGroup = o;
rightKerningGroup = c;
unicode = 0063;
},
{
color = 4;
glyphname = d;
lastChange = "2015-12-28 19:12:02 +0000";
layers = (
{
anchors = (
{
name = bottom;
position = "{257, 0}";
},
{
name = center;
position = "{359, 470}";
},
{
name = top;
position = "{257, 407}";
},
{
name = topright;
position = "{528, 407}";
}
);
background = {
paths = (
{
closed = 1;
nodes = (
"172 60 OFFCURVE",
"147 115 OFFCURVE",
"147 178 CURVE SMOOTH",
"147 289 OFFCURVE",
"177 335 OFFCURVE",
"251 335 CURVE SMOOTH",
"293 335 OFFCURVE",
"334 322 OFFCURVE",
"362 298 CURVE",
"370 324 LINE",
"335 377 OFFCURVE",
"271 413 OFFCURVE",
"210 413 CURVE SMOOTH",
"107 413 OFFCURVE",
"50 339 OFFCURVE",
"50 192 CURVE SMOOTH",
"50 54 OFFCURVE",
"107 -12 OFFCURVE",
"180 -12 CURVE SMOOTH",
"228 -12 OFFCURVE",
"311 22 OFFCURVE",
"360 72 CURVE",
"350 111 LINE",
"324 78 OFFCURVE",
"255 45 OFFCURVE",
"203 40 CURVE"
);
}
);
};
hints = (
{
horizontal = 1;
origin = "{0, 5}";
target = "{0, 8}";
},
{
horizontal = 1;
place = "{418.000000, -123.000000}";
},
{
place = "{45.000000, 97.000000}";
},
{
origin = "{1, 8}";
target = "{0, 11}";
}
);
layerId = "51F41761-070F-43EA-B302-C90910850260";
name = Regular;
paths = (
{
closed = 1;
nodes = (
"255 -12 OFFCURVE",
"301 9 OFFCURVE",
"336 44 CURVE",
"343 21 OFFCURVE",
"355 3 OFFCURVE",
"374 -11 CURVE",
"405 -7 OFFCURVE",
"436 7 OFFCURVE",
"460 27 CURVE",
"429 60 OFFCURVE",
"421 82 OFFCURVE",
"421 132 CURVE SMOOTH",
"421 324 OFFCURVE",
"426 475 OFFCURVE",
"433 547 CURVE",
"392 547 OFFCURVE",
"357 543 OFFCURVE",
"316 527 CURVE",
"325 493 OFFCURVE",
"331 445 OFFCURVE",
"334 379 CURVE",
"298 405 OFFCURVE",
"259 418 OFFCURVE",
"215 418 CURVE SMOOTH",
"103 418 OFFCURVE",
"45 343 OFFCURVE",
"45 199 CURVE SMOOTH",
"45 60 OFFCURVE",
"102 -12 OFFCURVE",
"210 -12 CURVE SMOOTH"
);
},
{
closed = 1;
nodes = (
"177 50 OFFCURVE",
"142 106 OFFCURVE",
"142 193 CURVE SMOOTH",
"142 285 OFFCURVE",
"179 334 OFFCURVE",
"248 334 CURVE SMOOTH",
"281 334 OFFCURVE",
"311 326 OFFCURVE",
"335 311 CURVE",
"335 229 OFFCURVE",
"331 151 OFFCURVE",
"331 83 CURVE",
"302 61 OFFCURVE",
"268 44 OFFCURVE",
"237 40 CURVE"
);
}
);
width = 500;
},
{
anchors = (
{
name = bottom;
position = "{250, 0}";
},
{
name = center;
position = "{359, 470}";
},
{
name = top;
position = "{250, 407}";
},
{
name = topright;
position = "{554, 407}";
}
);
layerId = "0E844BAD-773F-41FF-B6D6-C35F1E5E991C";
name = Bold;
paths = (
{
closed = 1;
nodes = (
"241 -12 OFFCURVE",
"284 6 OFFCURVE",
"319 36 CURVE",
"326 16 OFFCURVE",
"338 1 OFFCURVE",
"354 -11 CURVE",
"399 -6 OFFCURVE",
"445 12 OFFCURVE",
"480 37 CURVE",
"449 79 OFFCURVE",
"441 108 OFFCURVE",
"441 172 CURVE SMOOTH",
"441 345 OFFCURVE",
"446 482 OFFCURVE",
"453 547 CURVE",
"398 547 OFFCURVE",
"344 543 OFFCURVE",
"296 527 CURVE",
"305 494 OFFCURVE",
"311 449 OFFCURVE",
"313 387 CURVE",
"280 408 OFFCURVE",
"244 418 OFFCURVE",
"205 418 CURVE SMOOTH",
"90 418 OFFCURVE",
"30 342 OFFCURVE",
"30 194 CURVE SMOOTH",
"30 59 OFFCURVE",
"88 -12 OFFCURVE",
"200 -12 CURVE SMOOTH"
);
},
{
closed = 1;
nodes = (
"194 70 OFFCURVE",
"167 116 OFFCURVE",
"167 178 CURVE SMOOTH",
"167 261 OFFCURVE",
"197 300 OFFCURVE",
"258 300 CURVE SMOOTH",
"278 300 OFFCURVE",
"297 295 OFFCURVE",
"315 287 CURVE",
"315 223 OFFCURVE",
"311 158 OFFCURVE",
"311 94 CURVE",
"287 75 OFFCURVE",
"261 63 OFFCURVE",
"237 60 CURVE"
);
}
);
width = 500;
},
{
anchors = (
{
name = bottom;
position = "{273, 0}";
},
{
name = ogonek;
position = "{419, -12}";
},
{
name = top;
position = "{273, 500}";
},
{
name = topright;
position = "{506, 500}";
}
);
associatedMasterId = "51F41761-070F-43EA-B302-C90910850260";
background = {
paths = (
{
closed = 0;
nodes = (
"92 83 LINE SMOOTH",
"92 28 OFFCURVE",
"129 -11 OFFCURVE",
"179 -11 CURVE SMOOTH",
"234 -11 OFFCURVE",
"308 23 OFFCURVE",
"361 72 CURVE"
);
}
);
};
hints = (
{
horizontal = 1;
origin = "{1, 18}";
target = "{1, 25}";
},
{
horizontal = 1;
origin = "{1, 5}";
target = "{1, 12}";
},
{
origin = "{1, 15}";
target = "{1, 2}";
},
{
origin = "{0, 8}";
target = "{0, 20}";
}
);
layerId = "04597F1F-172E-4A6C-AC88-40D981B3C2B1";
name = "Regular Nov 22 15, 12:27";
paths = (
{
closed = 1;
nodes = (
"421 324 OFFCURVE",
"426 475 OFFCURVE",
"433 547 CURVE",
"392 547 OFFCURVE",
"357 543 OFFCURVE",
"316 527 CURVE",
"329 480 OFFCURVE",
"335 406 OFFCURVE",
"335 295 CURVE SMOOTH",
"335 226 OFFCURVE",
"331 156 OFFCURVE",
"331 87 CURVE SMOOTH",
"331 42 OFFCURVE",
"345 10 OFFCURVE",
"374 -11 CURVE",
"405 -7 OFFCURVE",
"436 7 OFFCURVE",
"460 27 CURVE",
"429 60 OFFCURVE",
"421 82 OFFCURVE",
"421 132 CURVE SMOOTH"
);
},
{
closed = 1;
nodes = (
"172 60 OFFCURVE",
"147 115 OFFCURVE",
"147 178 CURVE SMOOTH",
"147 289 OFFCURVE",
"177 335 OFFCURVE",
"251 335 CURVE SMOOTH",
"293 335 OFFCURVE",
"334 322 OFFCURVE",
"362 298 CURVE",
"370 324 LINE",
"335 377 OFFCURVE",
"271 413 OFFCURVE",
"210 413 CURVE SMOOTH",
"107 413 OFFCURVE",
"50 339 OFFCURVE",
"50 192 CURVE SMOOTH",
"50 54 OFFCURVE",
"107 -12 OFFCURVE",
"180 -12 CURVE SMOOTH",
"228 -12 OFFCURVE",
"311 22 OFFCURVE",
"360 72 CURVE",
"350 111 LINE",
"324 78 OFFCURVE",
"255 45 OFFCURVE",
"203 40 CURVE"
);
}
);
width = 500;
}
);
leftKerningGroup = o;
leftMetricsKey = "=o+5";
rightKerningGroup = l;
rightMetricsKey = u;
unicode = 0064;
},
{
color = 4;
glyphname = eth;
lastChange = "2015-12-28 19:12:02 +0000";
layers = (
{
components = (
{
name = o;
},
{
name = slashshortcomb;
transform = "{0.85, 0, 0, 0.85, 76, 309}";
}
);
layerId = "51F41761-070F-43EA-B302-C90910850260";
name = Regular;
paths = (
{
closed = 1;
nodes = (
"453 215 LINE",
"453 365 OFFCURVE",
"327 496 OFFCURVE",
"152 608 CURVE",
"125 573 LINE",
"314 425 OFFCURVE",
"371 293 OFFCURVE",
"371 177 CURVE"
);
}
);
width = 503;
},
{
components = (
{
name = o;
},
{
name = slashshortcomb;
transform = "{0.85, 0, 0, 0.85, 76, 309}";
}
);
layerId = "0E844BAD-773F-41FF-B6D6-C35F1E5E991C";
name = Bold;
paths = (
{
closed = 1;
nodes = (
"478 215 LINE",
"478 369 OFFCURVE",
"346 503 OFFCURVE",
"162 618 CURVE",
"125 573 LINE",
"307 425 OFFCURVE",
"361 293 OFFCURVE",
"361 177 CURVE"
);
}
);
width = 513;
}
);
leftKerningGroup = eth;
leftMetricsKey = o;
rightKerningGroup = eth;
rightMetricsKey = "=o+10";
unicode = 00F0;
},
{
color = 4;
glyphname = e;
lastChange = "2015-12-28 19:12:02 +0000";
layers = (
{
anchors = (
{
name = bottom;
position = "{223, 0}";
},
{
name = ogonek;
position = "{311, 12}";
},
{
name = top;
position = "{233, 407}";
}
);
background = {
paths = (
{
closed = 1;
nodes = (
"182 67 OFFCURVE",
"148 100 OFFCURVE",
"139 175 CURVE",
"239 178 OFFCURVE",
"346 192 OFFCURVE",
"415 209 CURVE",
"415 346 OFFCURVE",
"358 418 OFFCURVE",
"250 418 CURVE SMOOTH",
"126 418 OFFCURVE",
"40 325 OFFCURVE",
"40 191 CURVE SMOOTH",
"40 61 OFFCURVE",
"101 -11 OFFCURVE",
"210 -11 CURVE SMOOTH",
"283 -11 OFFCURVE",
"359 25 OFFCURVE",
"400 78 CURVE",
"392 104 LINE",
"356 80 OFFCURVE",
"306 67 OFFCURVE",
"251 67 CURVE SMOOTH"
);
},
{
closed = 1;
nodes = (
"262 369 OFFCURVE",
"304 319 OFFCURVE",
"305 251 CURVE",
"268 233 OFFCURVE",
"199 217 OFFCURVE",
"137 211 CURVE",
"137 219 LINE SMOOTH",
"137 284 OFFCURVE",
"164 346 OFFCURVE",
"203 369 CURVE"
);
}
);
};
hints = (
{
horizontal = 1;
origin = "{0, 21}";
target = "{0, 6}";
},
{
horizontal = 1;
place = "{175.490000, 35.950000}";
},
{
horizontal = 1;
origin = "{0, 15}";
target = "{1, 2}";
},
{
origin = "{0, 18}";
target = "{1, 8}";
},
{
place = "{310.200000, 114.800000}";
}
);
layerId = "51F41761-070F-43EA-B302-C90910850260";
name = Regular;
paths = (
{
closed = 1;
nodes = (
"283 -11 OFFCURVE",
"359 25 OFFCURVE",
"400 78 CURVE",
"392 104 LINE",
"356 80 OFFCURVE",
"306 67 OFFCURVE",
"251 67 CURVE SMOOTH",
"182 67 OFFCURVE",
"148 100 OFFCURVE",
"139 175 CURVE",
"239 178 OFFCURVE",
"346 192 OFFCURVE",
"415 209 CURVE",
"415 346 OFFCURVE",
"358 418 OFFCURVE",
"250 418 CURVE SMOOTH",
"126 418 OFFCURVE",
"40 325 OFFCURVE",
"40 191 CURVE SMOOTH",
"40 61 OFFCURVE",
"101 -11 OFFCURVE",
"210 -11 CURVE SMOOTH"
);
},
{
closed = 1;
nodes = (
"137 284 OFFCURVE",
"163 345 OFFCURVE",
"203 369 CURVE",
"262 369 OFFCURVE",
"304 319 OFFCURVE",
"305 251 CURVE",
"268 233 OFFCURVE",
"199 217 OFFCURVE",
"137 211 CURVE"
);
}
);
width = 460;
},
{
anchors = (
{
name = bottom;
position = "{228, 0}";
},
{
name = ogonek;
position = "{323, 9}";
},
{
name = top;
position = "{238, 407}";
}
);
layerId = "0E844BAD-773F-41FF-B6D6-C35F1E5E991C";
rightMetricsKey = "=o+5";
name = Bold;
paths = (
{
closed = 1;
nodes = (
"299 -11 OFFCURVE",
"381 25 OFFCURVE",
"425 78 CURVE",
"409 144 LINE",
"371 118 OFFCURVE",
"319 104 OFFCURVE",
"261 104 CURVE SMOOTH",
"208 104 OFFCURVE",
"177 123 OFFCURVE",
"165 166 CURVE",
"262 168 OFFCURVE",
"368 182 OFFCURVE",
"440 199 CURVE",
"440 343 OFFCURVE",
"378 418 OFFCURVE",
"260 418 CURVE SMOOTH",
"121 418 OFFCURVE",
"25 325 OFFCURVE",
"25 191 CURVE SMOOTH",
"25 61 OFFCURVE",
"95 -11 OFFCURVE",
"220 -11 CURVE SMOOTH"
);
},
{
closed = 1;
nodes = (
"160 276 OFFCURVE",
"180 326 OFFCURVE",
"213 349 CURVE",
"260 349 OFFCURVE",
"294 307 OFFCURVE",
"296 254 CURVE",
"262 239 OFFCURVE",
"209 226 OFFCURVE",
"159 221 CURVE"
);
}
);
width = 470;
}
);
leftKerningGroup = o;
leftMetricsKey = o;
rightKerningGroup = o;
rightMetricsKey = "=o+5";
unicode = 0065;
},
{
color = 4;
glyphname = f;
lastChange = "2015-12-28 19:12:02 +0000";
layers = (
{
anchors = (
{
name = bottom;
position = "{146, 0}";
},
{
name = top;
position = "{146, 407}";
}
);
background = {
paths = (
{
closed = 1;
nodes = (
"100 274 OFFCURVE",
"100 145 CURVE SMOOTH",
"100 96 OFFCURVE",
"100 46 OFFCURVE",
"100 -4 CURVE SMOOTH",
"100 -127 OFFCURVE",
"87 -150 OFFCURVE",
"4 -170 CURVE",
"9 -190 LINE",
"136 -190 OFFCURVE",
"192 -146 OFFCURVE",
"192 -47 CURVE SMOOTH",
"192 48 OFFCURVE",
"189 86 OFFCURVE",
"189 172 CURVE SMOOTH",
"189 257 OFFCURVE",
"191 374 OFFCURVE",
"196 417 CURVE",
"155 417 OFFCURVE",
"120 413 OFFCURVE",
"79 397 CURVE",
"98 356 OFFCURVE"
);
}
);
};
hints = (
{
horizontal = 1;
origin = "{0, 6}";
target = "{0, 15}";
},
{
horizontal = 1;
origin = "{0, 18}";
target = "{0, 27}";
},
{
place = "{101.600000, 86.400000}";
}
);
layerId = "51F41761-070F-43EA-B302-C90910850260";
name = Regular;
paths = (
{
closed = 1;
nodes = (
"169 -78 OFFCURVE",
"195 -34 OFFCURVE",
"195 63 CURVE SMOOTH",
"195 110 OFFCURVE",
"188 183 OFFCURVE",
"188 277 CURVE SMOOTH",
"188 343 LINE",
"228 342 OFFCURVE",
"255 338 OFFCURVE",
"277 331 CURVE",
"289 356 OFFCURVE",
"294 376 OFFCURVE",
"294 404 CURVE",
"271 399 OFFCURVE",
"235 397 OFFCURVE",
"190 396 CURVE",
"193 488 OFFCURVE",
"202 520 OFFCURVE",
"223 536 CURVE",
"251 536 OFFCURVE",
"296 512 OFFCURVE",
"337 475 CURVE",
"353 503 OFFCURVE",
"367 549 OFFCURVE",
"367 571 CURVE",
"339 580 OFFCURVE",
"305 585 OFFCURVE",
"270 585 CURVE SMOOTH",
"178 585 OFFCURVE",
"110 513 OFFCURVE",
"94 403 CURVE",
"76 390 OFFCURVE",
"57 379 OFFCURVE",
"35 368 CURVE",
"35 347 OFFCURVE",
"45 341 OFFCURVE",
"94 340 CURVE",
"110 -35 OFFCURVE",
"105 -76 OFFCURVE",
"50 -146 CURVE",
"64 -159 LINE"
);
}
);
width = 317;
},
{
anchors = (
{
name = bottom;
position = "{153, 0}";
},
{
name = top;
position = "{153, 407}";
}
);
background = {
paths = (
{
closed = 0;
nodes = (
"212 496 LINE",
"243 496 OFFCURVE",
"292 469 OFFCURVE",
"340 425 CURVE",
"356 466 OFFCURVE",
"370 529 OFFCURVE",
"370 561 CURVE",
"340 577 OFFCURVE",
"303 585 OFFCURVE",
"259 585 CURVE SMOOTH"
);
}
);
};
layerId = "0E844BAD-773F-41FF-B6D6-C35F1E5E991C";
name = Bold;
paths = (
{
closed = 1;
nodes = (
"173 -86 OFFCURVE",
"210 -30 OFFCURVE",
"210 63 CURVE SMOOTH",
"210 107 OFFCURVE",
"203 176 OFFCURVE",
"203 284 CURVE SMOOTH",
"203 323 LINE",
"241 322 OFFCURVE",
"269 318 OFFCURVE",
"292 311 CURVE",
"304 342 OFFCURVE",
"309 368 OFFCURVE",
"309 404 CURVE",
"286 400 OFFCURVE",
"250 397 OFFCURVE",
"205 396 CURVE",
"209 459 OFFCURVE",
"218 481 OFFCURVE",
"238 496 CURVE",
"268 490 OFFCURVE",
"295 476 OFFCURVE",
"352 440 CURVE",
"365 462 OFFCURVE",
"381 531 OFFCURVE",
"381 566 CURVE",
"348 579 OFFCURVE",
"309 585 OFFCURVE",
"265 585 CURVE SMOOTH",
"165 585 OFFCURVE",
"89 517 OFFCURVE",
"70 411 CURVE",
"48 395 OFFCURVE",
"26 381 OFFCURVE",
"0 368 CURVE",
"0 329 OFFCURVE",
"10 321 OFFCURVE",
"70 320 CURVE",
"85 10 OFFCURVE",
"78 -54 OFFCURVE",
"31 -127 CURVE",
"67 -159 LINE"
);
}
);
width = 316;
},
{
anchors = (
{
name = bottom;
position = "{117, 0}";
},
{
name = top;
position = "{105, 407}";
}
);
associatedMasterId = "51F41761-070F-43EA-B302-C90910850260";
background = {
paths = (
{
closed = 1;
nodes = (
"68 274 OFFCURVE",
"68 145 CURVE SMOOTH",
"68 96 OFFCURVE",
"68 46 OFFCURVE",
"68 -4 CURVE SMOOTH",
"68 -127 OFFCURVE",
"55 -150 OFFCURVE",
"-28 -170 CURVE",
"-23 -190 LINE",
"104 -190 OFFCURVE",
"160 -146 OFFCURVE",
"160 -47 CURVE SMOOTH",
"160 48 OFFCURVE",
"157 86 OFFCURVE",
"157 172 CURVE SMOOTH",
"157 257 OFFCURVE",
"159 374 OFFCURVE",
"164 417 CURVE",
"123 417 OFFCURVE",
"88 413 OFFCURVE",
"47 397 CURVE",
"66 356 OFFCURVE"
);
}
);
};
hints = (
{
origin = "{0, 2}";
target = "{0, 9}";
}
);
layerId = "AE1B2624-DC4F-4758-8C74-4C63418FC937";
name = "Regular Nov 22 15, 16:53";
paths = (
{
closed = 1;
nodes = (
"66 348 OFFCURVE",
"68 305 OFFCURVE",
"68 106 CURVE SMOOTH",
"68 -54 OFFCURVE",
"35 -109 OFFCURVE",
"-31 -171 CURVE",
"-20 -189 LINE",
"100 -111 OFFCURVE",
"160 -63 OFFCURVE",
"160 63 CURVE SMOOTH",
"160 110 OFFCURVE",
"157 129 OFFCURVE",
"157 172 CURVE SMOOTH",
"157 257 OFFCURVE",
"159 374 OFFCURVE",
"164 417 CURVE",
"123 417 OFFCURVE",
"88 409 OFFCURVE",
"47 376 CURVE"
);
},
{
closed = 1;
nodes = (
"161 443 OFFCURVE",
"177 514 OFFCURVE",
"197 536 CURVE",
"223 536 OFFCURVE",
"266 515 OFFCURVE",
"310 475 CURVE",
"325 502 OFFCURVE",
"340 547 OFFCURVE",
"340 571 CURVE",
"305 583 OFFCURVE",
"269 585 OFFCURVE",
"244 585 CURVE SMOOTH",
"138 585 OFFCURVE",
"64 483 OFFCURVE",
"64 337 CURVE",
"161 365 LINE"
);
},
{
closed = 1;
nodes = (
"162 338 LINE",
"199 337 OFFCURVE",
"226 333 OFFCURVE",
"245 326 CURVE",
"257 349 OFFCURVE",
"262 369 OFFCURVE",
"262 399 CURVE",
"243 395 OFFCURVE",
"212 392 OFFCURVE",
"164 391 CURVE",
"163 416 OFFCURVE",
"161 442 OFFCURVE",
"159 461 CURVE",
"140 464 LINE",
"97 421 OFFCURVE",
"53 388 OFFCURVE",
"3 363 CURVE",
"3 341 OFFCURVE",
"17 335 OFFCURVE",
"71 335 CURVE"
);
}
);
width = 224;
},
{
anchors = (
{
name = bottom;
position = "{140, 0}";
},
{
name = top;
position = "{128, 407}";
}
);
associatedMasterId = "51F41761-070F-43EA-B302-C90910850260";
background = {
paths = (
{
closed = 1;
nodes = (
"91 274 OFFCURVE",
"91 145 CURVE SMOOTH",
"91 96 OFFCURVE",
"91 46 OFFCURVE",
"91 -4 CURVE SMOOTH",
"91 -127 OFFCURVE",
"78 -150 OFFCURVE",
"-5 -170 CURVE",
"0 -190 LINE",
"127 -190 OFFCURVE",
"183 -146 OFFCURVE",
"183 -47 CURVE SMOOTH",
"183 48 OFFCURVE",
"180 86 OFFCURVE",
"180 172 CURVE SMOOTH",
"180 257 OFFCURVE",
"182 374 OFFCURVE",
"187 417 CURVE",
"146 417 OFFCURVE",
"111 413 OFFCURVE",
"70 397 CURVE",
"89 356 OFFCURVE"
);
}
);
};
hints = (
{
origin = "{0, 42}";
target = "{0, 3}";
}
);
layerId = "5D8DBD45-2014-4F30-B004-B94B9A2C0B1B";
name = "Regular Nov 22 15, 19:47";
paths = (
{
closed = 1;
nodes = (
"53 -159 LINE",
"140 -90 OFFCURVE",
"183 -48 OFFCURVE",
"183 63 CURVE SMOOTH",
"183 110 OFFCURVE",
"180 129 OFFCURVE",
"180 172 CURVE SMOOTH",
"180 225 OFFCURVE",
"181 290 OFFCURVE",
"182 343 CURVE",
"217 342 OFFCURVE",
"245 339 OFFCURVE",
"268 331 CURVE",
"280 354 OFFCURVE",
"285 374 OFFCURVE",
"285 404 CURVE",
"265 400 OFFCURVE",
"233 397 OFFCURVE",
"185 396 CURVE",
"188 461 OFFCURVE",
"202 517 OFFCURVE",
"220 536 CURVE",
"246 536 OFFCURVE",
"289 515 OFFCURVE",
"333 475 CURVE",
"348 502 OFFCURVE",
"363 547 OFFCURVE",
"363 571 CURVE",
"328 583 OFFCURVE",
"292 585 OFFCURVE",
"267 585 CURVE SMOOTH",
"178 585 OFFCURVE",
"111 515 OFFCURVE",
"92 408 CURVE",
"71 393 OFFCURVE",
"49 380 OFFCURVE",
"26 368 CURVE",
"26 347 OFFCURVE",
"38 341 OFFCURVE",
"84 340 CURVE",
"90 303 OFFCURVE",
"91 238 OFFCURVE",
"91 106 CURVE SMOOTH",
"91 -59 OFFCURVE",
"73 -99 OFFCURVE",
"38 -151 CURVE"
);
}
);
width = 273;
}
);
leftKerningGroup = f;
rightKerningGroup = f;
unicode = 0066;
},
{
color = 4;
glyphname = g;
lastChange = "2015-12-28 19:12:02 +0000";
layers = (
{
anchors = (
{
name = bottom;
position = "{226, 0}";
},
{
name = top;
position = "{231, 407}";
}
);
background = {
paths = (
{
closed = 0;
nodes = (
"98 67 LINE SMOOTH",
"277 57 LINE SMOOTH"
);
},
{
closed = 0;
nodes = (
"115 29 LINE"
);
}
);
};
hints = (
{
horizontal = 1;
origin = "{0, 45}";
target = "{1, 12}";
},
{
horizontal = 1;
place = "{-12.000000, 78.000000}";
},
{
horizontal = 1;
origin = "{0, 9}";
target = "{2, 11}";
},
{
horizontal = 1;
origin = "{0, 27}";
target = "{2, 5}";
},
{
origin = "{0, 30}";
target = "{2, 2}";
},
{
origin = "{1, 9}";
target = "{0, 2}";
},
{
origin = "{0, 36}";
target = "{1, 2}";
},
{
origin = "{2, 8}";
target = "{0, 12}";
}
);
layerId = "51F41761-070F-43EA-B302-C90910850260";
name = Regular;
paths = (
{
closed = 1;
nodes = (
"323 -180 OFFCURVE",
"413 -119 OFFCURVE",
"413 -38 CURVE SMOOTH",
"413 21 OFFCURVE",
"373 55 OFFCURVE",
"299 61 CURVE SMOOTH",
"111 71 LINE",
"111 100 OFFCURVE",
"147 119 OFFCURVE",
"204 119 CURVE SMOOTH",
"311 119 OFFCURVE",
"387 184 OFFCURVE",
"387 277 CURVE SMOOTH",
"387 305 OFFCURVE",
"380 330 OFFCURVE",
"368 351 CURVE",
"397 353 OFFCURVE",
"424 360 OFFCURVE",
"444 371 CURVE",
"444 391 OFFCURVE",
"432 429 OFFCURVE",
"418 454 CURVE",
"385 425 OFFCURVE",
"349 403 OFFCURVE",
"322 396 CURVE",
"297 410 OFFCURVE",
"267 418 OFFCURVE",
"232 418 CURVE SMOOTH",
"127 418 OFFCURVE",
"54 353 OFFCURVE",
"54 260 CURVE SMOOTH",
"54 204 OFFCURVE",
"80 160 OFFCURVE",
"125 137 CURVE",
"78 119 OFFCURVE",
"49 87 OFFCURVE",
"49 49 CURVE SMOOTH",
"49 23 OFFCURVE",
"63 3 OFFCURVE",
"87 -6 CURVE",
"54 -42 OFFCURVE",
"35 -90 OFFCURVE",
"35 -137 CURVE",
"74 -164 OFFCURVE",
"131 -180 OFFCURVE",
"202 -180 CURVE SMOOTH"
);
},
{
closed = 1;
nodes = (
"176 -113 OFFCURVE",
"137 -96 OFFCURVE",
"112 -63 CURVE",
"116 -46 OFFCURVE",
"123 -28 OFFCURVE",
"131 -12 CURVE",
"279 -20 LINE SMOOTH",
"325 -22 OFFCURVE",
"342 -32 OFFCURVE",
"342 -58 CURVE SMOOTH",
"342 -91 OFFCURVE",
"296 -113 OFFCURVE",
"227 -113 CURVE SMOOTH"
);
},
{
closed = 1;
nodes = (
"170 164 OFFCURVE",
"137 197 OFFCURVE",
"137 248 CURVE SMOOTH",
"137 301 OFFCURVE",
"175 339 OFFCURVE",
"227 339 CURVE",
"275 327 OFFCURVE",
"304 292 OFFCURVE",
"304 246 CURVE SMOOTH",
"304 194 OFFCURVE",
"272 164 OFFCURVE",
"219 164 CURVE SMOOTH"
);
}
);
width = 444;
},
{
anchors = (
{
name = bottom;
position = "{227, 0}";
},
{
name = top;
position = "{227, 407}";
}
);
layerId = "0E844BAD-773F-41FF-B6D6-C35F1E5E991C";
name = Bold;
paths = (
{
closed = 1;
nodes = (
"339 -180 OFFCURVE",
"438 -119 OFFCURVE",
"438 -38 CURVE SMOOTH",
"438 28 OFFCURVE",
"391 65 OFFCURVE",
"304 72 CURVE SMOOTH",
"116 82 LINE",
"116 104 OFFCURVE",
"152 119 OFFCURVE",
"209 119 CURVE SMOOTH",
"325 119 OFFCURVE",
"407 184 OFFCURVE",
"407 277 CURVE SMOOTH",
"407 298 OFFCURVE",
"403 317 OFFCURVE",
"395 334 CURVE",
"416 337 OFFCURVE",
"434 343 OFFCURVE",
"449 351 CURVE",
"449 376 OFFCURVE",
"437 423 OFFCURVE",
"423 454 CURVE",
"392 427 OFFCURVE",
"359 406 OFFCURVE",
"332 398 CURVE",
"306 411 OFFCURVE",
"274 418 OFFCURVE",
"237 418 CURVE SMOOTH",
"123 418 OFFCURVE",
"44 353 OFFCURVE",
"44 260 CURVE SMOOTH",
"44 211 OFFCURVE",
"66 172 OFFCURVE",
"103 147 CURVE",
"60 125 OFFCURVE",
"34 90 OFFCURVE",
"34 49 CURVE SMOOTH",
"34 23 OFFCURVE",
"45 0 OFFCURVE",
"65 -14 CURVE",
"37 -49 OFFCURVE",
"20 -94 OFFCURVE",
"20 -137 CURVE",
"59 -164 OFFCURVE",
"127 -180 OFFCURVE",
"207 -180 CURVE SMOOTH"
);
},
{
closed = 1;
nodes = (
"181 -103 OFFCURVE",
"142 -88 OFFCURVE",
"118 -61 CURVE",
"120 -51 OFFCURVE",
"123 -41 OFFCURVE",
"127 -32 CURVE",
"264 -40 LINE SMOOTH",
"310 -42 OFFCURVE",
"327 -46 OFFCURVE",
"327 -65 CURVE SMOOTH",
"327 -85 OFFCURVE",
"289 -103 OFFCURVE",
"232 -103 CURVE SMOOTH"
);
},
{
closed = 1;
nodes = (
"190 184 OFFCURVE",
"167 209 OFFCURVE",
"167 248 CURVE SMOOTH",
"167 289 OFFCURVE",
"194 319 OFFCURVE",
"232 319 CURVE",
"264 307 OFFCURVE",
"284 282 OFFCURVE",
"284 246 CURVE SMOOTH",
"284 207 OFFCURVE",
"261 184 OFFCURVE",
"224 184 CURVE SMOOTH"
);
}
);
width = 449;
},
{
anchors = (
{
name = bottom;
position = "{253, 0}";
},
{
name = ogonek;
position = "{399, -12}";
},
{
name = top;
position = "{253, 500}";
},
{
name = topright;
position = "{486, 500}";
}
);
associatedMasterId = "51F41761-070F-43EA-B302-C90910850260";
hints = (
{
horizontal = 1;
place = "{0.000000, 0.000000}";
},
{
place = "{0.000000, 0.000000}";
},
{
place = "{0.000000, 0.000000}";
}
);
layerId = "15B66CED-04CE-488B-9A4B-381885916D99";
name = "Regular Nov 20 15, 19:29";
paths = (
{
closed = 1;
nodes = (
"332 88 LINE",
"301 69 OFFCURVE",
"261 57 OFFCURVE",
"227 57 CURVE SMOOTH",
"178 57 OFFCURVE",
"158 80 OFFCURVE",
"158 136 CURVE SMOOTH",
"158 418 LINE",
"68 418 LINE",
"68 136 LINE SMOOTH",
"68 48 OFFCURVE",
"109 0 OFFCURVE",
"187 0 CURVE SMOOTH",
"239 0 OFFCURVE",
"276 15 OFFCURVE",
"342 57 CURVE"
);
},
{
closed = 1;
nodes = (
"422 -3 OFFCURVE",
"450 15 OFFCURVE",
"461 28 CURVE",
"430 56 OFFCURVE",
"415 93 OFFCURVE",
"415 147 CURVE SMOOTH",
"415 418 LINE",
"325 418 LINE",
"325 55 LINE",
"399 -12 LINE"
);
}
);
width = 506;
},
{
anchors = (
{
name = bottom;
position = "{252, 0}";
},
{
name = top;
position = "{252, 407}";
}
);
associatedMasterId = "51F41761-070F-43EA-B302-C90910850260";
background = {
paths = (
{
closed = 1;
nodes = (
"169 308 LINE",
"199 326 OFFCURVE",
"240 339 OFFCURVE",
"278 339 CURVE",
"334 318 OFFCURVE",
"368 256 OFFCURVE",
"368 177 CURVE SMOOTH",
"368 87 OFFCURVE",
"327 34 OFFCURVE",
"257 34 CURVE SMOOTH",
"230 34 OFFCURVE",
"205 45 OFFCURVE",
"184 66 CURVE",
"180 91 OFFCURVE",
"178 125 OFFCURVE",
"178 192 CURVE SMOOTH",
"178 300 OFFCURVE",
"182 483 OFFCURVE",
"190 547 CURVE",
"149 547 OFFCURVE",
"114 543 OFFCURVE",
"73 527 CURVE",
"85 487 OFFCURVE",
"90 425 OFFCURVE",
"90 333 CURVE SMOOTH",
"90 260 OFFCURVE",
"88 207 OFFCURVE",
"88 207 CURVE SMOOTH",
"88 27 OFFCURVE",
"167 -9 OFFCURVE",
"260 -9 CURVE SMOOTH",
"389 -9 OFFCURVE",
"465 73 OFFCURVE",
"465 212 CURVE SMOOTH",
"465 344 OFFCURVE",
"410 413 OFFCURVE",
"305 413 CURVE SMOOTH",
"257 413 OFFCURVE",
"207 391 OFFCURVE",
"171 355 CURVE"
);
}
);
};
hints = (
{
horizontal = 1;
place = "{416.000000, -43.000000}";
},
{
horizontal = 1;
place = "{68.000000, -74.000000}";
},
{
place = "{445.000000, 445.000000}";
},
{
place = "{137.000000, -97.000000}";
}
);
layerId = "A275513C-EAE8-4A9F-9946-4883DB5AD753";
name = "Regular Nov 28 15, 19:36";
paths = (
{
closed = 1;
nodes = (
"271 8 OFFCURVE",
"335 44 OFFCURVE",
"370 97 CURVE",
"362 123 LINE",
"331 87 OFFCURVE",
"280 62 OFFCURVE",
"237 62 CURVE",
"181 79 OFFCURVE",
"147 126.199 OFFCURVE",
"147 193 CURVE SMOOTH",
"147 293 OFFCURVE",
"183 340 OFFCURVE",
"258 340 CURVE SMOOTH",
"301 340 OFFCURVE",
"338 321 OFFCURVE",
"362 289 CURVE",
"387 309 LINE",
"340 376 OFFCURVE",
"282 410 OFFCURVE",
"215 410 CURVE SMOOTH",
"106 410 OFFCURVE",
"50 338 OFFCURVE",
"50 199 CURVE SMOOTH",
"50 73.175 OFFCURVE",
"105 8 OFFCURVE",
"210 8 CURVE SMOOTH"
);
},
{
closed = 1;
nodes = (
"338 -70.493 OFFCURVE",
"310.213 -104.177 OFFCURVE",
"242.411 -104.177 CURVE SMOOTH",
"187.677 -104.177 OFFCURVE",
"133.975 -90.458 OFFCURVE",
"96.797 -67.594 CURVE",
"88.797 -93.594 LINE",
"126.801 -142.297 OFFCURVE",
"197.674 -176.177 OFFCURVE",
"263.411 -176.177 CURVE SMOOTH",
"370.58 -176.177 OFFCURVE",
"430 -123.871 OFFCURVE",
"430 -31 CURVE SMOOTH",
"430 31.173 OFFCURVE",
"426.092 109.769 OFFCURVE",
"426.092 213 CURVE SMOOTH",
"426.092 321 OFFCURVE",
"434.092 344 OFFCURVE",
"465.092 378 CURVE",
"441.092 405 OFFCURVE",
"411.092 414 OFFCURVE",
"393.092 414 CURVE SMOOTH",
"351.664 414 OFFCURVE",
"335.092 383 OFFCURVE",
"335.092 331 CURVE SMOOTH",
"335.092 254.978 OFFCURVE",
"338 147.133 OFFCURVE",
"338 11 CURVE SMOOTH"
);
}
);
width = 503.092;
},
{
anchors = (
{
name = bottom;
position = "{226, 0}";
},
{
name = top;
position = "{226, 407}";
}
);
associatedMasterId = "51F41761-070F-43EA-B302-C90910850260";
background = {
paths = (
{
closed = 0;
nodes = (
"98 67 LINE SMOOTH",
"277 57 LINE SMOOTH"
);
},
{
closed = 0;
nodes = (
"115 29 LINE"
);
}
);
};
hints = (
{
horizontal = 1;
place = "{416.000000, -43.000000}";
},
{
horizontal = 1;
place = "{68.000000, -74.000000}";
},
{
place = "{445.000000, 445.000000}";
},
{
place = "{137.000000, -97.000000}";
}
);
layerId = "F76A17ED-C341-43D9-A900-9A14F679BFE4";
name = "Regular Nov 30 15, 09:00";
paths = (
{
closed = 1;
nodes = (
"127 418 OFFCURVE",
"54 353 OFFCURVE",
"54 260 CURVE SMOOTH",
"54 175 OFFCURVE",
"114 119 OFFCURVE",
"204 119 CURVE SMOOTH",
"311 119 OFFCURVE",
"387 184 OFFCURVE",
"387 277 CURVE SMOOTH",
"387 362 OFFCURVE",
"325 418 OFFCURVE",
"232 418 CURVE SMOOTH"
);
},
{
closed = 1;
nodes = (
"172 164 OFFCURVE",
"141 201 OFFCURVE",
"141 258 CURVE SMOOTH",
"141 305 OFFCURVE",
"177 339 OFFCURVE",
"227 339 CURVE",
"272 327 OFFCURVE",
"300 292 OFFCURVE",
"300 246 CURVE SMOOTH",
"300 194 OFFCURVE",
"270 164 OFFCURVE",
"219 164 CURVE SMOOTH"
);
},
{
closed = 1;
nodes = (
"382 350 OFFCURVE",
"418 357 OFFCURVE",
"444 371 CURVE",
"444 391 OFFCURVE",
"432 429 OFFCURVE",
"418 454 CURVE",
"376 417 OFFCURVE",
"331 393 OFFCURVE",
"302 393 CURVE",
"343 350 LINE"
);
},
{
closed = 1;
nodes = (
"38 -137 OFFCURVE",
"105 -180 OFFCURVE",
"207 -180 CURVE SMOOTH",
"328 -180 OFFCURVE",
"418 -119 OFFCURVE",
"418 -38 CURVE SMOOTH",
"418 21 OFFCURVE",
"378 55 OFFCURVE",
"304 61 CURVE SMOOTH",
"116 71 LINE",
"116 100 OFFCURVE",
"150 119 OFFCURVE",
"204 119 CURVE",
"219 153 LINE",
"124 153 OFFCURVE",
"54 109 OFFCURVE",
"54 49 CURVE SMOOTH",
"54 15 OFFCURVE",
"79 -9 OFFCURVE",
"116 -11 CURVE SMOOTH",
"284 -20 LINE SMOOTH",
"330 -22 OFFCURVE",
"347 -32 OFFCURVE",
"347 -58 CURVE SMOOTH",
"347 -91 OFFCURVE",
"301 -113 OFFCURVE",
"232 -113 CURVE SMOOTH",
"179 -113 OFFCURVE",
"141 -91 OFFCURVE",
"122 -48 CURVE",
"90 -48 OFFCURVE",
"61 -53 OFFCURVE",
"25 -64 CURVE"
);
},
{
closed = 0;
nodes = (
"131 -120 LINE",
"131 -84 OFFCURVE",
"143 -43 OFFCURVE",
"162 -11 CURVE",
"116 -11 LINE",
"81 -48 OFFCURVE",
"60 -98 OFFCURVE",
"60 -147 CURVE SMOOTH"
);
}
);
width = 444;
}
);
leftKerningGroup = g;
rightKerningGroup = g;
unicode = 0067;
},
{
color = 4;
glyphname = h;
lastChange = "2015-12-28 19:12:02 +0000";
layers = (
{
anchors = (
{
name = bottom;
position = "{246, 0}";
},
{
name = center;
position = "{129, 470}";
},
{
name = top;
position = "{246, 407}";
}
);
hints = (
{
horizontal = 1;
origin = "{0, 32}";
target = "{0, 11}";
},
{
origin = "{0, 44}";
target = "{0, 35}";
},
{
origin = "{0, 14}";
target = "{0, 26}";
},
{
horizontal = 1;
origin = "{0, 50}";
target = "{0, 47}";
}
);
layerId = "51F41761-070F-43EA-B302-C90910850260";
name = Regular;
paths = (
{
closed = 1;
nodes = (
"143 -6 OFFCURVE",
"163 -4 OFFCURVE",
"182 0 CURVE",
"168 30 OFFCURVE",
"161 107 OFFCURVE",
"161 227 CURVE SMOOTH",
"161 252 OFFCURVE",
"162 279 OFFCURVE",
"163 305 CURVE",
"189 322 OFFCURVE",
"217 330 OFFCURVE",
"252 330 CURVE SMOOTH",
"300 330 OFFCURVE",
"320 308 OFFCURVE",
"320 255 CURVE SMOOTH",
"320 176 OFFCURVE",
"317 77 OFFCURVE",
"313 0 CURVE",
"336 -4 OFFCURVE",
"356 -6 OFFCURVE",
"374 -6 CURVE SMOOTH",
"393 -6 OFFCURVE",
"413 -4 OFFCURVE",
"432 0 CURVE",
"419 29 OFFCURVE",
"412 82 OFFCURVE",
"412 150 CURVE SMOOTH",
"412 181 OFFCURVE",
"416 251 OFFCURVE",
"416 280 CURVE SMOOTH",
"416 372 OFFCURVE",
"377 418 OFFCURVE",
"299 418 CURVE SMOOTH",
"249 418 OFFCURVE",
"199 393 OFFCURVE",
"163 353 CURVE",
"166 429 OFFCURVE",
"171 502 OFFCURVE",
"177 547 CURVE",
"131 547 OFFCURVE",
"96 541 OFFCURVE",
"60 527 CURVE",
"66 468 OFFCURVE",
"70 367 OFFCURVE",
"70 255 CURVE SMOOTH",
"70 171 OFFCURVE",
"67 73 OFFCURVE",
"63 0 CURVE",
"86 -4 OFFCURVE",
"106 -6 OFFCURVE",
"124 -6 CURVE SMOOTH"
);
}
);
width = 492;
},
{
anchors = (
{
name = bottom;
position = "{240, 0}";
},
{
name = center;
position = "{122, 470}";
},
{
name = top;
position = "{240, 407}";
}
);
layerId = "0E844BAD-773F-41FF-B6D6-C35F1E5E991C";
name = Bold;
paths = (
{
closed = 1;
nodes = (
"145 -6 OFFCURVE",
"171 -4 OFFCURVE",
"197 0 CURVE",
"183 29 OFFCURVE",
"176 102 OFFCURVE",
"176 217 CURVE SMOOTH",
"176 234 OFFCURVE",
"177 264 OFFCURVE",
"177 270 CURVE",
"193 284 OFFCURVE",
"209 290 OFFCURVE",
"235 290 CURVE SMOOTH",
"276 290 OFFCURVE",
"293 268 OFFCURVE",
"293 215 CURVE SMOOTH",
"293 139 OFFCURVE",
"290 56 OFFCURVE",
"286 0 CURVE",
"309 -4 OFFCURVE",
"336 -6 OFFCURVE",
"357 -6 CURVE SMOOTH",
"386 -6 OFFCURVE",
"426 -4 OFFCURVE",
"445 0 CURVE",
"432 29 OFFCURVE",
"425 82 OFFCURVE",
"425 150 CURVE SMOOTH",
"425 181 OFFCURVE",
"429 251 OFFCURVE",
"429 280 CURVE SMOOTH",
"429 362 OFFCURVE",
"399 418 OFFCURVE",
"312 418 CURVE SMOOTH",
"259 418 OFFCURVE",
"213 395 OFFCURVE",
"179 356 CURVE",
"181 431 OFFCURVE",
"186 503 OFFCURVE",
"192 547 CURVE",
"130 547 OFFCURVE",
"83 541 OFFCURVE",
"35 527 CURVE",
"41 468 OFFCURVE",
"45 367 OFFCURVE",
"45 255 CURVE SMOOTH",
"45 171 OFFCURVE",
"42 73 OFFCURVE",
"38 0 CURVE",
"69 -4 OFFCURVE",
"95 -6 OFFCURVE",
"119 -6 CURVE SMOOTH"
);
}
);
width = 480;
}
);
leftKerningGroup = h;
leftMetricsKey = l;
rightKerningGroup = n;
rightMetricsKey = n;
unicode = 0068;
},
{
color = 4;
glyphname = idotless;
lastChange = "2015-12-28 19:12:02 +0000";
layers = (
{
anchors = (
{
name = bottom;
position = "{125, 0}";
},
{
name = ogonek;
position = "{168, 0}";
},
{
name = top;
position = "{120, 407}";
}
);
hints = (
{
horizontal = 1;
origin = "{0, 20}";
target = up;
type = BottomGhost;
},
{
horizontal = 1;
origin = "{0, 8}";
target = "{0, 11}";
},
{
origin = "{0, 17}";
target = "{0, 5}";
}
);
layerId = "51F41761-070F-43EA-B302-C90910850260";
name = Regular;
paths = (
{
closed = 1;
nodes = (
"150 -9 OFFCURVE",
"180 0 OFFCURVE",
"204 27 CURVE",
"173 61 OFFCURVE",
"165 84 OFFCURVE",
"165 192 CURVE SMOOTH",
"165 294 OFFCURVE",
"170 379 OFFCURVE",
"177 417 CURVE",
"136 417 OFFCURVE",
"101 413 OFFCURVE",
"60 397 CURVE",
"73 376 OFFCURVE",
"79 322 OFFCURVE",
"79 272 CURVE SMOOTH",
"79 208 OFFCURVE",
"75 144 OFFCURVE",
"75 73 CURVE SMOOTH",
"75 10 OFFCURVE",
"91 -9 OFFCURVE",
"132 -9 CURVE SMOOTH"
);
}
);
width = 244;
},
{
anchors = (
{
name = bottom;
position = "{133, 0}";
},
{
name = ogonek;
position = "{182, 0}";
},
{
name = top;
position = "{128, 407}";
}
);
layerId = "0E844BAD-773F-41FF-B6D6-C35F1E5E991C";
leftMetricsKey = "=l+10";
name = Bold;
paths = (
{
closed = 1;
nodes = (
"160 -9 OFFCURVE",
"198 0 OFFCURVE",
"229 27 CURVE",
"198 61 OFFCURVE",
"190 84 OFFCURVE",
"190 192 CURVE SMOOTH",
"190 294 OFFCURVE",
"195 379 OFFCURVE",
"202 417 CURVE",
"147 417 OFFCURVE",
"100 413 OFFCURVE",
"45 397 CURVE",
"58 376 OFFCURVE",
"64 322 OFFCURVE",
"64 272 CURVE SMOOTH",
"64 208 OFFCURVE",
"60 144 OFFCURVE",
"60 73 CURVE SMOOTH",
"60 10 OFFCURVE",
"82 -9 OFFCURVE",
"137 -9 CURVE SMOOTH"
);
}
);
width = 247;
},
{
anchors = (
{
name = bottom;
position = "{117, 0}";
},
{
name = ogonek;
position = "{162, 0}";
},
{
name = top;
position = "{117, 407}";
}
);
associatedMasterId = "51F41761-070F-43EA-B302-C90910850260";
hints = (
{
origin = "{0, 1}";
target = "{0, 2}";
}
);
layerId = "ECD07DEC-4504-4BB3-BA65-8B9BCE914748";
name = "Regular Nov 21 15, 18:32";
paths = (
{
closed = 1;
nodes = (
"72 407 LINE",
"72 0 LINE",
"162 0 LINE",
"162 407 LINE"
);
}
);
width = 234;
}
);
leftKerningGroup = idotless;
leftMetricsKey = l;
rightKerningGroup = idotless;
rightMetricsKey = l;
unicode = 0131;
},
{
color = 4;
glyphname = dotlessj;
lastChange = "2015-12-28 19:12:02 +0000";
layers = (
{
anchors = (
{
name = bottom;
position = "{123, 0}";
},
{
name = top;
position = "{123, 407}";
}
);
background = {
paths = (
{
closed = 1;
nodes = (
"77 356 OFFCURVE",
"79 291 OFFCURVE",
"79 -4 CURVE SMOOTH",
"79 -131 OFFCURVE",
"58 -157 OFFCURVE",
"-17 -170 CURVE",
"-12 -190 LINE",
"115 -190 OFFCURVE",
"171 -146 OFFCURVE",
"171 -47 CURVE SMOOTH",
"171 48 OFFCURVE",
"168 86 OFFCURVE",
"168 172 CURVE SMOOTH",
"168 257 OFFCURVE",
"170 374 OFFCURVE",
"175 417 CURVE",
"134 417 OFFCURVE",
"99 413 OFFCURVE",
"58 397 CURVE"
);
}
);
};
hints = (
{
origin = "{0, 14}";
target = "{0, 2}";
}
);
layerId = "51F41761-070F-43EA-B302-C90910850260";
name = Regular;
paths = (
{
closed = 1;
nodes = (
"111 -111 OFFCURVE",
"171 -63 OFFCURVE",
"171 63 CURVE SMOOTH",
"171 110 OFFCURVE",
"168 129 OFFCURVE",
"168 172 CURVE SMOOTH",
"168 257 OFFCURVE",
"170 374 OFFCURVE",
"175 417 CURVE",
"134 417 OFFCURVE",
"99 413 OFFCURVE",
"58 397 CURVE",
"77 367 OFFCURVE",
"79 320 OFFCURVE",
"79 106 CURVE SMOOTH",
"79 -54 OFFCURVE",
"46 -109 OFFCURVE",
"-20 -171 CURVE",
"-9 -189 LINE"
);
}
);
width = 245;
},
{
anchors = (
{
name = bottom;
position = "{135, 0}";
},
{
name = top;
position = "{135, 407}";
}
);
layerId = "0E844BAD-773F-41FF-B6D6-C35F1E5E991C";
name = Bold;
paths = (
{
closed = 1;
nodes = (
"131 -111 OFFCURVE",
"201 -63 OFFCURVE",
"201 63 CURVE SMOOTH",
"201 110 OFFCURVE",
"198 129 OFFCURVE",
"198 172 CURVE SMOOTH",
"198 257 OFFCURVE",
"200 374 OFFCURVE",
"205 417 CURVE",
"150 417 OFFCURVE",
"103 413 OFFCURVE",
"48 397 CURVE",
"67 367 OFFCURVE",
"69 320 OFFCURVE",
"69 106 CURVE SMOOTH",
"69 -42 OFFCURVE",
"36 -93 OFFCURVE",
"-30 -151 CURVE",
"-9 -189 LINE"
);
}
);
width = 255;
},
{
anchors = (
{
name = bottom;
position = "{116, 0}";
},
{
name = top;
position = "{116, 407}";
}
);
associatedMasterId = "51F41761-070F-43EA-B302-C90910850260";
hints = (
{
horizontal = 1;
origin = "{0, 8}";
target = "{0, 17}";
},
{
origin = "{0, 14}";
target = "{0, 11}";
}
);
layerId = "D98C0234-3BB1-4E8F-BD76-06EBCE73B69A";
name = "Regular Nov 21 15, 17:57";
paths = (
{
closed = 1;
nodes = (
"9 -158 OFFCURVE",
"-35 -135 OFFCURVE",
"-75 -100 CURVE",
"-97 -122 OFFCURVE",
"-112 -154 OFFCURVE",
"-112 -181 CURVE",
"-78 -195 OFFCURVE",
"-51 -200 OFFCURVE",
"-11 -200 CURVE SMOOTH",
"96 -200 OFFCURVE",
"161 -121 OFFCURVE",
"161 7 CURVE SMOOTH",
"161 407 LINE",
"71 407 LINE",
"71 16 LINE SMOOTH",
"71 -105 OFFCURVE",
"54 -141 OFFCURVE",
"37 -158 CURVE"
);
}
);
width = 234;
},
{
anchors = (
{
name = bottom;
position = "{124, 0}";
},
{
name = top;
position = "{112, 407}";
}
);
associatedMasterId = "51F41761-070F-43EA-B302-C90910850260";
background = {
paths = (
{
closed = 1;
nodes = (
"75 274 OFFCURVE",
"75 145 CURVE SMOOTH",
"75 96 OFFCURVE",
"75 46 OFFCURVE",
"75 -4 CURVE SMOOTH",
"75 -127 OFFCURVE",
"62 -150 OFFCURVE",
"-21 -170 CURVE",
"-16 -190 LINE",
"111 -190 OFFCURVE",
"167 -146 OFFCURVE",
"167 -47 CURVE SMOOTH",
"167 48 OFFCURVE",
"164 86 OFFCURVE",
"164 172 CURVE SMOOTH",
"164 257 OFFCURVE",
"166 374 OFFCURVE",
"171 417 CURVE",
"130 417 OFFCURVE",
"95 413 OFFCURVE",
"54 397 CURVE",
"73 356 OFFCURVE"
);
}
);
};
hints = (
{
origin = "{0, 2}";
target = "{0, 9}";
}
);
layerId = "03FB7880-A234-4BC5-9B10-7ABCF3FD4387";
name = "Regular Nov 21 15, 22:38";
paths = (
{
closed = 1;
nodes = (
"73 356 OFFCURVE",
"75 291 OFFCURVE",
"75 -4 CURVE SMOOTH",
"75 -131 OFFCURVE",
"54 -157 OFFCURVE",
"-21 -170 CURVE",
"-16 -190 LINE",
"111 -190 OFFCURVE",
"167 -146 OFFCURVE",
"167 -47 CURVE SMOOTH",
"167 48 OFFCURVE",
"164 86 OFFCURVE",
"164 172 CURVE SMOOTH",
"164 257 OFFCURVE",
"166 374 OFFCURVE",
"171 417 CURVE",
"130 417 OFFCURVE",
"95 413 OFFCURVE",
"54 397 CURVE"
);
}
);
width = 231;
}
);
leftKerningGroup = j;
rightKerningGroup = j;
unicode = 0237;
},
{
color = 4;
glyphname = k;
lastChange = "2015-12-28 19:12:02 +0000";
layers = (
{
anchors = (
{
name = bottom;
position = "{223, 0}";
},
{
name = top;
position = "{223, 407}";
}
);
hints = (
{
horizontal = 1;
origin = "{0, 34}";
},
{
origin = "{0, 34}";
target = "{0, 25}";
},
{
place = "{320.000000, 92.000000}";
}
);
layerId = "51F41761-070F-43EA-B302-C90910850260";
name = Regular;
paths = (
{
closed = 1;
nodes = (
"143 -6 OFFCURVE",
"163 -4 OFFCURVE",
"182 0 CURVE",
"172 22 OFFCURVE",
"165 70 OFFCURVE",
"162 142 CURVE",
"208 193 LINE",
"268 102 OFFCURVE",
"314 28 OFFCURVE",
"332 -6 CURVE",
"380 -6 OFFCURVE",
"418 -1 OFFCURVE",
"456 15 CURVE",
"408 51 OFFCURVE",
"339 156 OFFCURVE",
"274 265 CURVE",
"325 320 OFFCURVE",
"378 375 OFFCURVE",
"424 418 CURVE",
"391 418 OFFCURVE",
"361 416 OFFCURVE",
"321 407 CURVE",
"321 384 OFFCURVE",
"293 348 OFFCURVE",
"161 207 CURVE",
"161 227 LINE SMOOTH",
"161 338 OFFCURVE",
"168 477 OFFCURVE",
"177 547 CURVE",
"131 547 OFFCURVE",
"96 541 OFFCURVE",
"60 527 CURVE",
"66 468 OFFCURVE",
"70 367 OFFCURVE",
"70 255 CURVE SMOOTH",
"70 171 OFFCURVE",
"67 73 OFFCURVE",
"63 0 CURVE",
"86 -4 OFFCURVE",
"106 -6 OFFCURVE",
"124 -6 CURVE SMOOTH"
);
}
);
width = 445;
},
{
anchors = (
{
name = bottom;
position = "{243, 0}";
},
{
name = top;
position = "{243, 407}";
}
);
layerId = "0E844BAD-773F-41FF-B6D6-C35F1E5E991C";
name = Bold;
paths = (
{
closed = 1;
nodes = (
"151 -6 OFFCURVE",
"175 -4 OFFCURVE",
"197 0 CURVE",
"188 20 OFFCURVE",
"181 61 OFFCURVE",
"178 122 CURVE",
"219 168 LINE",
"271 88 OFFCURVE",
"311 25 OFFCURVE",
"327 -6 CURVE",
"391 -6 OFFCURVE",
"451 -1 OFFCURVE",
"491 15 CURVE",
"443 51 OFFCURVE",
"373 156 OFFCURVE",
"309 266 CURVE",
"361 320 OFFCURVE",
"413 374 OFFCURVE",
"459 418 CURVE",
"416 418 OFFCURVE",
"378 416 OFFCURVE",
"326 407 CURVE",
"326 383 OFFCURVE",
"299 348 OFFCURVE",
"176 217 CURVE",
"176 227 LINE SMOOTH",
"176 338 OFFCURVE",
"183 477 OFFCURVE",
"192 547 CURVE",
"130 547 OFFCURVE",
"83 541 OFFCURVE",
"35 527 CURVE",
"41 468 OFFCURVE",
"45 367 OFFCURVE",
"45 255 CURVE SMOOTH",
"45 171 OFFCURVE",
"42 73 OFFCURVE",
"38 0 CURVE",
"72 -4 OFFCURVE",
"102 -6 OFFCURVE",
"129 -6 CURVE SMOOTH"
);
}
);
width = 470;
}
);
leftKerningGroup = h;
leftMetricsKey = l;
rightKerningGroup = k;
unicode = 006B;
},
{
color = 4;
glyphname = l;
lastChange = "2015-12-28 19:12:02 +0000";
layers = (
{
anchors = (
{
name = bottom;
position = "{125, 0}";
},
{
name = center;
position = "{125, 280}";
},
{
name = top;
position = "{125, 527}";
},
{
name = topright;
position = "{269, 407}";
}
);
hints = (
{
origin = "{0, 14}";
target = "{0, 5}";
}
);
layerId = "51F41761-070F-43EA-B302-C90910850260";
name = Regular;
paths = (
{
closed = 1;
nodes = (
"150 -9 OFFCURVE",
"180 0 OFFCURVE",
"204 27 CURVE",
"173 61 OFFCURVE",
"165 84 OFFCURVE",
"165 192 CURVE SMOOTH",
"165 356 OFFCURVE",
"170 485 OFFCURVE",
"177 547 CURVE",
"136 547 OFFCURVE",
"101 543 OFFCURVE",
"60 527 CURVE",
"73 480 OFFCURVE",
"79 406 OFFCURVE",
"79 297 CURVE SMOOTH",
"79 208 OFFCURVE",
"75 144 OFFCURVE",
"75 73 CURVE SMOOTH",
"75 10 OFFCURVE",
"91 -9 OFFCURVE",
"132 -9 CURVE SMOOTH"
);
}
);
width = 244;
},
{
anchors = (
{
name = bottom;
position = "{123, 0}";
},
{
name = center;
position = "{123, 280}";
},
{
name = top;
position = "{123, 527}";
},
{
name = topright;
position = "{282, 407}";
}
);
layerId = "0E844BAD-773F-41FF-B6D6-C35F1E5E991C";
name = Bold;
paths = (
{
closed = 1;
nodes = (
"150 -9 OFFCURVE",
"188 0 OFFCURVE",
"219 27 CURVE",
"188 61 OFFCURVE",
"180 84 OFFCURVE",
"180 192 CURVE SMOOTH",
"180 356 OFFCURVE",
"185 485 OFFCURVE",
"192 547 CURVE",
"137 547 OFFCURVE",
"90 543 OFFCURVE",
"35 527 CURVE",
"48 480 OFFCURVE",
"54 406 OFFCURVE",
"54 297 CURVE SMOOTH",
"54 208 OFFCURVE",
"50 144 OFFCURVE",
"50 73 CURVE SMOOTH",
"50 10 OFFCURVE",
"72 -9 OFFCURVE",
"127 -9 CURVE SMOOTH"
);
}
);
width = 237;
},
{
anchors = (
{
name = bottom;
position = "{117, 0}";
},
{
name = center;
position = "{117, 225}";
},
{
name = top;
position = "{117, 630}";
},
{
name = topright;
position = "{216, 450}";
}
);
associatedMasterId = "51F41761-070F-43EA-B302-C90910850260";
hints = (
{
origin = "{0, 3}";
target = "{0, 0}";
}
);
layerId = "F2CD3040-392B-4D51-9EB3-A6FFBC77C3DB";
name = "Regular Nov 21 15, 18:24";
paths = (
{
closed = 1;
nodes = (
"161 0 LINE",
"161 585 LINE",
"71 585 LINE",
"71 0 LINE"
);
}
);
width = 234;
}
);
leftKerningGroup = h;
rightKerningGroup = l;
unicode = 006C;
},
{
color = 4;
glyphname = m;
lastChange = "2015-12-28 19:12:02 +0000";
layers = (
{
anchors = (
{
name = bottom;
position = "{376, 0}";
},
{
name = top;
position = "{376, 407}";
}
);
layerId = "0E844BAD-773F-41FF-B6D6-C35F1E5E991C";
name = Bold;
paths = (
{
closed = 1;
nodes = (
"180 -6 OFFCURVE",
"207 -4 OFFCURVE",
"226 0 CURVE",
"213 29 OFFCURVE",
"206 82 OFFCURVE",
"206 150 CURVE SMOOTH",
"206 197 OFFCURVE",
"207 238 OFFCURVE",
"209 273 CURVE",
"223 284 OFFCURVE",
"238 290 OFFCURVE",
"261 290 CURVE SMOOTH",
"302 290 OFFCURVE",
"319 268 OFFCURVE",
"319 215 CURVE SMOOTH",
"319 139 OFFCURVE",
"316 56 OFFCURVE",
"312 0 CURVE",
"335 -4 OFFCURVE",
"362 -6 OFFCURVE",
"383 -6 CURVE SMOOTH",
"412 -6 OFFCURVE",
"452 -4 OFFCURVE",
"471 0 CURVE",
"458 29 OFFCURVE",
"451 82 OFFCURVE",
"451 150 CURVE SMOOTH",
"451 179 OFFCURVE",
"454 242 OFFCURVE",
"455 274 CURVE",
"469 285 OFFCURVE",
"484 290 OFFCURVE",
"506 290 CURVE SMOOTH",
"547 290 OFFCURVE",
"564 268 OFFCURVE",
"564 215 CURVE SMOOTH",
"564 139 OFFCURVE",
"561 56 OFFCURVE",
"557 0 CURVE",
"580 -4 OFFCURVE",
"607 -6 OFFCURVE",
"628 -6 CURVE SMOOTH",
"657 -6 OFFCURVE",
"697 -4 OFFCURVE",
"716 0 CURVE",
"703 29 OFFCURVE",
"696 82 OFFCURVE",
"696 150 CURVE SMOOTH",
"696 181 OFFCURVE",
"700 251 OFFCURVE",
"700 280 CURVE SMOOTH",
"700 362 OFFCURVE",
"667 418 OFFCURVE",
"573 418 CURVE SMOOTH",
"520 418 OFFCURVE",
"476 391 OFFCURVE",
"445 347 CURVE",
"429 391 OFFCURVE",
"393 418 OFFCURVE",
"328 418 CURVE SMOOTH",
"279 418 OFFCURVE",
"239 395 OFFCURVE",
"208 357 CURVE",
"201 393 OFFCURVE",
"180 414 OFFCURVE",
"137 414 CURVE SMOOTH",
"112 414 OFFCURVE",
"69 405 OFFCURVE",
"35 378 CURVE",
"66 344 OFFCURVE",
"74 321 OFFCURVE",
"74 213 CURVE SMOOTH",
"74 139 OFFCURVE",
"71 57 OFFCURVE",
"67 0 CURVE",
"90 -4 OFFCURVE",
"131 -6 OFFCURVE",
"158 -6 CURVE SMOOTH"
);
}
);
width = 751;
},
{
anchors = (
{
name = bottom;
position = "{382, 0}";
},
{
name = top;
position = "{382, 407}";
}
);
background = {
paths = (
{
closed = 1;
nodes = (
"115 -4 OFFCURVE",
"135 -6 OFFCURVE",
"153 -6 CURVE SMOOTH",
"172 -6 OFFCURVE",
"192 -4 OFFCURVE",
"211 0 CURVE",
"198 29 OFFCURVE",
"191 82 OFFCURVE",
"191 150 CURVE SMOOTH",
"191 181 OFFCURVE",
"195 251 OFFCURVE",
"195 280 CURVE SMOOTH",
"195 359 OFFCURVE",
"141 407 OFFCURVE",
"52 407 CURVE",
"47 387 LINE",
"86 375 OFFCURVE",
"99 344 OFFCURVE",
"99 262 CURVE SMOOTH",
"99 171 OFFCURVE",
"96 70 OFFCURVE",
"92 0 CURVE"
);
},
{
closed = 1;
nodes = (
"445 362 OFFCURVE",
"415 418 OFFCURVE",
"328 418 CURVE SMOOTH",
"266 418 OFFCURVE",
"204 384 OFFCURVE",
"169 331 CURVE",
"177 305 LINE",
"206 329 OFFCURVE",
"239 340 OFFCURVE",
"281 340 CURVE SMOOTH",
"329 340 OFFCURVE",
"349 318 OFFCURVE",
"349 265 CURVE SMOOTH",
"349 171 OFFCURVE",
"346 70 OFFCURVE",
"342 0 CURVE",
"365 -4 OFFCURVE",
"385 -6 OFFCURVE",
"403 -6 CURVE SMOOTH",
"422 -6 OFFCURVE",
"442 -4 OFFCURVE",
"461 0 CURVE",
"448 29 OFFCURVE",
"441 82 OFFCURVE",
"441 150 CURVE SMOOTH",
"441 181 OFFCURVE",
"445 251 OFFCURVE",
"445 280 CURVE SMOOTH"
);
}
);
};
hints = (
{
horizontal = 1;
origin = "{0, 59}";
target = "{0, 11}";
},
{
origin = "{0, 71}";
target = "{0, 5}";
},
{
origin = "{0, 14}";
target = "{0, 26}";
},
{
origin = "{0, 35}";
target = "{0, 47}";
},
{
horizontal = 1;
origin = "{0, 77}";
target = "{0, 74}";
}
);
layerId = "51F41761-070F-43EA-B302-C90910850260";
name = Regular;
paths = (
{
closed = 1;
nodes = (
"172 -6 OFFCURVE",
"192 -4 OFFCURVE",
"211 0 CURVE",
"198 29 OFFCURVE",
"191 82 OFFCURVE",
"191 150 CURVE SMOOTH",
"191 214 OFFCURVE",
"194 267 OFFCURVE",
"195 308 CURVE",
"218 323 OFFCURVE",
"244 330 OFFCURVE",
"276 330 CURVE SMOOTH",
"324 330 OFFCURVE",
"344 308 OFFCURVE",
"344 255 CURVE SMOOTH",
"344 165 OFFCURVE",
"341 67 OFFCURVE",
"337 0 CURVE",
"360 -4 OFFCURVE",
"380 -6 OFFCURVE",
"398 -6 CURVE SMOOTH",
"417 -6 OFFCURVE",
"437 -4 OFFCURVE",
"456 0 CURVE",
"443 29 OFFCURVE",
"436 82 OFFCURVE",
"436 150 CURVE SMOOTH",
"436 185 OFFCURVE",
"439 257 OFFCURVE",
"439 308 CURVE",
"462 323 OFFCURVE",
"489 330 OFFCURVE",
"521 330 CURVE SMOOTH",
"569 330 OFFCURVE",
"589 308 OFFCURVE",
"589 255 CURVE SMOOTH",
"589 165 OFFCURVE",
"586 67 OFFCURVE",
"582 0 CURVE",
"605 -4 OFFCURVE",
"625 -6 OFFCURVE",
"643 -6 CURVE SMOOTH",
"662 -6 OFFCURVE",
"682 -4 OFFCURVE",
"701 0 CURVE",
"688 29 OFFCURVE",
"681 82 OFFCURVE",
"681 150 CURVE SMOOTH",
"681 181 OFFCURVE",
"685 251 OFFCURVE",
"685 280 CURVE SMOOTH",
"685 362 OFFCURVE",
"655 418 OFFCURVE",
"568 418 CURVE SMOOTH",
"517 418 OFFCURVE",
"466 391 OFFCURVE",
"431 346 CURVE",
"417 391 OFFCURVE",
"384 418 OFFCURVE",
"323 418 CURVE SMOOTH",
"276 418 OFFCURVE",
"228 394 OFFCURVE",
"193 355 CURVE",
"188 392 OFFCURVE",
"170 414 OFFCURVE",
"132 414 CURVE SMOOTH",
"114 414 OFFCURVE",
"84 405 OFFCURVE",
"60 378 CURVE",
"91 344 OFFCURVE",
"99 321 OFFCURVE",
"99 213 CURVE SMOOTH",
"99 139 OFFCURVE",
"96 57 OFFCURVE",
"92 0 CURVE",
"115 -4 OFFCURVE",
"135 -6 OFFCURVE",
"153 -6 CURVE SMOOTH"
);
}
);
width = 761;
},
{
anchors = (
{
name = bottom;
position = "{244, 0}";
},
{
name = top;
position = "{244, 450}";
}
);
associatedMasterId = "51F41761-070F-43EA-B302-C90910850260";
hints = (
{
horizontal = 1;
origin = "{0, 0}";
target = "{1, 3}";
},
{
origin = "{1, 7}";
target = "{1, 8}";
},
{
origin = "{0, 12}";
target = "{0, 8}";
}
);
layerId = "4F4173B0-E80B-4D2B-A0C7-F6A199F707A1";
name = "Regular Nov 20 15, 19:58";
paths = (
{
closed = 1;
nodes = (
"156 330 LINE",
"187 349 OFFCURVE",
"227 361 OFFCURVE",
"261 361 CURVE SMOOTH",
"310 361 OFFCURVE",
"330 338 OFFCURVE",
"330 282 CURVE SMOOTH",
"330 0 LINE",
"420 0 LINE",
"420 282 LINE SMOOTH",
"420 370 OFFCURVE",
"379 418 OFFCURVE",
"301 418 CURVE SMOOTH",
"249 418 OFFCURVE",
"212 403 OFFCURVE",
"146 361 CURVE"
);
},
{
closed = 1;
nodes = (
"107 415 LINE",
"85 406 OFFCURVE",
"57 388 OFFCURVE",
"45 375 CURVE",
"64 347 OFFCURVE",
"73 310 OFFCURVE",
"73 257 CURVE SMOOTH",
"73 0 LINE",
"163 0 LINE",
"163 360 LINE"
);
}
);
width = 488;
}
);
leftKerningGroup = n;
leftMetricsKey = n;
rightKerningGroup = n;
rightMetricsKey = n;
unicode = 006D;
},
{
color = 4;
glyphname = n;
lastChange = "2015-12-28 19:12:02 +0000";
layers = (
{
anchors = (
{
name = bottom;
position = "{244, 0}";
},
{
name = top;
position = "{244, 450}";
}
);
associatedMasterId = "51F41761-070F-43EA-B302-C90910850260";
hints = (
{
horizontal = 1;
origin = "{0, 0}";
target = "{1, 3}";
},
{
origin = "{1, 7}";
target = "{1, 8}";
},
{
origin = "{0, 12}";
target = "{0, 8}";
}
);
layerId = "4F4173B0-E80B-4D2B-A0C7-F6A199F707A1";
name = "Regular Nov 20 15, 19:58";
paths = (
{
closed = 1;
nodes = (
"156 330 LINE",
"187 349 OFFCURVE",
"227 361 OFFCURVE",
"261 361 CURVE SMOOTH",
"310 361 OFFCURVE",
"330 338 OFFCURVE",
"330 282 CURVE SMOOTH",
"330 0 LINE",
"420 0 LINE",
"420 282 LINE SMOOTH",
"420 370 OFFCURVE",
"379 418 OFFCURVE",
"301 418 CURVE SMOOTH",
"249 418 OFFCURVE",
"212 403 OFFCURVE",
"146 361 CURVE"
);
},
{
closed = 1;
nodes = (
"107 415 LINE",
"85 406 OFFCURVE",
"57 388 OFFCURVE",
"45 375 CURVE",
"64 347 OFFCURVE",
"73 310 OFFCURVE",
"73 257 CURVE SMOOTH",
"73 0 LINE",
"163 0 LINE",
"163 360 LINE"
);
}
);
width = 488;
},
{
anchors = (
{
name = bottom;
position = "{262, 0}";
},
{
name = top;
position = "{262, 407}";
}
);
background = {
paths = (
{
closed = 1;
nodes = (
"115 -4 OFFCURVE",
"135 -6 OFFCURVE",
"153 -6 CURVE SMOOTH",
"172 -6 OFFCURVE",
"192 -4 OFFCURVE",
"211 0 CURVE",
"198 29 OFFCURVE",
"191 82 OFFCURVE",
"191 150 CURVE SMOOTH",
"191 181 OFFCURVE",
"195 251 OFFCURVE",
"195 280 CURVE SMOOTH",
"195 359 OFFCURVE",
"141 407 OFFCURVE",
"52 407 CURVE",
"47 387 LINE",
"86 375 OFFCURVE",
"99 344 OFFCURVE",
"99 262 CURVE SMOOTH",
"99 171 OFFCURVE",
"96 70 OFFCURVE",
"92 0 CURVE"
);
},
{
closed = 1;
nodes = (
"445 362 OFFCURVE",
"415 418 OFFCURVE",
"328 418 CURVE SMOOTH",
"266 418 OFFCURVE",
"204 384 OFFCURVE",
"169 331 CURVE",
"177 305 LINE",
"206 329 OFFCURVE",
"239 340 OFFCURVE",
"281 340 CURVE SMOOTH",
"329 340 OFFCURVE",
"349 318 OFFCURVE",
"349 265 CURVE SMOOTH",
"349 171 OFFCURVE",
"346 70 OFFCURVE",
"342 0 CURVE",
"365 -4 OFFCURVE",
"385 -6 OFFCURVE",
"403 -6 CURVE SMOOTH",
"422 -6 OFFCURVE",
"442 -4 OFFCURVE",
"461 0 CURVE",
"448 29 OFFCURVE",
"441 82 OFFCURVE",
"441 150 CURVE SMOOTH",
"441 181 OFFCURVE",
"445 251 OFFCURVE",
"445 280 CURVE SMOOTH"
);
}
);
};
hints = (
{
horizontal = 1;
origin = "{0, 32}";
target = "{0, 11}";
},
{
origin = "{0, 44}";
target = "{0, 5}";
},
{
origin = "{0, 14}";
target = "{0, 26}";
},
{
horizontal = 1;
origin = "{0, 50}";
target = "{0, 47}";
}
);
layerId = "51F41761-070F-43EA-B302-C90910850260";
name = Regular;
paths = (
{
closed = 1;
nodes = (
"172 -6 OFFCURVE",
"192 -4 OFFCURVE",
"211 0 CURVE",
"198 29 OFFCURVE",
"191 82 OFFCURVE",
"191 150 CURVE SMOOTH",
"191 214 OFFCURVE",
"194 267 OFFCURVE",
"195 308 CURVE",
"219 323 OFFCURVE",
"247 330 OFFCURVE",
"281 330 CURVE SMOOTH",
"329 330 OFFCURVE",
"349 308 OFFCURVE",
"349 255 CURVE SMOOTH",
"349 165 OFFCURVE",
"346 67 OFFCURVE",
"342 0 CURVE",
"365 -4 OFFCURVE",
"385 -6 OFFCURVE",
"403 -6 CURVE SMOOTH",
"422 -6 OFFCURVE",
"442 -4 OFFCURVE",
"461 0 CURVE",
"448 29 OFFCURVE",
"441 82 OFFCURVE",
"441 150 CURVE SMOOTH",
"441 181 OFFCURVE",
"445 251 OFFCURVE",
"445 280 CURVE SMOOTH",
"445 362 OFFCURVE",
"415 418 OFFCURVE",
"328 418 CURVE SMOOTH",
"279 418 OFFCURVE",
"229 394 OFFCURVE",
"194 354 CURVE",
"189 392 OFFCURVE",
"170 414 OFFCURVE",
"132 414 CURVE SMOOTH",
"114 414 OFFCURVE",
"84 405 OFFCURVE",
"60 378 CURVE",
"91 344 OFFCURVE",
"99 321 OFFCURVE",
"99 213 CURVE SMOOTH",
"99 139 OFFCURVE",
"96 57 OFFCURVE",
"92 0 CURVE",
"115 -4 OFFCURVE",
"135 -6 OFFCURVE",
"153 -6 CURVE SMOOTH"
);
}
);
width = 521;
},
{
anchors = (
{
name = bottom;
position = "{256, 0}";
},
{
name = top;
position = "{266, 407}";
}
);
layerId = "0E844BAD-773F-41FF-B6D6-C35F1E5E991C";
name = Bold;
paths = (
{
closed = 1;
nodes = (
"180 -6 OFFCURVE",
"207 -4 OFFCURVE",
"226 0 CURVE",
"213 29 OFFCURVE",
"206 82 OFFCURVE",
"206 150 CURVE SMOOTH",
"206 196 OFFCURVE",
"207 237 OFFCURVE",
"209 271 CURVE",
"224 284 OFFCURVE",
"241 290 OFFCURVE",
"266 290 CURVE SMOOTH",
"307 290 OFFCURVE",
"324 268 OFFCURVE",
"324 215 CURVE SMOOTH",
"324 139 OFFCURVE",
"321 56 OFFCURVE",
"317 0 CURVE",
"340 -4 OFFCURVE",
"367 -6 OFFCURVE",
"388 -6 CURVE SMOOTH",
"417 -6 OFFCURVE",
"457 -4 OFFCURVE",
"476 0 CURVE",
"463 29 OFFCURVE",
"456 82 OFFCURVE",
"456 150 CURVE SMOOTH",
"456 181 OFFCURVE",
"460 251 OFFCURVE",
"460 280 CURVE SMOOTH",
"460 362 OFFCURVE",
"430 418 OFFCURVE",
"343 418 CURVE SMOOTH",
"290 418 OFFCURVE",
"243 394 OFFCURVE",
"208 355 CURVE",
"202 392 OFFCURVE",
"181 414 OFFCURVE",
"137 414 CURVE SMOOTH",
"112 414 OFFCURVE",
"69 405 OFFCURVE",
"35 378 CURVE",
"66 344 OFFCURVE",
"74 321 OFFCURVE",
"74 213 CURVE SMOOTH",
"74 139 OFFCURVE",
"71 57 OFFCURVE",
"67 0 CURVE",
"90 -4 OFFCURVE",
"131 -6 OFFCURVE",
"158 -6 CURVE SMOOTH"
);
}
);
width = 511;
}
);
leftKerningGroup = n;
rightKerningGroup = n;
unicode = 006E;
},
{
color = 4;
glyphname = eng;
lastChange = "2015-12-28 19:12:02 +0000";
layers = (
{
background = {
paths = (
{
closed = 0;
nodes = (
"349 255 LINE"
);
},
{
closed = 0;
nodes = (
"349 106 LINE"
);
}
);
};
guideLines = (
{
angle = 270;
position = "{349, 282}";
}
);
hints = (
{
horizontal = 1;
origin = "{0, 23}";
target = down;
type = TopGhost;
},
{
horizontal = 1;
origin = "{0, 8}";
target = "{0, 38}";
},
{
horizontal = 1;
origin = "{0, 14}";
target = down;
type = TopGhost;
},
{
origin = "{0, 20}";
target = "{0, 32}";
},
{
origin = "{0, 42}";
target = "{0, 2}";
}
);
layerId = "51F41761-070F-43EA-B302-C90910850260";
name = Regular;
paths = (
{
closed = 1;
nodes = (
"381 -111 OFFCURVE",
"441 -63 OFFCURVE",
"441 63 CURVE SMOOTH",
"441 115 OFFCURVE",
"445 232 OFFCURVE",
"445 280 CURVE SMOOTH",
"445 362 OFFCURVE",
"415 418 OFFCURVE",
"328 418 CURVE SMOOTH",
"279 418 OFFCURVE",
"229 394 OFFCURVE",
"194 354 CURVE",
"189 392 OFFCURVE",
"170 414 OFFCURVE",
"132 414 CURVE SMOOTH",
"114 414 OFFCURVE",
"84 405 OFFCURVE",
"60 378 CURVE",
"91 344 OFFCURVE",
"99 321 OFFCURVE",
"99 213 CURVE SMOOTH",
"99 139 OFFCURVE",
"96 57 OFFCURVE",
"92 0 CURVE",
"115 -4 OFFCURVE",
"135 -6 OFFCURVE",
"153 -6 CURVE SMOOTH",
"172 -6 OFFCURVE",
"192 -4 OFFCURVE",
"211 0 CURVE",
"198 29 OFFCURVE",
"191 82 OFFCURVE",
"191 150 CURVE SMOOTH",
"191 214 OFFCURVE",
"194 267 OFFCURVE",
"195 308 CURVE",
"219 323 OFFCURVE",
"247 330 OFFCURVE",
"281 330 CURVE SMOOTH",
"329 330 OFFCURVE",
"349 308 OFFCURVE",
"349 255 CURVE SMOOTH",
"349 106 LINE SMOOTH",
"349 -54 OFFCURVE",
"316 -109 OFFCURVE",
"250 -171 CURVE",
"261 -189 LINE"
);
}
);
width = 521;
},
{
guideLines = (
{
angle = 270;
position = "{324, 242}";
}
);
layerId = "0E844BAD-773F-41FF-B6D6-C35F1E5E991C";
name = Bold;
paths = (
{
closed = 1;
nodes = (
"386 -111 OFFCURVE",
"456 -63 OFFCURVE",
"456 63 CURVE SMOOTH",
"456 115 OFFCURVE",
"460 232 OFFCURVE",
"460 280 CURVE SMOOTH",
"460 362 OFFCURVE",
"430 418 OFFCURVE",
"343 418 CURVE SMOOTH",
"290 418 OFFCURVE",
"243 394 OFFCURVE",
"208 355 CURVE",
"202 392 OFFCURVE",
"181 414 OFFCURVE",
"137 414 CURVE SMOOTH",
"112 414 OFFCURVE",
"69 405 OFFCURVE",
"35 378 CURVE",
"66 344 OFFCURVE",
"74 321 OFFCURVE",
"74 213 CURVE SMOOTH",
"74 139 OFFCURVE",
"71 57 OFFCURVE",
"67 0 CURVE",
"90 -4 OFFCURVE",
"131 -6 OFFCURVE",
"158 -6 CURVE SMOOTH",
"180 -6 OFFCURVE",
"207 -4 OFFCURVE",
"226 0 CURVE",
"213 29 OFFCURVE",
"206 82 OFFCURVE",
"206 150 CURVE SMOOTH",
"206 196 OFFCURVE",
"207 237 OFFCURVE",
"209 271 CURVE",
"224 284 OFFCURVE",
"241 290 OFFCURVE",
"266 290 CURVE SMOOTH",
"307 290 OFFCURVE",
"324 268 OFFCURVE",
"324 215 CURVE SMOOTH",
"324 106 LINE SMOOTH",
"324 -42 OFFCURVE",
"291 -93 OFFCURVE",
"225 -151 CURVE",
"246 -189 LINE"
);
}
);
width = 506;
}
);
leftKerningGroup = n;
leftMetricsKey = n;
rightKerningGroup = j;
unicode = 014B;
},
{
color = 4;
glyphname = o;
lastChange = "2015-12-28 19:12:02 +0000";
layers = (
{
anchors = (
{
name = bottom;
position = "{247, 0}";
},
{
name = center;
position = "{247, 204}";
},
{
name = ogonek;
position = "{444, 10}";
},
{
name = top;
position = "{247, 407}";
},
{
name = topright;
position = "{473, 407}";
}
);
background = {
paths = (
{
closed = 1;
nodes = (
"382 287 OFFCURVE",
"405 310 OFFCURVE",
"405 339 CURVE SMOOTH",
"405 368 OFFCURVE",
"382 391 OFFCURVE",
"353 391 CURVE SMOOTH",
"324 391 OFFCURVE",
"301 368 OFFCURVE",
"301 339 CURVE SMOOTH",
"301 310 OFFCURVE",
"324 287 OFFCURVE",
"353 287 CURVE SMOOTH"
);
}
);
};
hints = (
{
horizontal = 1;
origin = "{0, 11}";
target = "{1, 11}";
},
{
horizontal = 1;
origin = "{1, 5}";
target = "{0, 5}";
},
{
origin = "{0, 8}";
target = "{1, 2}";
},
{
origin = "{1, 8}";
target = "{0, 2}";
}
);
layerId = "51F41761-070F-43EA-B302-C90910850260";
name = Regular;
paths = (
{
closed = 1;
nodes = (
"359 -11 OFFCURVE",
"453 82 OFFCURVE",
"453 215 CURVE SMOOTH",
"453 337 OFFCURVE",
"376 418 OFFCURVE",
"261 418 CURVE SMOOTH",
"131 418 OFFCURVE",
"40 325 OFFCURVE",
"40 192 CURVE SMOOTH",
"40 70 OFFCURVE",
"115 -11 OFFCURVE",
"226 -11 CURVE SMOOTH"
);
},
{
closed = 1;
nodes = (
"180 34 OFFCURVE",
"132 94 OFFCURVE",
"132 197 CURVE SMOOTH",
"132 284 OFFCURVE",
"180 339 OFFCURVE",
"256 339 CURVE",
"322 318 OFFCURVE",
"361 256 OFFCURVE",
"361 177 CURVE SMOOTH",
"361 87 OFFCURVE",
"318 34 OFFCURVE",
"244 34 CURVE SMOOTH"
);
}
);
width = 493;
},
{
anchors = (
{
name = bottom;
position = "{252, 0}";
},
{
name = center;
position = "{252, 204}";
},
{
name = ogonek;
position = "{453, 10}";
},
{
name = top;
position = "{252, 407}";
},
{
name = topright;
position = "{483, 407}";
}
);
layerId = "0E844BAD-773F-41FF-B6D6-C35F1E5E991C";
name = Bold;
paths = (
{
closed = 1;
nodes = (
"376 -11 OFFCURVE",
"478 82 OFFCURVE",
"478 215 CURVE SMOOTH",
"478 337 OFFCURVE",
"393 418 OFFCURVE",
"266 418 CURVE SMOOTH",
"124 418 OFFCURVE",
"25 325 OFFCURVE",
"25 192 CURVE SMOOTH",
"25 70 OFFCURVE",
"108 -11 OFFCURVE",
"231 -11 CURVE SMOOTH"
);
},
{
closed = 1;
nodes = (
"194 54 OFFCURVE",
"157 103 OFFCURVE",
"157 177 CURVE SMOOTH",
"157 252 OFFCURVE",
"197 299 OFFCURVE",
"261 299 CURVE",
"313 283 OFFCURVE",
"346 234 OFFCURVE",
"346 171 CURVE SMOOTH",
"346 97 OFFCURVE",
"310 54 OFFCURVE",
"249 54 CURVE SMOOTH"
);
}
);
width = 503;
},
{
anchors = (
{
name = bottom;
position = "{245, 0}";
},
{
name = center;
position = "{245, 204}";
},
{
name = ogonek;
position = "{441, 10}";
},
{
name = top;
position = "{246, 407}";
},
{
name = topright;
position = "{470, 407}";
}
);
associatedMasterId = "51F41761-070F-43EA-B302-C90910850260";
hints = (
{
place = "{67.000000, 131.000000}";
},
{
place = "{419.000000, 132.000000}";
},
{
horizontal = 1;
place = "{28.000000, 74.000000}";
},
{
horizontal = 1;
place = "{466.000000, 78.000000}";
}
);
layerId = "0B88702C-616E-4FC3-BBF5-DD91595994CD";
name = "Regular Nov 21 15, 18:01";
paths = (
{
closed = 1;
nodes = (
"116.294 418 OFFCURVE",
"15 325 OFFCURVE",
"15 192 CURVE SMOOTH",
"15 70 OFFCURVE",
"100.081 -11 OFFCURVE",
"226 -11 CURVE SMOOTH",
"373.648 -11 OFFCURVE",
"478 82 OFFCURVE",
"478 215 CURVE SMOOTH",
"478 337 OFFCURVE",
"390.974 418 OFFCURVE",
"261 418 CURVE SMOOTH"
);
},
{
closed = 1;
nodes = (
"188.571 54 OFFCURVE",
"147 99.276 OFFCURVE",
"147 177 CURVE SMOOTH",
"147 251.746 OFFCURVE",
"189.194 299 OFFCURVE",
"256 299 CURVE",
"312.571 274.557 OFFCURVE",
"346 226.247 OFFCURVE",
"346 157 CURVE SMOOTH",
"346 92.175 OFFCURVE",
"308.513 54 OFFCURVE",
"244 54 CURVE SMOOTH"
);
}
);
width = 490;
}
);
leftKerningGroup = o;
rightKerningGroup = o;
unicode = 006F;
},
{
color = 4;
glyphname = p;
lastChange = "2015-12-28 19:12:02 +0000";
layers = (
{
anchors = (
{
name = bottom;
position = "{263, 0}";
},
{
name = top;
position = "{263, 407}";
}
);
background = {
paths = (
{
closed = 1;
nodes = (
"89 102 OFFCURVE",
"84 -59 OFFCURVE",
"77 -140 CURVE",
"123 -140 OFFCURVE",
"158 -134 OFFCURVE",
"194 -120 CURVE",
"181 -73 OFFCURVE",
"175 1 OFFCURVE",
"175 112 CURVE SMOOTH",
"175 181 OFFCURVE",
"179 251 OFFCURVE",
"179 320 CURVE SMOOTH",
"179 365 OFFCURVE",
"165 397 OFFCURVE",
"136 418 CURVE",
"105 414 OFFCURVE",
"74 400 OFFCURVE",
"50 380 CURVE",
"81 347 OFFCURVE",
"89 325 OFFCURVE",
"89 275 CURVE SMOOTH"
);
},
{
closed = 1;
nodes = (
"128 22 LINE",
"165 1 OFFCURVE",
"209 -9 OFFCURVE",
"260 -9 CURVE SMOOTH",
"389 -9 OFFCURVE",
"465 65 OFFCURVE",
"465 192 CURVE",
"465 337 OFFCURVE",
"410 413 OFFCURVE",
"305 413 CURVE SMOOTH",
"244 413 OFFCURVE",
"180 377 OFFCURVE",
"145 324 CURVE",
"153 298 LINE",
"180 321 OFFCURVE",
"222 335 OFFCURVE",
"264 335 CURVE SMOOTH",
"338 335 OFFCURVE",
"368 289 OFFCURVE",
"368 178 CURVE SMOOTH",
"368 88 OFFCURVE",
"327 35 OFFCURVE",
"257 35 CURVE SMOOTH",
"214 35 OFFCURVE",
"177 62 OFFCURVE",
"153 112 CURVE"
);
}
);
};
hints = (
{
horizontal = 1;
origin = "{0, 8}";
target = "{1, 15}";
},
{
horizontal = 1;
origin = "{0, 14}";
target = "{1, 9}";
},
{
origin = "{0, 26}";
target = "{1, 3}";
},
{
origin = "{1, 12}";
target = "{0, 11}";
}
);
layerId = "51F41761-070F-43EA-B302-C90910850260";
name = Regular;
paths = (
{
closed = 1;
nodes = (
"123 -180 OFFCURVE",
"158 -174 OFFCURVE",
"194 -160 CURVE",
"185 -121 OFFCURVE",
"179 -67 OFFCURVE",
"177 8 CURVE",
"202 -4 OFFCURVE",
"230 -9 OFFCURVE",
"260 -9 CURVE SMOOTH",
"392 -9 OFFCURVE",
"470 73 OFFCURVE",
"470 212 CURVE SMOOTH",
"470 344 OFFCURVE",
"413 413 OFFCURVE",
"305 413 CURVE SMOOTH",
"260 413 OFFCURVE",
"213 393 OFFCURVE",
"178 362 CURVE",
"172 395 OFFCURVE",
"154 414 OFFCURVE",
"122 414 CURVE SMOOTH",
"104 414 OFFCURVE",
"74 405 OFFCURVE",
"50 378 CURVE",
"81 344 OFFCURVE",
"89 321 OFFCURVE",
"89 213 CURVE SMOOTH",
"89 49 OFFCURVE",
"84 -104 OFFCURVE",
"77 -180 CURVE"
);
},
{
closed = 1;
nodes = (
"226 39 OFFCURVE",
"197 53 OFFCURVE",
"175 79 CURVE",
"175 112 LINE SMOOTH",
"175 196 OFFCURVE",
"179 264 OFFCURVE",
"180 315 CURVE",
"208 329 OFFCURVE",
"245 339 OFFCURVE",
"278 339 CURVE",
"334 318 OFFCURVE",
"368 256 OFFCURVE",
"368 177 CURVE SMOOTH",
"368 90 OFFCURVE",
"327 39 OFFCURVE",
"257 39 CURVE SMOOTH"
);
}
);
width = 515;
},
{
anchors = (
{
name = bottom;
position = "{263, 0}";
},
{
name = top;
position = "{263, 407}";
}
);
layerId = "0E844BAD-773F-41FF-B6D6-C35F1E5E991C";
leftMetricsKey = "=n-5";
name = Bold;
paths = (
{
closed = 1;
nodes = (
"119 -180 OFFCURVE",
"166 -174 OFFCURVE",
"214 -160 CURVE",
"205 -123 OFFCURVE",
"200 -71 OFFCURVE",
"197 -1 CURVE",
"216 -6 OFFCURVE",
"237 -9 OFFCURVE",
"260 -9 CURVE SMOOTH",
"405 -9 OFFCURVE",
"490 73 OFFCURVE",
"490 212 CURVE SMOOTH",
"490 344 OFFCURVE",
"430 413 OFFCURVE",
"328 413 CURVE SMOOTH",
"277 413 OFFCURVE",
"231 394 OFFCURVE",
"197 362 CURVE",
"189 395 OFFCURVE",
"166 414 OFFCURVE",
"122 414 CURVE SMOOTH",
"99 414 OFFCURVE",
"61 405 OFFCURVE",
"30 378 CURVE",
"61 344 OFFCURVE",
"69 321 OFFCURVE",
"69 213 CURVE SMOOTH",
"69 49 OFFCURVE",
"64 -104 OFFCURVE",
"57 -180 CURVE"
);
},
{
closed = 1;
nodes = (
"234 57 OFFCURVE",
"213 66 OFFCURVE",
"195 84 CURVE",
"195 112 LINE SMOOTH",
"195 176 OFFCURVE",
"197 232 OFFCURVE",
"199 277 CURVE",
"222 290 OFFCURVE",
"251 299 OFFCURVE",
"278 299 CURVE",
"322 278 OFFCURVE",
"348 236 OFFCURVE",
"348 177 CURVE SMOOTH",
"348 102 OFFCURVE",
"314 57 OFFCURVE",
"257 57 CURVE SMOOTH"
);
}
);
width = 520;
},
{
anchors = (
{
name = bottom;
position = "{253, 0}";
},
{
name = ogonek;
position = "{399, -12}";
},
{
name = top;
position = "{253, 500}";
},
{
name = topright;
position = "{486, 500}";
}
);
associatedMasterId = "51F41761-070F-43EA-B302-C90910850260";
hints = (
{
horizontal = 1;
place = "{0.000000, 0.000000}";
},
{
place = "{0.000000, 0.000000}";
},
{
place = "{0.000000, 0.000000}";
}
);
layerId = "15B66CED-04CE-488B-9A4B-381885916D99";
name = "Regular Nov 20 15, 19:29";
paths = (
{
closed = 1;
nodes = (
"332 88 LINE",
"301 69 OFFCURVE",
"261 57 OFFCURVE",
"227 57 CURVE SMOOTH",
"178 57 OFFCURVE",
"158 80 OFFCURVE",
"158 136 CURVE SMOOTH",
"158 418 LINE",
"68 418 LINE",
"68 136 LINE SMOOTH",
"68 48 OFFCURVE",
"109 0 OFFCURVE",
"187 0 CURVE SMOOTH",
"239 0 OFFCURVE",
"276 15 OFFCURVE",
"342 57 CURVE"
);
},
{
closed = 1;
nodes = (
"422 -3 OFFCURVE",
"450 15 OFFCURVE",
"461 28 CURVE",
"430 56 OFFCURVE",
"415 93 OFFCURVE",
"415 147 CURVE SMOOTH",
"415 418 LINE",
"325 418 LINE",
"325 55 LINE",
"399 -12 LINE"
);
}
);
width = 506;
}
);
leftKerningGroup = p;
leftMetricsKey = "=n-10";
rightKerningGroup = o;
rightMetricsKey = "=o+5";
unicode = 0070;
},
{
color = 4;
glyphname = thorn;
lastChange = "2015-12-28 19:12:02 +0000";
layers = (
{
anchors = (
{
name = bottom;
position = "{250, 0}";
},
{
name = top;
position = "{250, 407}";
}
);
background = {
paths = (
{
closed = 1;
nodes = (
"379 -9 OFFCURVE",
"455 73 OFFCURVE",
"455 212 CURVE SMOOTH",
"455 344 OFFCURVE",
"400 413 OFFCURVE",
"295 413 CURVE SMOOTH",
"234 413 OFFCURVE",
"170 377 OFFCURVE",
"135 324 CURVE",
"143 298 LINE",
"172 321 OFFCURVE",
"223 339 OFFCURVE",
"268 339 CURVE",
"324 318 OFFCURVE",
"358 256 OFFCURVE",
"358 177 CURVE SMOOTH",
"358 87 OFFCURVE",
"317 34 OFFCURVE",
"247 34 CURVE SMOOTH",
"204 34 OFFCURVE",
"167 62 OFFCURVE",
"143 112 CURVE",
"118 22 LINE",
"155 1 OFFCURVE",
"199 -9 OFFCURVE",
"250 -9 CURVE SMOOTH"
);
},
{
closed = 1;
nodes = (
"113 -180 OFFCURVE",
"148 -174 OFFCURVE",
"184 -160 CURVE",
"171 -105 OFFCURVE",
"165 -19 OFFCURVE",
"165 112 CURVE SMOOTH",
"165 313 OFFCURVE",
"170 471 OFFCURVE",
"177 547 CURVE",
"136 547 OFFCURVE",
"101 543 OFFCURVE",
"60 527 CURVE",
"73 480 OFFCURVE",
"79 406 OFFCURVE",
"79 297 CURVE SMOOTH",
"79 98 OFFCURVE",
"74 -88 OFFCURVE",
"67 -180 CURVE"
);
}
);
};
hints = (
{
horizontal = 1;
origin = "{0, 8}";
target = "{1, 14}";
},
{
horizontal = 1;
origin = "{0, 14}";
target = "{1, 8}";
},
{
origin = "{0, 26}";
target = "{1, 2}";
},
{
origin = "{1, 11}";
target = "{0, 11}";
}
);
layerId = "51F41761-070F-43EA-B302-C90910850260";
name = Regular;
paths = (
{
closed = 1;
nodes = (
"113 -180 OFFCURVE",
"148 -174 OFFCURVE",
"184 -160 CURVE",
"175 -121 OFFCURVE",
"169 -67 OFFCURVE",
"167 8 CURVE",
"192 -4 OFFCURVE",
"220 -9 OFFCURVE",
"250 -9 CURVE SMOOTH",
"382 -9 OFFCURVE",
"460 73 OFFCURVE",
"460 212 CURVE SMOOTH",
"460 344 OFFCURVE",
"403 413 OFFCURVE",
"295 413 CURVE SMOOTH",
"250 413 OFFCURVE",
"203 393 OFFCURVE",
"168 362 CURVE",
"170 443 OFFCURVE",
"173 507 OFFCURVE",
"177 547 CURVE",
"136 547 OFFCURVE",
"101 543 OFFCURVE",
"60 527 CURVE",
"73 480 OFFCURVE",
"79 406 OFFCURVE",
"79 297 CURVE SMOOTH",
"79 98 OFFCURVE",
"74 -88 OFFCURVE",
"67 -180 CURVE"
);
},
{
closed = 1;
nodes = (
"216 39 OFFCURVE",
"187 53 OFFCURVE",
"165 79 CURVE",
"163 161 OFFCURVE",
"164 227 OFFCURVE",
"167 313 CURVE",
"196 328 OFFCURVE",
"234 339 OFFCURVE",
"268 339 CURVE",
"324 318 OFFCURVE",
"358 256 OFFCURVE",
"358 177 CURVE SMOOTH",
"358 90 OFFCURVE",
"317 39 OFFCURVE",
"247 39 CURVE SMOOTH"
);
}
);
width = 505;
},
{
anchors = (
{
name = bottom;
position = "{253, 0}";
},
{
name = top;
position = "{253, 407}";
}
);
background = {
paths = (
{
closed = 1;
nodes = (
"387 -9 OFFCURVE",
"470 73 OFFCURVE",
"470 212 CURVE SMOOTH",
"470 344 OFFCURVE",
"412 413 OFFCURVE",
"313 413 CURVE SMOOTH",
"243 413 OFFCURVE",
"183 377 OFFCURVE",
"150 324 CURVE",
"158 258 LINE",
"182 281 OFFCURVE",
"225 299 OFFCURVE",
"263 299 CURVE",
"307 278 OFFCURVE",
"333 236 OFFCURVE",
"333 177 CURVE SMOOTH",
"333 100 OFFCURVE",
"299 54 OFFCURVE",
"242 54 CURVE SMOOTH",
"207 54 OFFCURVE",
"177 82 OFFCURVE",
"158 132 CURVE",
"133 22 LINE",
"164 1 OFFCURVE",
"202 -9 OFFCURVE",
"245 -9 CURVE SMOOTH"
);
},
{
closed = 1;
nodes = (
"104 -180 OFFCURVE",
"151 -174 OFFCURVE",
"199 -160 CURVE",
"186 -89 OFFCURVE",
"180 22 OFFCURVE",
"180 192 CURVE SMOOTH",
"180 356 OFFCURVE",
"185 485 OFFCURVE",
"192 547 CURVE",
"137 547 OFFCURVE",
"90 543 OFFCURVE",
"35 527 CURVE",
"48 463 OFFCURVE",
"54 362 OFFCURVE",
"54 213 CURVE SMOOTH",
"54 49 OFFCURVE",
"49 -104 OFFCURVE",
"42 -180 CURVE"
);
}
);
};
layerId = "0E844BAD-773F-41FF-B6D6-C35F1E5E991C";
name = Bold;
paths = (
{
closed = 1;
nodes = (
"104 -180 OFFCURVE",
"151 -174 OFFCURVE",
"199 -160 CURVE",
"192 -121 OFFCURVE",
"187 -69 OFFCURVE",
"184 -1 CURVE",
"203 -6 OFFCURVE",
"223 -9 OFFCURVE",
"245 -9 CURVE SMOOTH",
"390 -9 OFFCURVE",
"475 73 OFFCURVE",
"475 212 CURVE SMOOTH",
"475 344 OFFCURVE",
"415 413 OFFCURVE",
"313 413 CURVE SMOOTH",
"262 413 OFFCURVE",
"216 394 OFFCURVE",
"182 363 CURVE",
"184 445 OFFCURVE",
"188 509 OFFCURVE",
"192 547 CURVE",
"137 547 OFFCURVE",
"90 543 OFFCURVE",
"35 527 CURVE",
"48 463 OFFCURVE",
"54 362 OFFCURVE",
"54 213 CURVE SMOOTH",
"54 49 OFFCURVE",
"49 -104 OFFCURVE",
"42 -180 CURVE"
);
},
{
closed = 1;
nodes = (
"219 57 OFFCURVE",
"199 66 OFFCURVE",
"181 83 CURVE",
"179 112 OFFCURVE",
"178 218 OFFCURVE",
"180 275 CURVE",
"204 289 OFFCURVE",
"235 299 OFFCURVE",
"263 299 CURVE",
"307 278 OFFCURVE",
"333 236 OFFCURVE",
"333 177 CURVE SMOOTH",
"333 102 OFFCURVE",
"299 57 OFFCURVE",
"242 57 CURVE SMOOTH"
);
}
);
width = 505;
}
);
leftKerningGroup = h;
leftMetricsKey = h;
rightKerningGroup = o;
rightMetricsKey = p;
unicode = 00FE;
},
{
color = 4;
glyphname = q;
lastChange = "2015-12-28 19:12:02 +0000";
layers = (
{
anchors = (
{
name = bottom;
position = "{252, 0}";
},
{
name = top;
position = "{252, 407}";
}
);
background = {
paths = (
{
closed = 1;
nodes = (
"169 308 LINE",
"199 326 OFFCURVE",
"240 339 OFFCURVE",
"278 339 CURVE",
"334 318 OFFCURVE",
"368 256 OFFCURVE",
"368 177 CURVE SMOOTH",
"368 87 OFFCURVE",
"327 34 OFFCURVE",
"257 34 CURVE SMOOTH",
"230 34 OFFCURVE",
"205 45 OFFCURVE",
"184 66 CURVE",
"180 91 OFFCURVE",
"178 125 OFFCURVE",
"178 192 CURVE SMOOTH",
"178 300 OFFCURVE",
"182 483 OFFCURVE",
"190 547 CURVE",
"149 547 OFFCURVE",
"114 543 OFFCURVE",
"73 527 CURVE",
"85 487 OFFCURVE",
"90 425 OFFCURVE",
"90 333 CURVE SMOOTH",
"90 260 OFFCURVE",
"88 207 OFFCURVE",
"88 207 CURVE SMOOTH",
"88 27 OFFCURVE",
"167 -9 OFFCURVE",
"260 -9 CURVE SMOOTH",
"389 -9 OFFCURVE",
"465 73 OFFCURVE",
"465 212 CURVE SMOOTH",
"465 344 OFFCURVE",
"410 413 OFFCURVE",
"305 413 CURVE SMOOTH",
"257 413 OFFCURVE",
"207 391 OFFCURVE",
"171 355 CURVE"
);
}
);
};
hints = (
{
horizontal = 1;
place = "{416.000000, -43.000000}";
},
{
horizontal = 1;
place = "{68.000000, -74.000000}";
},
{
place = "{445.000000, 445.000000}";
},
{
place = "{137.000000, -97.000000}";
}
);
layerId = "51F41761-070F-43EA-B302-C90910850260";
name = Regular;
paths = (
{
closed = 1;
nodes = (
"367 -180 OFFCURVE",
"402 -176 OFFCURVE",
"438 -165 CURVE",
"431 -92 OFFCURVE",
"426 55 OFFCURVE",
"426 213 CURVE SMOOTH",
"426 321 OFFCURVE",
"434 344 OFFCURVE",
"465 378 CURVE",
"441 405 OFFCURVE",
"411 414 OFFCURVE",
"393 414 CURVE SMOOTH",
"365 414 OFFCURVE",
"348 400 OFFCURVE",
"340 374 CURVE",
"303 403 OFFCURVE",
"261 418 OFFCURVE",
"215 418 CURVE SMOOTH",
"103 418 OFFCURVE",
"45 343 OFFCURVE",
"45 199 CURVE SMOOTH",
"45 60 OFFCURVE",
"102 -12 OFFCURVE",
"210 -12 CURVE SMOOTH",
"256 -12 OFFCURVE",
"304 11 OFFCURVE",
"340 47 CURVE",
"338 -58 OFFCURVE",
"332 -131 OFFCURVE",
"321 -180 CURVE"
);
},
{
closed = 1;
nodes = (
"177 50 OFFCURVE",
"142 106 OFFCURVE",
"142 193 CURVE SMOOTH",
"142 285 OFFCURVE",
"179 334 OFFCURVE",
"248 334 CURVE SMOOTH",
"281 334 OFFCURVE",
"311 326 OFFCURVE",
"335 310 CURVE",
"336 260 OFFCURVE",
"340 193 OFFCURVE",
"340 112 CURVE SMOOTH",
"340 91 LINE",
"310 64 OFFCURVE",
"271 45 OFFCURVE",
"237 40 CURVE"
);
}
);
width = 510;
},
{
anchors = (
{
name = bottom;
position = "{262, 0}";
},
{
name = top;
position = "{262, 407}";
}
);
layerId = "0E844BAD-773F-41FF-B6D6-C35F1E5E991C";
name = Bold;
paths = (
{
closed = 1;
nodes = (
"363 -180 OFFCURVE",
"410 -176 OFFCURVE",
"458 -165 CURVE",
"451 -108 OFFCURVE",
"446 47 OFFCURVE",
"446 213 CURVE SMOOTH",
"446 321 OFFCURVE",
"454 344 OFFCURVE",
"485 378 CURVE",
"454 405 OFFCURVE",
"416 414 OFFCURVE",
"393 414 CURVE SMOOTH",
"358 414 OFFCURVE",
"336 402 OFFCURVE",
"325 380 CURVE",
"289 405 OFFCURVE",
"249 418 OFFCURVE",
"205 418 CURVE SMOOTH",
"90 418 OFFCURVE",
"30 342 OFFCURVE",
"30 194 CURVE SMOOTH",
"30 59 OFFCURVE",
"88 -12 OFFCURVE",
"200 -12 CURVE SMOOTH",
"242 -12 OFFCURVE",
"284 6 OFFCURVE",
"319 36 CURVE",
"317 -63 OFFCURVE",
"311 -132 OFFCURVE",
"301 -180 CURVE"
);
},
{
closed = 1;
nodes = (
"194 70 OFFCURVE",
"167 116 OFFCURVE",
"167 178 CURVE SMOOTH",
"167 261 OFFCURVE",
"197 300 OFFCURVE",
"258 300 CURVE SMOOTH",
"278 300 OFFCURVE",
"298 295 OFFCURVE",
"316 287 CURVE",
"317 240 OFFCURVE",
"320 181 OFFCURVE",
"320 112 CURVE SMOOTH",
"320 102 LINE",
"294 79 OFFCURVE",
"264 63 OFFCURVE",
"237 60 CURVE"
);
}
);
width = 505;
},
{
anchors = (
{
name = bottom;
position = "{253, 0}";
},
{
name = ogonek;
position = "{399, -12}";
},
{
name = top;
position = "{253, 500}";
},
{
name = topright;
position = "{486, 500}";
}
);
associatedMasterId = "51F41761-070F-43EA-B302-C90910850260";
hints = (
{
horizontal = 1;
place = "{0.000000, 0.000000}";
},
{
place = "{0.000000, 0.000000}";
},
{
place = "{0.000000, 0.000000}";
}
);
layerId = "15B66CED-04CE-488B-9A4B-381885916D99";
name = "Regular Nov 20 15, 19:29";
paths = (
{
closed = 1;
nodes = (
"332 88 LINE",
"301 69 OFFCURVE",
"261 57 OFFCURVE",
"227 57 CURVE SMOOTH",
"178 57 OFFCURVE",
"158 80 OFFCURVE",
"158 136 CURVE SMOOTH",
"158 418 LINE",
"68 418 LINE",
"68 136 LINE SMOOTH",
"68 48 OFFCURVE",
"109 0 OFFCURVE",
"187 0 CURVE SMOOTH",
"239 0 OFFCURVE",
"276 15 OFFCURVE",
"342 57 CURVE"
);
},
{
closed = 1;
nodes = (
"422 -3 OFFCURVE",
"450 15 OFFCURVE",
"461 28 CURVE",
"430 56 OFFCURVE",
"415 93 OFFCURVE",
"415 147 CURVE SMOOTH",
"415 418 LINE",
"325 418 LINE",
"325 55 LINE",
"399 -12 LINE"
);
}
);
width = 506;
}
);
leftKerningGroup = o;
leftMetricsKey = d;
rightKerningGroup = q;
rightMetricsKey = u;
unicode = 0071;
},
{
color = 4;
glyphname = r;
lastChange = "2015-12-28 19:12:02 +0000";
layers = (
{
anchors = (
{
name = bottom;
position = "{143, 0}";
},
{
name = top;
position = "{198, 407}";
}
);
layerId = "0E844BAD-773F-41FF-B6D6-C35F1E5E991C";
name = Bold;
paths = (
{
closed = 1;
nodes = (
"174 -6 OFFCURVE",
"207 -4 OFFCURVE",
"226 0 CURVE",
"213 29 OFFCURVE",
"206 82 OFFCURVE",
"206 150 CURVE SMOOTH",
"206 188 OFFCURVE",
"207 221 OFFCURVE",
"208 251 CURVE",
"235 269 OFFCURVE",
"284 284 OFFCURVE",
"340 275 CURVE",
"340 324 OFFCURVE",
"332 390 OFFCURVE",
"322 423 CURVE",
"275 409 OFFCURVE",
"241 382 OFFCURVE",
"210 342 CURVE",
"206 387 OFFCURVE",
"182 414 OFFCURVE",
"127 414 CURVE SMOOTH",
"104 414 OFFCURVE",
"66 405 OFFCURVE",
"35 378 CURVE",
"66 344 OFFCURVE",
"74 321 OFFCURVE",
"74 213 CURVE SMOOTH",
"74 139 OFFCURVE",
"71 57 OFFCURVE",
"67 0 CURVE",
"98 -4 OFFCURVE",
"124 -6 OFFCURVE",
"148 -6 CURVE SMOOTH"
);
}
);
width = 350;
},
{
anchors = (
{
name = bottom;
position = "{148, 0}";
},
{
name = top;
position = "{194, 407}";
}
);
background = {
paths = (
{
closed = 1;
nodes = (
"445 362 OFFCURVE",
"415 418 OFFCURVE",
"328 418 CURVE SMOOTH",
"266 418 OFFCURVE",
"204 380 OFFCURVE",
"169 321 CURVE",
"177 295 LINE",
"206 319 OFFCURVE",
"239 330 OFFCURVE",
"281 330 CURVE SMOOTH",
"329 330 OFFCURVE",
"349 308 OFFCURVE",
"349 255 CURVE SMOOTH",
"349 165 OFFCURVE",
"346 67 OFFCURVE",
"342 0 CURVE",
"365 -4 OFFCURVE",
"385 -6 OFFCURVE",
"403 -6 CURVE SMOOTH",
"422 -6 OFFCURVE",
"442 -4 OFFCURVE",
"461 0 CURVE",
"448 29 OFFCURVE",
"441 82 OFFCURVE",
"441 150 CURVE SMOOTH",
"441 181 OFFCURVE",
"445 251 OFFCURVE",
"445 280 CURVE SMOOTH"
);
}
);
};
hints = (
{
horizontal = 1;
origin = "{0, 17}";
target = "{0, 14}";
},
{
origin = "{0, 26}";
target = "{0, 5}";
},
{
origin = "{0, 14}";
target = "{0, 11}";
}
);
layerId = "51F41761-070F-43EA-B302-C90910850260";
name = Regular;
paths = (
{
closed = 1;
nodes = (
"172 -6 OFFCURVE",
"192 -4 OFFCURVE",
"211 0 CURVE",
"198 29 OFFCURVE",
"191 82 OFFCURVE",
"191 150 CURVE SMOOTH",
"191 206 OFFCURVE",
"193 253 OFFCURVE",
"194 291 CURVE",
"223 309 OFFCURVE",
"276 323 OFFCURVE",
"335 315 CURVE",
"335 351 OFFCURVE",
"327 399 OFFCURVE",
"317 423 CURVE",
"265 409 OFFCURVE",
"228 381 OFFCURVE",
"195 340 CURVE",
"193 387 OFFCURVE",
"174 414 OFFCURVE",
"132 414 CURVE SMOOTH",
"114 414 OFFCURVE",
"84 405 OFFCURVE",
"60 378 CURVE",
"91 344 OFFCURVE",
"99 321 OFFCURVE",
"99 213 CURVE SMOOTH",
"99 139 OFFCURVE",
"96 57 OFFCURVE",
"92 0 CURVE",
"115 -4 OFFCURVE",
"135 -6 OFFCURVE",
"153 -6 CURVE SMOOTH"
);
}
);
width = 340;
},
{
anchors = (
{
name = bottom;
position = "{244, 0}";
},
{
name = top;
position = "{244, 450}";
}
);
associatedMasterId = "51F41761-070F-43EA-B302-C90910850260";
hints = (
{
horizontal = 1;
origin = "{0, 0}";
target = "{1, 3}";
},
{
origin = "{1, 7}";
target = "{1, 8}";
},
{
origin = "{0, 12}";
target = "{0, 8}";
}
);
layerId = "4F4173B0-E80B-4D2B-A0C7-F6A199F707A1";
name = "Regular Nov 20 15, 19:58";
paths = (
{
closed = 1;
nodes = (
"156 330 LINE",
"187 349 OFFCURVE",
"227 361 OFFCURVE",
"261 361 CURVE SMOOTH",
"310 361 OFFCURVE",
"330 338 OFFCURVE",
"330 282 CURVE SMOOTH",
"330 0 LINE",
"420 0 LINE",
"420 282 LINE SMOOTH",
"420 370 OFFCURVE",
"379 418 OFFCURVE",
"301 418 CURVE SMOOTH",
"249 418 OFFCURVE",
"212 403 OFFCURVE",
"146 361 CURVE"
);
},
{
closed = 1;
nodes = (
"107 415 LINE",
"85 406 OFFCURVE",
"57 388 OFFCURVE",
"45 375 CURVE",
"64 347 OFFCURVE",
"73 310 OFFCURVE",
"73 257 CURVE SMOOTH",
"73 0 LINE",
"163 0 LINE",
"163 360 LINE"
);
}
);
width = 488;
}
);
leftKerningGroup = n;
leftMetricsKey = n;
rightKerningGroup = r;
unicode = 0072;
},
{
color = 4;
glyphname = s;
lastChange = "2015-12-28 19:12:02 +0000";
layers = (
{
anchors = (
{
name = bottom;
position = "{192, 0}";
},
{
name = top;
position = "{197, 407}";
}
);
hints = (
{
horizontal = 1;
origin = "{0, 35}";
target = "{0, 26}";
},
{
horizontal = 1;
origin = "{0, 17}";
target = "{0, 8}";
},
{
origin = "{0, 20}";
target = "{0, 5}";
},
{
origin = "{0, 23}";
target = "{0, 2}";
}
);
layerId = "51F41761-070F-43EA-B302-C90910850260";
name = Regular;
paths = (
{
closed = 1;
nodes = (
"300 -11 OFFCURVE",
"363 33 OFFCURVE",
"363 109 CURVE SMOOTH",
"363 249 OFFCURVE",
"139 238 OFFCURVE",
"139 325 CURVE SMOOTH",
"139 345 OFFCURVE",
"159 363 OFFCURVE",
"189 369 CURVE",
"220 369 OFFCURVE",
"269 342 OFFCURVE",
"318 298 CURVE",
"335 327 OFFCURVE",
"349 372 OFFCURVE",
"349 394 CURVE",
"307 410 OFFCURVE",
"256 418 OFFCURVE",
"196 418 CURVE SMOOTH",
"104 418 OFFCURVE",
"41 374 OFFCURVE",
"41 310 CURVE SMOOTH",
"41 164 OFFCURVE",
"265 172 OFFCURVE",
"265 98 CURVE SMOOTH",
"265 65 OFFCURVE",
"234 48 OFFCURVE",
"174 48 CURVE SMOOTH",
"124 48 OFFCURVE",
"78 68 OFFCURVE",
"53 101 CURVE",
"40 73 OFFCURVE",
"35 52 OFFCURVE",
"35 25 CURVE",
"74 1 OFFCURVE",
"127 -11 OFFCURVE",
"189 -11 CURVE SMOOTH"
);
}
);
width = 393;
},
{
anchors = (
{
name = bottom;
position = "{201, 0}";
},
{
name = top;
position = "{211, 407}";
}
);
layerId = "0E844BAD-773F-41FF-B6D6-C35F1E5E991C";
name = Bold;
paths = (
{
closed = 1;
nodes = (
"323 -11 OFFCURVE",
"393 37 OFFCURVE",
"393 119 CURVE SMOOTH",
"393 254 OFFCURVE",
"180 259 OFFCURVE",
"180 306 CURVE SMOOTH",
"180 316 OFFCURVE",
"191 326 OFFCURVE",
"205 329 CURVE",
"241 329 OFFCURVE",
"295 305 OFFCURVE",
"346 265 CURVE",
"361 289 OFFCURVE",
"379 359 OFFCURVE",
"379 394 CURVE",
"339 408 OFFCURVE",
"275 418 OFFCURVE",
"219 418 CURVE SMOOTH",
"108 418 OFFCURVE",
"36 369 OFFCURVE",
"36 293 CURVE SMOOTH",
"36 140 OFFCURVE",
"251 151 OFFCURVE",
"251 98 CURVE SMOOTH",
"251 78 OFFCURVE",
"228 68 OFFCURVE",
"184 68 CURVE SMOOTH",
"124 68 OFFCURVE",
"75 89 OFFCURVE",
"49 121 CURVE",
"35 86 OFFCURVE",
"30 60 OFFCURVE",
"30 25 CURVE",
"72 1 OFFCURVE",
"132 -11 OFFCURVE",
"202 -11 CURVE SMOOTH"
);
}
);
width = 418;
},
{
anchors = (
{
name = bottom;
position = "{189, 0}";
},
{
name = top;
position = "{189, 407}";
}
);
associatedMasterId = "51F41761-070F-43EA-B302-C90910850260";
hints = (
{
place = "{77.000000, 113.000000}";
},
{
place = "{296.000000, 121.000000}";
},
{
horizontal = 1;
place = "{28.000000, 80.000000}";
},
{
horizontal = 1;
place = "{462.000000, 82.000000}";
}
);
layerId = "3CA1B9B0-DE91-4E0D-88FD-CF87CB9178A2";
name = "Regular Nov 23 15, 09:13";
paths = (
{
closed = 1;
nodes = (
"220.245 51.358 OFFCURVE",
"249 67.577 OFFCURVE",
"249 97.605 CURVE SMOOTH",
"249 171.569 OFFCURVE",
"40 164.201 OFFCURVE",
"40 310 CURVE SMOOTH",
"40 373.857 OFFCURVE",
"100.492 418 OFFCURVE",
"188 418 CURVE SMOOTH",
"244.421 418 OFFCURVE",
"294.427 409.794 OFFCURVE",
"334.254 394 CURVE",
"334.254 371.5 OFFCURVE",
"320.325 326.929 OFFCURVE",
"304.254 298 CURVE",
"258.394 341.867 OFFCURVE",
"211.388 369 OFFCURVE",
"181.254 369 CURVE",
"155.574 363.242 OFFCURVE",
"138 345.364 OFFCURVE",
"138 325 CURVE SMOOTH",
"138 237.599 OFFCURVE",
"347 249.258 OFFCURVE",
"347 109.221 CURVE SMOOTH",
"347 36.735 OFFCURVE",
"292.602 -11 OFFCURVE",
"210 -11 CURVE SMOOTH",
"145.382 -11 OFFCURVE",
"77.22 16.666 OFFCURVE",
"40 58 CURVE",
"48 84 LINE",
"78.013 63.158 OFFCURVE",
"121.035 51.358 OFFCURVE",
"167.009 51.358 CURVE SMOOTH"
);
}
);
width = 377;
}
);
leftKerningGroup = s;
rightKerningGroup = s;
unicode = 0073;
},
{
color = 4;
glyphname = germandbls;
lastChange = "2015-12-28 19:12:02 +0000";
layers = (
{
hints = (
{
horizontal = 1;
origin = "{0, 5}";
target = "{1, 30}";
},
{
horizontal = 1;
origin = "{1, 24}";
target = "{0, 11}";
},
{
horizontal = 1;
origin = "{0, 24}";
target = down;
type = TopGhost;
},
{
horizontal = 1;
origin = "{1, 11}";
target = "{0, 21}";
},
{
place = "{101.640000, 86.360000}";
},
{
origin = "{1, 24}";
target = "{1, 27}";
}
);
layerId = "51F41761-070F-43EA-B302-C90910850260";
name = Regular;
paths = (
{
closed = 1;
nodes = (
"112 -93 OFFCURVE",
"143 -52 OFFCURVE",
"152 13 CURVE",
"188 -3 OFFCURVE",
"230 -11 OFFCURVE",
"274 -11 CURVE SMOOTH",
"412 -11 OFFCURVE",
"485 46 OFFCURVE",
"485 153 CURVE SMOOTH",
"485 238 OFFCURVE",
"422 301 OFFCURVE",
"331 305 CURVE",
"404 372 LINE SMOOTH",
"452 415 OFFCURVE",
"468 441 OFFCURVE",
"468 478 CURVE SMOOTH",
"468 508 OFFCURVE",
"456 533 OFFCURVE",
"435 546 CURVE",
"402 524 OFFCURVE",
"356 516 OFFCURVE",
"263 516 CURVE SMOOTH",
"191 516 OFFCURVE",
"134 520 OFFCURVE",
"106 527 CURVE",
"80 488 OFFCURVE",
"57 448 OFFCURVE",
"57 369 CURVE SMOOTH",
"57 254 OFFCURVE",
"66 142 OFFCURVE",
"66 75 CURVE SMOOTH",
"66 -64 OFFCURVE",
"54 -98 OFFCURVE",
"20 -146 CURVE",
"36 -159 LINE"
);
},
{
closed = 1;
nodes = (
"224 47 OFFCURVE",
"185 59 OFFCURVE",
"155 80 CURVE",
"154 127 OFFCURVE",
"149 194 OFFCURVE",
"149 277 CURVE SMOOTH",
"149 342 OFFCURVE",
"150 391 OFFCURVE",
"152 428 CURVE",
"182 435 OFFCURVE",
"223 439 OFFCURVE",
"267 439 CURVE SMOOTH",
"320 439 OFFCURVE",
"381 437 OFFCURVE",
"401 434 CURVE",
"236 285 LINE SMOOTH",
"217 268 OFFCURVE",
"207 255 OFFCURVE",
"202 242 CURVE",
"202 234 OFFCURVE",
"223 220 OFFCURVE",
"236 220 CURVE",
"250 248 OFFCURVE",
"279 266 OFFCURVE",
"310 266 CURVE",
"356 247 OFFCURVE",
"383 206 OFFCURVE",
"383 153 CURVE SMOOTH",
"383 86 OFFCURVE",
"340 47 OFFCURVE",
"267 47 CURVE SMOOTH"
);
}
);
width = 525;
},
{
background = {
paths = (
{
closed = 1;
nodes = (
"78 418 LINE",
"53 399 OFFCURVE",
"28 383 OFFCURVE",
"-1 368 CURVE",
"-1 325 OFFCURVE",
"11 319 OFFCURVE",
"92 320 CURVE"
);
},
{
closed = 1;
nodes = (
"85 19 OFFCURVE",
"80 -49 OFFCURVE",
"30 -127 CURVE",
"66 -159 LINE",
"172 -86 OFFCURVE",
"209 -30 OFFCURVE",
"209 63 CURVE SMOOTH",
"209 107 OFFCURVE",
"202 176 OFFCURVE",
"202 284 CURVE SMOOTH",
"202 438 OFFCURVE",
"208 474 OFFCURVE",
"237 496 CURVE",
"267 489 OFFCURVE",
"294 474 OFFCURVE",
"351 435 CURVE",
"364 457 OFFCURVE",
"380 526 OFFCURVE",
"380 561 CURVE",
"347 577 OFFCURVE",
"308 585 OFFCURVE",
"264 585 CURVE SMOOTH",
"157 585 OFFCURVE",
"78 507 OFFCURVE",
"66 389 CURVE"
);
},
{
closed = 1;
nodes = (
"502 -11 OFFCURVE",
"586 49 OFFCURVE",
"586 160 CURVE SMOOTH",
"586 235 OFFCURVE",
"522 298 OFFCURVE",
"433 312 CURVE",
"483 348 LINE SMOOTH",
"542 390 OFFCURVE",
"569 429 OFFCURVE",
"569 471 CURVE SMOOTH",
"569 500 OFFCURVE",
"556 529 OFFCURVE",
"535 546 CURVE",
"496 525 OFFCURVE",
"438 516 OFFCURVE",
"338 516 CURVE SMOOTH",
"240 516 OFFCURVE",
"163 520 OFFCURVE",
"126 527 CURVE",
"126 477 OFFCURVE",
"139 417 OFFCURVE",
"157 379 CURVE",
"189 392 OFFCURVE",
"233 397 OFFCURVE",
"312 397 CURVE SMOOTH",
"355 397 OFFCURVE",
"402 396 OFFCURVE",
"451 395 CURVE",
"305 290 LINE SMOOTH",
"276 269 OFFCURVE",
"263 249 OFFCURVE",
"259 234 CURVE",
"259 222 OFFCURVE",
"292 204 OFFCURVE",
"314 204 CURVE",
"332 230 OFFCURVE",
"361 249 OFFCURVE",
"382 249 CURVE",
"420 234 OFFCURVE",
"442 201 OFFCURVE",
"442 160 CURVE SMOOTH",
"442 101 OFFCURVE",
"401 67 OFFCURVE",
"329 67 CURVE SMOOTH",
"264 67 OFFCURVE",
"205 90 OFFCURVE",
"173 128 CURVE",
"160 93 OFFCURVE",
"155 67 OFFCURVE",
"155 35 CURVE",
"209 5 OFFCURVE",
"275 -11 OFFCURVE",
"346 -11 CURVE SMOOTH"
);
}
);
};
layerId = "0E844BAD-773F-41FF-B6D6-C35F1E5E991C";
name = Bold;
paths = (
{
closed = 1;
nodes = (
"135 -100 OFFCURVE",
"173 -52 OFFCURVE",
"185 13 CURVE",
"224 -3 OFFCURVE",
"268 -11 OFFCURVE",
"314 -11 CURVE SMOOTH",
"457 -11 OFFCURVE",
"535 49 OFFCURVE",
"535 160 CURVE SMOOTH",
"535 234 OFFCURVE",
"478 298 OFFCURVE",
"398 312 CURVE",
"437 346 LINE SMOOTH",
"493 397 OFFCURVE",
"516 433 OFFCURVE",
"516 471 CURVE SMOOTH",
"516 500 OFFCURVE",
"505 529 OFFCURVE",
"487 546 CURVE",
"451 525 OFFCURVE",
"397 516 OFFCURVE",
"308 516 CURVE SMOOTH",
"215 516 OFFCURVE",
"142 520 OFFCURVE",
"106 527 CURVE",
"76 488 OFFCURVE",
"51 449 OFFCURVE",
"51 369 CURVE SMOOTH",
"51 264 OFFCURVE",
"60 165 OFFCURVE",
"60 102 CURVE SMOOTH",
"60 -29 OFFCURVE",
"49 -76 OFFCURVE",
"20 -127 CURVE",
"58 -159 LINE"
);
},
{
closed = 1;
nodes = (
"255 67 OFFCURVE",
"217 78 OFFCURVE",
"188 98 CURVE",
"187 141 OFFCURVE",
"183 201 OFFCURVE",
"183 284 CURVE SMOOTH",
"183 331 OFFCURVE",
"184 367 OFFCURVE",
"185 395 CURVE",
"207 398 OFFCURVE",
"232 400 OFFCURVE",
"264 400 CURVE SMOOTH",
"317 400 OFFCURVE",
"370 398 OFFCURVE",
"399 395 CURVE",
"276 291 LINE SMOOTH",
"251 271 OFFCURVE",
"236 251 OFFCURVE",
"233 234 CURVE",
"233 222 OFFCURVE",
"266 204 OFFCURVE",
"288 204 CURVE",
"305 229 OFFCURVE",
"330 249 OFFCURVE",
"345 249 CURVE",
"375 234 OFFCURVE",
"393 201 OFFCURVE",
"393 160 CURVE SMOOTH",
"393 101 OFFCURVE",
"358 67 OFFCURVE",
"296 67 CURVE SMOOTH"
);
}
);
width = 565;
}
);
leftKerningGroup = h;
rightKerningGroup = germandbls;
rightMetricsKey = three;
unicode = 00DF;
},
